<svg version="1.1" viewBox="0.0 0.0 1790.724409448819 682.0551181102362" fill="none" stroke="none" stroke-linecap="square" stroke-miterlimit="10" xmlns:xlink="http://www.w3.org/1999/xlink" xmlns="http://www.w3.org/2000/svg"><clipPath id="p.0"><path d="m0 0l1790.7244 0l0 682.0551l-1790.7244 0l0 -682.0551z" clip-rule="nonzero"/></clipPath><g clip-path="url(#p.0)"><path fill="#000000" fill-opacity="0.0" d="m0 0l1790.7244 0l0 682.0551l-1790.7244 0z" fill-rule="evenodd"/><path fill="#ffffff" d="m23.383202 50.513123l275.67908 0l34.55713 34.55712l0 172.78146l-310.2362 0z" fill-rule="evenodd"/><path stroke="#000000" stroke-width="2.0" stroke-linejoin="round" stroke-linecap="butt" d="m23.383202 50.513123l275.67908 0l34.55713 34.55712l0 172.78146l-310.2362 0z" fill-rule="evenodd"/><path fill="#000000" fill-opacity="0.0" d="m35.65354 94.33596l243.77954 0l0 56.755898l-243.77954 0z" fill-rule="evenodd"/><path fill="#000000" d="m46.637917 128.93596l0 -19.078125l3.796875 0l4.515625 13.5q0.625 1.890625 0.90625 2.828125q0.328125 -1.03125 1.015625 -3.0625l4.578125 -13.265625l3.390625 0l0 19.078125l-2.4375 0l0 -15.96875l-5.546875 15.96875l-2.265625 0l-5.53125 -16.25l0 16.25l-2.421875 0zm31.03299 0l0 -2.03125q-1.609375 2.34375 -4.375 2.34375q-1.234375 0 -2.296875 -0.46875q-1.0625 -0.46875 -1.578125 -1.171875q-0.5 -0.71875 -0.71875 -1.75q-0.140625 -0.6875 -0.140625 -2.1875l0 -8.5625l2.34375 0l0 7.671875q0 1.828125 0.140625 2.46875q0.21875 0.921875 0.9375 1.453125q0.71875 0.53125 1.765625 0.53125q1.0625 0 1.984375 -0.53125q0.921875 -0.546875 1.296875 -1.46875q0.390625 -0.9375 0.390625 -2.71875l0 -7.40625l2.34375 0l0 13.828125l-2.09375 0zm5.715561 0l0 -19.078125l2.34375 0l0 19.078125l-2.34375 0zm11.09404 -2.09375l0.328125 2.0625q-0.984375 0.21875 -1.765625 0.21875q-1.265625 0 -1.96875 -0.40625q-0.703125 -0.40625 -1.0 -1.0625q-0.28125 -0.65625 -0.28125 -2.765625l0 -7.953125l-1.71875 0l0 -1.828125l1.71875 0l0 -3.421875l2.328125 -1.40625l0 4.828125l2.359375 0l0 1.828125l-2.359375 0l0 8.078125q0 1.0 0.125 1.296875q0.125 0.28125 0.40625 0.453125q0.28125 0.171875 0.796875 0.171875q0.390625 0 1.03125 -0.09375zm2.296585 -14.296875l0 -2.6875l2.34375 0l0 2.6875l-2.34375 0zm0 16.390625l0 -13.828125l2.34375 0l0 13.828125l-2.34375 0zm4.96904 -4.125l2.328125 -0.359375q0.1875 1.390625 1.078125 2.140625q0.890625 0.734375 2.5 0.734375q1.609375 0 2.390625 -0.65625q0.78125 -0.65625 0.78125 -1.546875q0 -0.796875 -0.6875 -1.25q-0.484375 -0.3125 -2.390625 -0.796875q-2.578125 -0.65625 -3.578125 -1.125q-1.0 -0.46875 -1.515625 -1.3125q-0.515625 -0.84375 -0.515625 -1.859375q0 -0.921875 0.421875 -1.703125q0.4375 -0.796875 1.15625 -1.3125q0.546875 -0.40625 1.484375 -0.6875q0.953125 -0.28125 2.03125 -0.28125q1.625 0 2.859375 0.46875q1.234375 0.46875 1.8125 1.28125q0.59375 0.796875 0.8125 2.140625l-2.296875 0.3125q-0.15625 -1.078125 -0.90625 -1.671875q-0.75 -0.59375 -2.109375 -0.59375q-1.609375 0 -2.3125 0.53125q-0.6875 0.53125 -0.6875 1.25q0 0.453125 0.296875 0.8125q0.28125 0.375 0.890625 0.625q0.359375 0.140625 2.078125 0.609375q2.484375 0.65625 3.46875 1.078125q0.984375 0.421875 1.53125 1.234375q0.5625 0.796875 0.5625 2.0q0 1.171875 -0.6875 2.21875q-0.671875 1.03125 -1.96875 1.59375q-1.28125 0.5625 -2.90625 0.5625q-2.703125 0 -4.125 -1.109375q-1.40625 -1.125 -1.796875 -3.328125zm14.28125 -12.265625l0 -2.6875l2.34375 0l0 2.6875l-2.34375 0zm0 16.390625l0 -13.828125l2.34375 0l0 13.828125l-2.34375 0zm5.484665 1.140625l2.28125 0.34375q0.140625 1.046875 0.796875 1.53125q0.859375 0.65625 2.375 0.65625q1.6250076 0 2.5000076 -0.65625q0.890625 -0.640625 1.203125 -1.8125q0.1875 -0.71875 0.171875 -3.015625q-1.53125 1.8125 -3.8281326 1.8125q-2.84375 0 -4.40625 -2.046875q-1.5625 -2.0625 -1.5625 -4.9375q0 -1.984375 0.71875 -3.65625q0.71875 -1.671875 2.078125 -2.578125q1.359375 -0.921875 3.1875 -0.921875q2.4531326 0 4.0312576 1.984375l0 -1.671875l2.171875 0l0 11.953125q0 3.234375 -0.65625 4.578125q-0.65625 1.34375 -2.09375 2.125q-1.421875 0.78125 -3.5000076 0.78125q-2.46875 0 -4.0 -1.109375q-1.515625 -1.109375 -1.46875 -3.359375zm1.9375 -8.296875q0 2.71875 1.078125 3.96875q1.078125 1.25 2.703125 1.25q1.6250076 0 2.7187576 -1.234375q1.09375 -1.25 1.09375 -3.90625q0 -2.546875 -1.125 -3.828125q-1.125 -1.296875 -2.7187576 -1.296875q-1.5625 0 -2.65625 1.28125q-1.09375 1.265625 -1.09375 3.765625z" fill-rule="nonzero"/><path fill="#000000" fill-opacity="0.0" d="m237.54855 420.0l0.12599182 -153.95276" fill-rule="evenodd"/><path stroke="#000000" stroke-width="4.0" stroke-linejoin="round" stroke-linecap="butt" d="m237.5682 396.0l0.1063385 -129.95276" fill-rule="evenodd"/><path fill="#000000" stroke="#000000" stroke-width="4.0" stroke-linecap="butt" d="m230.96127 395.9946l6.5920715 18.157806l6.6217804 -18.147003z" fill-rule="evenodd"/><path fill="#ffffff" d="m35.65354 437.67847l275.6791 0l34.55713 34.55713l0 172.7815l-310.23624 0z" fill-rule="evenodd"/><path stroke="#000000" stroke-width="2.0" stroke-linejoin="round" stroke-linecap="butt" stroke-dasharray="8.0,6.0" d="m35.65354 437.67847l275.6791 0l34.55713 34.55713l0 172.7815l-310.23624 0z" fill-rule="evenodd"/><path fill="#000000" fill-opacity="0.0" d="m47.923885 481.5013l243.77951 0l0 135.77951l-243.77951 0z" fill-rule="evenodd"/><path fill="#000000" d="m58.986385 516.1013l0 -19.078125l7.187496 0q1.90625 0 2.90625 0.171875q1.40625 0.234375 2.359375 0.90625q0.953125 0.65625 1.53125 1.84375q0.578125 1.171875 0.578125 2.59375q0 2.4375 -1.5625 4.125q-1.546875 1.6875 -5.59375 1.6875l-4.890621 0l0 7.75l-2.515625 0zm2.515625 -10.015625l4.937496 0q2.453125 0 3.46875 -0.90625q1.03125 -0.90625 1.03125 -2.5625q0 -1.203125 -0.609375 -2.046875q-0.59375 -0.859375 -1.59375 -1.125q-0.625 -0.171875 -2.34375 -0.171875l-4.890621 0l0 6.8125zm23.982632 8.3125q-1.3125 1.109375 -2.515625 1.5625q-1.203125 0.453125 -2.578125 0.453125q-2.28125 0 -3.5 -1.109375q-1.21875 -1.109375 -1.21875 -2.84375q0 -1.015625 0.453125 -1.859375q0.46875 -0.84375 1.21875 -1.34375q0.75 -0.515625 1.6875 -0.765625q0.6875 -0.1875 2.078125 -0.359375q2.828125 -0.328125 4.171875 -0.796875q0.015625 -0.484375 0.015625 -0.625q0 -1.421875 -0.65625 -2.015625q-0.90625 -0.796875 -2.671875 -0.796875q-1.65625 0 -2.453125 0.59375q-0.78125 0.578125 -1.15625 2.046875l-2.296875 -0.3125q0.3125 -1.46875 1.03125 -2.375q0.71875 -0.90625 2.0625 -1.390625q1.359375 -0.5 3.140625 -0.5q1.78125 0 2.875 0.421875q1.109375 0.421875 1.625 1.046875q0.53125 0.625 0.734375 1.59375q0.125 0.59375 0.125 2.15625l0 3.125q0 3.265625 0.140625 4.140625q0.15625 0.859375 0.59375 1.65625l-2.4375 0q-0.375 -0.734375 -0.46875 -1.703125zm-0.203125 -5.234375q-1.265625 0.515625 -3.828125 0.890625q-1.4375 0.203125 -2.046875 0.46875q-0.59375 0.25 -0.921875 0.75q-0.3125 0.5 -0.3125 1.125q0 0.9375 0.703125 1.5625q0.703125 0.625 2.078125 0.625q1.34375 0 2.390625 -0.59375q1.0625 -0.59375 1.5625 -1.625q0.375 -0.796875 0.375 -2.34375l0 -0.859375zm5.903061 12.265625l-0.265625 -2.203125q0.765625 0.203125 1.34375 0.203125q0.78125 0 1.25 -0.265625q0.46875 -0.25 0.765625 -0.71875q0.21875 -0.359375 0.71875 -1.75q0.0625 -0.1875 0.203125 -0.5625l-5.25 -13.859375l2.53125 0l2.875 8.015625q0.5625 1.515625 1.0 3.203125q0.40625 -1.625 0.96875 -3.15625l2.953125 -8.0625l2.34375 0l-5.265625 14.0625q-0.84375 2.28125 -1.3125 3.140625q-0.625 1.15625 -1.4375 1.6875q-0.796875 0.546875 -1.921875 0.546875q-0.671875 0 -1.5 -0.28125zm13.421875 -5.328125l0 -13.828125l2.109375 0l0 1.9375q0.640625 -1.015625 1.71875 -1.625q1.09375 -0.625 2.46875 -0.625q1.53125 0 2.515625 0.640625q0.984375 0.640625 1.390625 1.78125q1.640625 -2.421875 4.265625 -2.421875q2.0625 0 3.15625 1.140625q1.109375 1.140625 1.109375 3.515625l0 9.484375l-2.328125 0l0 -8.703125q0 -1.40625 -0.234375 -2.015625q-0.21875 -0.625 -0.828125 -1.0q-0.59375 -0.390625 -1.390625 -0.390625q-1.46875 0 -2.4375 0.96875q-0.953125 0.96875 -0.953125 3.109375l0 8.03125l-2.34375 0l0 -8.984375q0 -1.5625 -0.578125 -2.34375q-0.5625 -0.78125 -1.875 -0.78125q-0.984375 0 -1.828125 0.53125q-0.828125 0.515625 -1.21875 1.515625q-0.375 1.0 -0.375 2.890625l0 7.171875l-2.34375 0zm31.673622 -4.453125l2.421875 0.296875q-0.578125 2.125 -2.125 3.296875q-1.546875 1.171875 -3.953125 1.171875q-3.03125 0 -4.8125076 -1.859375q-1.78125 -1.875 -1.78125 -5.25q0 -3.484375 1.796875 -5.40625q1.7968826 -1.9375 4.6718826 -1.9375q2.765625 0 4.515625 1.890625q1.765625 1.890625 1.765625 5.3125q0 0.203125 -0.015625 0.625l-10.3125 0q0.140625 2.28125 1.296875 3.5q1.15625 1.203125 2.890625 1.203125q1.28125 0 2.1875 -0.671875q0.921875 -0.6875 1.453125 -2.171875zm-7.6875 -3.78125l7.71875 0q-0.15625 -1.75 -0.890625 -2.625q-1.125 -1.34375 -2.90625 -1.34375q-1.609375 0 -2.71875 1.078125q-1.09375 1.078125 -1.203125 2.890625zm13.043686 8.234375l0 -13.828125l2.109375 0l0 1.96875q1.53125 -2.28125 4.40625 -2.28125q1.25 0 2.296875 0.453125q1.046875 0.453125 1.5625 1.1875q0.53125 0.71875 0.734375 1.71875q0.125 0.65625 0.125 2.28125l0 8.5l-2.34375 0l0 -8.40625q0 -1.4375 -0.28125 -2.140625q-0.265625 -0.71875 -0.96875 -1.140625q-0.6875 -0.421875 -1.625 -0.421875q-1.484375 0 -2.578125 0.953125q-1.09375 0.953125 -1.09375 3.609375l0 7.546875l-2.34375 0zm19.949936 -2.09375l0.328125 2.0625q-0.984375 0.21875 -1.765625 0.21875q-1.265625 0 -1.96875 -0.40625q-0.703125 -0.40625 -1.0 -1.0625q-0.28125 -0.65625 -0.28125 -2.765625l0 -7.953125l-1.71875 0l0 -1.828125l1.71875 0l0 -3.421875l2.328125 -1.40625l0 4.828125l2.359375 0l0 1.828125l-2.359375 0l0 8.078125q0 1.0 0.125 1.296875q0.125 0.28125 0.40625 0.453125q0.28125 0.171875 0.796875 0.171875q0.390625 0 1.03125 -0.09375zm9.21817 -7.203125q0 -4.75 2.546875 -7.4375q2.5625 -2.6875 6.59375 -2.6875q2.640625 0 4.765625 1.265625q2.125 1.265625 3.234375 3.53125q1.109375 2.25 1.109375 5.109375q0 2.90625 -1.171875 5.203125q-1.171875 2.28125 -3.3125 3.46875q-2.140625 1.171875 -4.640625 1.171875q-2.6875 0 -4.8125 -1.296875q-2.125 -1.3125 -3.21875 -3.5625q-1.09375 -2.25 -1.09375 -4.765625zm2.609375 0.046875q0 3.4375 1.84375 5.4375q1.859375 1.984375 4.671875 1.984375q2.84375 0 4.6875 -2.0q1.84375 -2.015625 1.84375 -5.703125q0 -2.328125 -0.796875 -4.0625q-0.78125 -1.734375 -2.296875 -2.6875q-1.515625 -0.96875 -3.40625 -0.96875q-2.6875 0 -4.625 1.84375q-1.921875 1.84375 -1.921875 6.15625zm20.765335 9.25l-2.171875 0l0 -19.078125l2.34375 0l0 6.796875q1.484375 -1.859375 3.78125 -1.859375q1.28125 0 2.40625 0.515625q1.140625 0.515625 1.875 1.453125q0.75 0.921875 1.15625 2.25q0.421875 1.3125 0.421875 2.796875q0 3.5625 -1.765625 5.5q-1.75 1.9375 -4.21875 1.9375q-2.4375 0 -3.828125 -2.046875l0 1.734375zm-0.03125 -7.015625q0 2.484375 0.671875 3.59375q1.109375 1.8125 3.0 1.8125q1.53125 0 2.65625 -1.328125q1.125 -1.34375 1.125 -3.984375q0 -2.703125 -1.078125 -3.984375q-1.078125 -1.296875 -2.59375 -1.296875q-1.546875 0 -2.671875 1.328125q-1.109375 1.328125 -1.109375 3.859375zm12.684311 -9.34375l0 -2.71875l2.34375 0l0 2.71875l-2.34375 0zm-2.96875 21.71875l0.4375 -1.984375q0.703125 0.171875 1.109375 0.171875q0.71875 0 1.0625 -0.46875q0.359375 -0.46875 0.359375 -2.375l0 -14.53125l2.34375 0l0 14.578125q0 2.5625 -0.671875 3.5625q-0.84375 1.296875 -2.8125 1.296875q-0.953125 0 -1.828125 -0.25zm18.359665 -9.8125l2.421875 0.296875q-0.578125 2.125 -2.125 3.296875q-1.546875 1.171875 -3.953125 1.171875q-3.03125 0 -4.8125 -1.859375q-1.78125 -1.875 -1.78125 -5.25q0 -3.484375 1.796875 -5.40625q1.796875 -1.9375 4.671875 -1.9375q2.765625 0 4.515625 1.890625q1.765625 1.890625 1.765625 5.3125q0 0.203125 -0.015625 0.625l-10.3125 0q0.140625 2.28125 1.296875 3.5q1.15625 1.203125 2.890625 1.203125q1.28125 0 2.1875 -0.671875q0.921875 -0.6875 1.453125 -2.171875zm-7.6875 -3.78125l7.71875 0q-0.15625 -1.75 -0.890625 -2.625q-1.125 -1.34375 -2.90625 -1.34375q-1.609375 0 -2.71875 1.078125q-1.09375 1.078125 -1.203125 2.890625zm22.074936 3.171875l2.296875 0.296875q-0.375 2.390625 -1.9375 3.734375q-1.546875 1.34375 -3.8125 1.34375q-2.84375 0 -4.5625 -1.84375q-1.71875 -1.859375 -1.71875 -5.328125q0 -2.234375 0.734375 -3.90625q0.75 -1.6875 2.265625 -2.53125q1.515625 -0.84375 3.296875 -0.84375q2.25 0 3.671875 1.140625q1.4375 1.140625 1.84375 3.234375l-2.28125 0.359375q-0.328125 -1.390625 -1.15625 -2.09375q-0.8125 -0.703125 -1.984375 -0.703125q-1.78125 0 -2.890625 1.265625q-1.09375 1.265625 -1.09375 4.015625q0 2.78125 1.0625 4.046875q1.0625 1.265625 2.78125 1.265625q1.390625 0 2.3125 -0.84375q0.921875 -0.859375 1.171875 -2.609375zm9.421875 2.96875l0.328125 2.0625q-0.984375 0.21875 -1.765625 0.21875q-1.265625 0 -1.96875 -0.40625q-0.703125 -0.40625 -1.0 -1.0625q-0.28125 -0.65625 -0.28125 -2.765625l0 -7.953125l-1.71875 0l0 -1.828125l1.71875 0l0 -3.421875l2.328125 -1.40625l0 4.828125l2.359375 0l0 1.828125l-2.359375 0l0 8.078125q0 1.0 0.125 1.296875q0.125 0.28125 0.40625 0.453125q0.28125 0.171875 0.796875 0.171875q0.390625 0 1.03125 -0.09375z" fill-rule="nonzero"/><path fill="#000000" d="m56.892635 580.1013l7.312496 -19.078125l2.734375 0l7.796875 19.078125l-2.875 0l-2.21875 -5.78125l-7.984371 0l-2.09375 5.78125l-2.671875 0zm5.5 -7.828125l6.468746 0l-2.0 -5.296875q-0.90625 -2.40625 -1.34375 -3.953125q-0.375 1.84375 -1.03125 3.640625l-2.0937462 5.609375zm14.013882 7.828125l0 -19.078125l2.34375 0l0 19.078125l-2.34375 0zm5.984665 -16.390625l0 -2.6875l2.34375 0l0 2.6875l-2.34375 0zm0 16.390625l0 -13.828125l2.34375 0l0 13.828125l-2.34375 0zm14.93779 -5.0625l2.296875 0.296875q-0.375 2.390625 -1.9375 3.734375q-1.546875 1.34375 -3.8125 1.34375q-2.84375 0 -4.5625 -1.84375q-1.71875 -1.859375 -1.71875 -5.328125q0 -2.234375 0.734375 -3.90625q0.75 -1.6875 2.265625 -2.53125q1.515625 -0.84375 3.296875 -0.84375q2.25 0 3.671875 1.140625q1.4375 1.140625 1.84375 3.234375l-2.28125 0.359375q-0.328125 -1.390625 -1.15625 -2.09375q-0.8125 -0.703125 -1.984375 -0.703125q-1.78125 0 -2.890625 1.265625q-1.09375 1.265625 -1.09375 4.015625q0 2.78125 1.0625 4.046875q1.0625 1.265625 2.78125 1.265625q1.390625 0 2.3125 -0.84375q0.921875 -0.859375 1.171875 -2.609375zm13.765625 0.609375l2.421875 0.296875q-0.578125 2.125 -2.125 3.296875q-1.546875 1.171875 -3.953125 1.171875q-3.03125 0 -4.8125 -1.859375q-1.78125 -1.875 -1.78125 -5.25q0 -3.484375 1.796875 -5.40625q1.796875 -1.9375 4.671875 -1.9375q2.765625 0 4.515625 1.890625q1.765625 1.890625 1.765625 5.3125q0 0.203125 -0.015625 0.625l-10.3125 0q0.140625 2.28125 1.296875 3.5q1.15625 1.203125 2.890625 1.203125q1.28125 0 2.1875 -0.671875q0.921875 -0.6875 1.453125 -2.171875zm-7.6875 -3.78125l7.71875 0q-0.15625 -1.75 -0.890625 -2.625q-1.125 -1.34375 -2.90625 -1.34375q-1.609375 0 -2.71875 1.078125q-1.09375 1.078125 -1.203125 2.890625zm13.699936 -2.921875l0 -2.671875l2.671875 0l0 2.671875l-2.671875 0zm0 11.15625l0 -2.671875l2.671875 0l0 2.671875l-2.671875 0zm13.530678 -5.03125l2.34375 -0.3125q0.390625 1.984375 1.359375 2.875q0.984375 0.875 2.375 0.875q1.640625 0 2.78125 -1.140625q1.140625 -1.15625 1.140625 -2.84375q0 -1.625 -1.0625 -2.671875q-1.046875 -1.046875 -2.671875 -1.046875q-0.65625 0 -1.65625 0.265625l0.265625 -2.0625q0.234375 0.03125 0.375 0.03125q1.5 0 2.6875 -0.78125q1.203125 -0.78125 1.203125 -2.40625q0 -1.296875 -0.875 -2.140625q-0.859375 -0.84375 -2.25 -0.84375q-1.359375 0 -2.28125 0.859375q-0.90625 0.859375 -1.15625 2.578125l-2.34375 -0.421875q0.421875 -2.34375 1.9375 -3.640625q1.53125 -1.296875 3.796875 -1.296875q1.5625 0 2.875 0.671875q1.3125 0.671875 2.0 1.828125q0.703125 1.15625 0.703125 2.453125q0 1.234375 -0.671875 2.25q-0.65625 1.015625 -1.953125 1.625q1.6875 0.390625 2.625 1.625q0.9375 1.21875 0.9375 3.0625q0 2.5 -1.828125 4.25q-1.8125 1.734375 -4.59375 1.734375q-2.515625 0 -4.171875 -1.5q-1.65625 -1.5 -1.890625 -3.875zm32.324646 0.578125l2.421875 0.296875q-0.578125 2.125 -2.125 3.296875q-1.546875 1.171875 -3.953125 1.171875q-3.03125 0 -4.8125 -1.859375q-1.78125 -1.875 -1.78125 -5.25q0 -3.484375 1.796875 -5.40625q1.796875 -1.9375 4.671875 -1.9375q2.765625 0 4.515625 1.890625q1.765625 1.890625 1.765625 5.3125q0 0.203125 -0.015625 0.625l-10.3125 0q0.140625 2.28125 1.296875 3.5q1.15625 1.203125 2.890625 1.203125q1.28125 0 2.1875 -0.671875q0.921875 -0.6875 1.453125 -2.171875zm-7.6875 -3.78125l7.71875 0q-0.15625 -1.75 -0.890625 -2.625q-1.125 -1.34375 -2.90625 -1.34375q-1.609375 0 -2.71875 1.078125q-1.09375 1.078125 -1.203125 2.890625zm18.168686 6.140625l0.328125 2.0625q-0.984375 0.21875 -1.765625 0.21875q-1.265625 0 -1.96875 -0.40625q-0.703125 -0.40625 -1.0 -1.0625q-0.28125 -0.65625 -0.28125 -2.765625l0 -7.953125l-1.71875 0l0 -1.828125l1.71875 0l0 -3.421875l2.328125 -1.40625l0 4.828125l2.359375 0l0 1.828125l-2.359375 0l0 8.078125q0 1.0 0.125 1.296875q0.125 0.28125 0.40625 0.453125q0.28125 0.171875 0.796875 0.171875q0.390625 0 1.03125 -0.09375zm2.28096 2.09375l0 -19.078125l2.34375 0l0 6.84375q1.640625 -1.90625 4.140625 -1.90625q1.546875 0 2.671875 0.609375q1.140625 0.609375 1.625 1.671875q0.484375 1.0625 0.484375 3.09375l0 8.765625l-2.34375 0l0 -8.765625q0 -1.75 -0.765625 -2.546875q-0.75 -0.8125 -2.15625 -0.8125q-1.03125 0 -1.953125 0.546875q-0.921875 0.546875 -1.3125 1.46875q-0.390625 0.921875 -0.390625 2.546875l0 7.5625l-2.34375 0z" fill-rule="nonzero"/><path fill="#000000" d="m58.87701 612.1013l0 -19.078125l7.156246 0q2.1875 0 3.5 0.578125q1.328125 0.578125 2.078125 1.78125q0.75 1.203125 0.75 2.515625q0 1.21875 -0.671875 2.3125q-0.65625 1.078125 -2.0 1.734375q1.734375 0.515625 2.65625 1.734375q0.9375 1.21875 0.9375 2.890625q0 1.34375 -0.5625 2.5q-0.5625 1.140625 -1.40625 1.765625q-0.828125 0.625 -2.09375 0.953125q-1.25 0.3125 -3.0625 0.3125l-7.281246 0zm2.53125 -11.0625l4.124996 0q1.671875 0 2.40625 -0.21875q0.953125 -0.296875 1.4375 -0.953125q0.5 -0.671875 0.5 -1.671875q0 -0.9375 -0.453125 -1.65625q-0.453125 -0.734375 -1.3125 -1.0q-0.84375 -0.265625 -2.890625 -0.265625l-3.8124962 0l0 5.765625zm0 8.8125l4.749996 0q1.21875 0 1.71875 -0.09375q0.859375 -0.15625 1.4375 -0.515625q0.59375 -0.375 0.96875 -1.0625q0.390625 -0.703125 0.390625 -1.609375q0 -1.0625 -0.546875 -1.84375q-0.546875 -0.796875 -1.515625 -1.109375q-0.96875 -0.328125 -2.796875 -0.328125l-4.406246 0l0 6.5625zm14.185757 -4.65625q0 -3.84375 2.125 -5.6875q1.78125 -1.546875 4.34375 -1.546875q2.859375 0 4.65625 1.875q1.8125 1.859375 1.8125 5.15625q0 2.671875 -0.796875 4.203125q-0.796875 1.53125 -2.328125 2.375q-1.53125 0.84375 -3.34375 0.84375q-2.890625 0 -4.6875 -1.859375q-1.78125 -1.859375 -1.78125 -5.359375zm2.40625 0q0 2.65625 1.15625 3.984375q1.15625 1.3125 2.90625 1.3125q1.75 0 2.90625 -1.328125q1.15625 -1.328125 1.15625 -4.046875q0 -2.5625 -1.171875 -3.890625q-1.15625 -1.328125 -2.890625 -1.328125q-1.75 0 -2.90625 1.328125q-1.15625 1.3125 -1.15625 3.96875zm15.449936 6.90625l-2.171875 0l0 -19.078125l2.34375 0l0 6.796875q1.484375 -1.859375 3.78125 -1.859375q1.28125 0 2.40625 0.515625q1.140625 0.515625 1.875 1.453125q0.75 0.921875 1.15625 2.25q0.421875 1.3125 0.421875 2.796875q0 3.5625 -1.765625 5.5q-1.75 1.9375 -4.21875 1.9375q-2.4375 0 -3.828125 -2.046875l0 1.734375zm-0.03125 -7.015625q0 2.484375 0.671875 3.59375q1.109375 1.8125 3.0 1.8125q1.53125 0 2.65625 -1.328125q1.125 -1.34375 1.125 -3.984375q0 -2.703125 -1.078125 -3.984375q-1.078125 -1.296875 -2.59375 -1.296875q-1.546875 0 -2.671875 1.328125q-1.109375 1.328125 -1.109375 3.859375zm13.340561 -4.140625l0 -2.671875l2.671875 0l0 2.671875l-2.671875 0zm0 11.15625l0 -2.671875l2.671875 0l0 2.671875l-2.671875 0zm25.827553 -2.25l0 2.25l-12.609383 0q-0.03125 -0.84375 0.265625 -1.625q0.484375 -1.296875 1.546875 -2.546875q1.0625 -1.25 3.0625 -2.875q3.109375 -2.5625 4.2031326 -4.046875q1.09375 -1.5 1.09375 -2.8125q0 -1.40625 -1.0 -2.359375q-0.984375 -0.953125 -2.5937576 -0.953125q-1.6875 0 -2.703125 1.015625q-1.015625 1.015625 -1.03125 2.8125l-2.40625 -0.25q0.25 -2.6875 1.859375 -4.09375q1.609375 -1.421875 4.328125 -1.421875q2.7500076 0 4.3437576 1.53125q1.609375 1.515625 1.609375 3.765625q0 1.140625 -0.46875 2.25q-0.46875 1.109375 -1.5625 2.328125q-1.078125 1.21875 -3.6093826 3.359375q-2.09375 1.765625 -2.703125 2.40625q-0.59375 0.625 -0.984375 1.265625l9.359383 0zm20.027771 -2.203125l2.421875 0.296875q-0.578125 2.125 -2.125 3.296875q-1.546875 1.171875 -3.953125 1.171875q-3.03125 0 -4.8125 -1.859375q-1.78125 -1.875 -1.78125 -5.25q0 -3.484375 1.796875 -5.40625q1.796875 -1.9375 4.671875 -1.9375q2.765625 0 4.515625 1.890625q1.765625 1.890625 1.765625 5.3125q0 0.203125 -0.015625 0.625l-10.3125 0q0.140625 2.28125 1.296875 3.5q1.15625 1.203125 2.890625 1.203125q1.28125 0 2.1875 -0.671875q0.921875 -0.6875 1.453125 -2.171875zm-7.6875 -3.78125l7.71875 0q-0.15625 -1.75 -0.890625 -2.625q-1.125 -1.34375 -2.90625 -1.34375q-1.609375 0 -2.71875 1.078125q-1.09375 1.078125 -1.203125 2.890625zm18.168686 6.140625l0.328125 2.0625q-0.984375 0.21875 -1.765625 0.21875q-1.265625 0 -1.96875 -0.40625q-0.703125 -0.40625 -1.0 -1.0625q-0.28125 -0.65625 -0.28125 -2.765625l0 -7.953125l-1.71875 0l0 -1.828125l1.71875 0l0 -3.421875l2.328125 -1.40625l0 4.828125l2.359375 0l0 1.828125l-2.359375 0l0 8.078125q0 1.0 0.125 1.296875q0.125 0.28125 0.40625 0.453125q0.28125 0.171875 0.796875 0.171875q0.390625 0 1.03125 -0.09375zm2.28096 2.09375l0 -19.078125l2.34375 0l0 6.84375q1.640625 -1.90625 4.140625 -1.90625q1.546875 0 2.671875 0.609375q1.140625 0.609375 1.625 1.671875q0.484375 1.0625 0.484375 3.09375l0 8.765625l-2.34375 0l0 -8.765625q0 -1.75 -0.765625 -2.546875q-0.75 -0.8125 -2.15625 -0.8125q-1.03125 0 -1.953125 0.546875q-0.921875 0.546875 -1.3125 1.46875q-0.390625 0.921875 -0.390625 2.546875l0 7.5625l-2.34375 0z" fill-rule="nonzero"/><path fill="#ffffff" d="m473.39896 25.637466l180.51926 0l22.630371 22.630375l0 113.149155l-203.14963 0z" fill-rule="evenodd"/><path stroke="#000000" stroke-width="2.0" stroke-linejoin="round" stroke-linecap="butt" d="m473.39896 25.637466l180.51926 0l22.630371 22.630375l0 113.149155l-203.14963 0z" fill-rule="evenodd"/><path fill="#000000" fill-opacity="0.0" d="m485.66928 61.459473l243.77951 0l0 56.755905l-243.77951 0z" fill-rule="evenodd"/><path fill="#000000" d="m494.63803 96.05947l7.3125 -19.078125l2.734375 0l7.7969055 19.078125l-2.8750305 0l-2.21875 -5.78125l-7.984375 0l-2.09375 5.78125l-2.671875 0zm5.5 -7.828125l6.46875 0l-2.0 -5.296875q-0.90625 -2.40625 -1.34375 -3.953125q-0.375 1.84375 -1.03125 3.640625l-2.09375 5.609375zm14.0138855 7.828125l0 -19.078125l2.34375 0l0 19.078125l-2.34375 0zm5.98468 -16.390625l0 -2.6875l2.34375 0l0 2.6875l-2.34375 0zm0 16.390625l0 -13.828125l2.34375 0l0 13.828125l-2.34375 0zm14.937805 -5.0625l2.296875 0.296875q-0.375 2.390625 -1.9375 3.734375q-1.546875 1.34375 -3.8125 1.34375q-2.84375 0 -4.5625 -1.84375q-1.71875 -1.859375 -1.71875 -5.328125q0 -2.234375 0.734375 -3.90625q0.75 -1.6875 2.265625 -2.53125q1.515625 -0.84375 3.296875 -0.84375q2.25 0 3.671875 1.140625q1.4375 1.140625 1.84375 3.234375l-2.28125 0.359375q-0.328125 -1.390625 -1.15625 -2.09375q-0.8125 -0.703125 -1.984375 -0.703125q-1.78125 0 -2.890625 1.265625q-1.09375 1.265625 -1.09375 4.015625q0 2.78125 1.0625 4.046875q1.0625 1.265625 2.78125 1.265625q1.390625 0 2.3125 -0.84375q0.921875 -0.859375 1.171875 -2.609375zm13.765625 0.609375l2.421875 0.296875q-0.578125 2.125 -2.125 3.296875q-1.546875 1.171875 -3.953125 1.171875q-3.03125 0 -4.8125 -1.859375q-1.78125 -1.875 -1.78125 -5.25q0 -3.484375 1.796875 -5.40625q1.796875 -1.9375 4.671875 -1.9375q2.765625 0 4.515625 1.890625q1.765625 1.890625 1.765625 5.3125q0 0.203125 -0.015625 0.625l-10.3125 0q0.140625 2.28125 1.296875 3.5q1.15625 1.203125 2.890625 1.203125q1.28125 0 2.1875 -0.671875q0.921875 -0.6875 1.453125 -2.171875zm-7.6875 -3.78125l7.71875 0q-0.15625 -1.75 -0.890625 -2.625q-1.125 -1.34375 -2.90625 -1.34375q-1.609375 0 -2.71875 1.078125q-1.09375 1.078125 -1.203125 2.890625z" fill-rule="nonzero"/><path fill="#ffffff" d="m473.67453 192.33023l180.51926 0l22.630371 22.630371l0 113.14914l-203.14963 0z" fill-rule="evenodd"/><path stroke="#000000" stroke-width="2.0" stroke-linejoin="round" stroke-linecap="butt" d="m473.67453 192.33023l180.51926 0l22.630371 22.630371l0 113.14914l-203.14963 0z" fill-rule="evenodd"/><path fill="#000000" fill-opacity="0.0" d="m485.9449 228.15224l243.77954 0l0 56.755905l-243.77954 0z" fill-rule="evenodd"/><path fill="#000000" d="m496.898 262.75223l0 -19.078125l7.15625 0q2.1875 0 3.5 0.578125q1.328125 0.578125 2.078125 1.78125q0.75 1.203125 0.75 2.515625q0 1.21875 -0.671875 2.3125q-0.65625 1.078125 -2.0 1.734375q1.734375 0.515625 2.65625 1.734375q0.9375 1.21875 0.9375 2.890625q0 1.34375 -0.5625 2.5q-0.5625 1.140625 -1.40625 1.765625q-0.828125 0.625 -2.09375 0.953125q-1.25 0.3125 -3.0625 0.3125l-7.28125 0zm2.53125 -11.0625l4.125 0q1.671875 0 2.40625 -0.21875q0.953125 -0.296875 1.4375 -0.953125q0.5 -0.671875 0.5 -1.671875q0 -0.9375 -0.453125 -1.65625q-0.453125 -0.734375 -1.3125 -1.0q-0.84375 -0.265625 -2.890625 -0.265625l-3.8125 0l0 5.765625zm0 8.8125l4.75 0q1.21875 0 1.71875 -0.09375q0.859375 -0.15625 1.4375 -0.515625q0.59375 -0.375 0.96875 -1.0625q0.390625 -0.703125 0.390625 -1.609375q0 -1.0625 -0.546875 -1.84375q-0.546875 -0.796875 -1.515625 -1.109375q-0.96875 -0.328125 -2.796875 -0.328125l-4.40625 0l0 6.5625zm14.18573 -4.65625q0 -3.84375 2.125 -5.6875q1.78125 -1.546875 4.34375 -1.546875q2.859375 0 4.65625 1.875q1.8125 1.859375 1.8125 5.15625q0 2.671875 -0.796875 4.203125q-0.796875 1.53125 -2.328125 2.375q-1.53125 0.84375 -3.34375 0.84375q-2.890625 0 -4.6875 -1.859375q-1.78125 -1.859375 -1.78125 -5.359375zm2.40625 0q0 2.65625 1.15625 3.984375q1.15625 1.3125 2.90625 1.3125q1.75 0 2.90625 -1.328125q1.15625 -1.328125 1.15625 -4.046875q0 -2.5625 -1.171875 -3.890625q-1.15625 -1.328125 -2.890625 -1.328125q-1.75 0 -2.90625 1.328125q-1.15625 1.3125 -1.15625 3.96875zm15.449951 6.90625l-2.171875 0l0 -19.078125l2.34375 0l0 6.796875q1.484375 -1.859375 3.78125 -1.859375q1.28125 0 2.40625 0.515625q1.140625 0.515625 1.875 1.453125q0.75 0.921875 1.15625 2.25q0.421875 1.3125 0.421875 2.796875q0 3.5625 -1.765625 5.5q-1.75 1.9375 -4.21875 1.9375q-2.4375 0 -3.828125 -2.046875l0 1.734375zm-0.03125 -7.015625q0 2.484375 0.671875 3.59375q1.109375 1.8125 3.0 1.8125q1.53125 0 2.65625 -1.328125q1.125 -1.34375 1.125 -3.984375q0 -2.703125 -1.078125 -3.984375q-1.078125 -1.296875 -2.59375 -1.296875q-1.546875 0 -2.671875 1.328125q-1.109375 1.328125 -1.109375 3.859375z" fill-rule="nonzero"/><path fill="#000000" fill-opacity="0.0" d="m121.191605 302.18896l98.92912 0l0 35.62207l-98.92912 0z" fill-rule="evenodd"/><path fill="#000000" d="m181.90459 331.72647l2.296875 0.296875q-0.375 2.390625 -1.9375 3.734375q-1.546875 1.34375 -3.8125 1.34375q-2.84375 0 -4.5625 -1.84375q-1.71875 -1.859375 -1.71875 -5.328125q0 -2.234375 0.734375 -3.90625q0.75 -1.6875 2.265625 -2.53125q1.515625 -0.84375 3.296875 -0.84375q2.25 0 3.671875 1.140625q1.4375 1.140625 1.84375 3.234375l-2.28125 0.359375q-0.328125 -1.390625 -1.15625 -2.09375q-0.8125 -0.703125 -1.984375 -0.703125q-1.78125 0 -2.890625 1.265625q-1.09375 1.265625 -1.09375 4.015625q0 2.78125 1.0625 4.046875q1.0625 1.265625 2.78125 1.265625q1.390625 0 2.3125 -0.84375q0.921875 -0.859375 1.171875 -2.609375zm13.328125 3.359375q-1.3125 1.109375 -2.515625 1.5625q-1.203125 0.453125 -2.578125 0.453125q-2.28125 0 -3.5 -1.109375q-1.21875 -1.109375 -1.21875 -2.84375q0 -1.015625 0.453125 -1.859375q0.46875 -0.84375 1.21875 -1.34375q0.75 -0.515625 1.6875 -0.765625q0.6875 -0.1875 2.078125 -0.359375q2.828125 -0.328125 4.171875 -0.796875q0.015625 -0.484375 0.015625 -0.625q0 -1.421875 -0.65625 -2.015625q-0.90625 -0.796875 -2.671875 -0.796875q-1.65625 0 -2.453125 0.59375q-0.78125 0.578125 -1.15625 2.046875l-2.296875 -0.3125q0.3125 -1.46875 1.03125 -2.375q0.71875 -0.90625 2.0625 -1.390625q1.359375 -0.5 3.140625 -0.5q1.78125 0 2.875 0.421875q1.109375 0.421875 1.625 1.046875q0.53125 0.625 0.734375 1.59375q0.125 0.59375 0.125 2.15625l0 3.125q0 3.265625 0.140625 4.140625q0.15625 0.859375 0.59375 1.65625l-2.4375 0q-0.375 -0.734375 -0.46875 -1.703125zm-0.203125 -5.234375q-1.265625 0.515625 -3.828125 0.890625q-1.4375 0.203125 -2.046875 0.46875q-0.59375 0.25 -0.921875 0.75q-0.3125 0.5 -0.3125 1.125q0 0.9375 0.703125 1.5625q0.703125 0.625 2.078125 0.625q1.34375 0 2.390625 -0.59375q1.0625 -0.59375 1.5625 -1.625q0.375 -0.796875 0.375 -2.34375l0 -0.859375zm5.949936 6.9375l0 -19.078125l2.34375 0l0 19.078125l-2.34375 0zm5.922165 0l0 -19.078125l2.34375 0l0 19.078125l-2.34375 0z" fill-rule="nonzero"/><path fill="#ffffff" d="m1015.1496 67.53674l275.67914 0l34.55713 34.55712l0 172.78146l-310.23627 0z" fill-rule="evenodd"/><path stroke="#000000" stroke-width="2.0" stroke-linejoin="round" stroke-linecap="butt" d="m1015.1496 67.53674l275.67914 0l34.55713 34.55712l0 172.78146l-310.23627 0z" fill-rule="evenodd"/><path fill="#000000" fill-opacity="0.0" d="m1027.4199 111.35958l243.77954 0l0 56.755898l-243.77954 0z" fill-rule="evenodd"/><path fill="#000000" d="m1038.4043 145.95958l0 -19.078125l3.796875 0l4.515625 13.5q0.625 1.890625 0.90625 2.828125q0.328125 -1.03125 1.015625 -3.0625l4.578125 -13.265625l3.390625 0l0 19.078125l-2.4375 0l0 -15.96875l-5.546875 15.96875l-2.265625 0l-5.53125 -16.25l0 16.25l-2.421875 0zm31.032959 0l0 -2.03125q-1.609375 2.34375 -4.375 2.34375q-1.234375 0 -2.296875 -0.46875q-1.0625 -0.46875 -1.578125 -1.171875q-0.5 -0.71875 -0.71875 -1.75q-0.140625 -0.6875 -0.140625 -2.1875l0 -8.5625l2.34375 0l0 7.671875q0 1.828125 0.140625 2.46875q0.21875 0.921875 0.9375 1.453125q0.71875 0.53125 1.765625 0.53125q1.0625 0 1.984375 -0.53125q0.921875 -0.546875 1.296875 -1.46875q0.390625 -0.9375 0.390625 -2.71875l0 -7.40625l2.34375 0l0 13.828125l-2.09375 0zm5.715576 0l0 -19.078125l2.34375 0l0 19.078125l-2.34375 0zm11.094116 -2.09375l0.328125 2.0625q-0.984375 0.21875 -1.765625 0.21875q-1.265625 0 -1.96875 -0.40625q-0.703125 -0.40625 -1.0 -1.0625q-0.28125 -0.65625 -0.28125 -2.765625l0 -7.953125l-1.71875 0l0 -1.828125l1.71875 0l0 -3.421875l2.328125 -1.40625l0 4.828125l2.359375 0l0 1.828125l-2.359375 0l0 8.078125q0 1.0 0.125 1.296875q0.125 0.28125 0.40625 0.453125q0.28125 0.171875 0.796875 0.171875q0.390625 0 1.03125 -0.09375zm2.2965088 -14.296875l0 -2.6875l2.34375 0l0 2.6875l-2.34375 0zm0 16.390625l0 -13.828125l2.34375 0l0 13.828125l-2.34375 0zm4.969116 -4.125l2.328125 -0.359375q0.1875 1.390625 1.078125 2.140625q0.890625 0.734375 2.5 0.734375q1.609375 0 2.390625 -0.65625q0.78125 -0.65625 0.78125 -1.546875q0 -0.796875 -0.6875 -1.25q-0.484375 -0.3125 -2.390625 -0.796875q-2.578125 -0.65625 -3.578125 -1.125q-1.0 -0.46875 -1.515625 -1.3125q-0.515625 -0.84375 -0.515625 -1.859375q0 -0.921875 0.421875 -1.703125q0.4375 -0.796875 1.15625 -1.3125q0.546875 -0.40625 1.484375 -0.6875q0.953125 -0.28125 2.03125 -0.28125q1.625 0 2.859375 0.46875q1.234375 0.46875 1.8125 1.28125q0.59375 0.796875 0.8125 2.140625l-2.296875 0.3125q-0.15625 -1.078125 -0.90625 -1.671875q-0.75 -0.59375 -2.109375 -0.59375q-1.609375 0 -2.3125 0.53125q-0.6875 0.53125 -0.6875 1.25q0 0.453125 0.296875 0.8125q0.28125 0.375 0.890625 0.625q0.359375 0.140625 2.078125 0.609375q2.484375 0.65625 3.46875 1.078125q0.984375 0.421875 1.53125 1.234375q0.5625 0.796875 0.5625 2.0q0 1.171875 -0.6875 2.21875q-0.671875 1.03125 -1.96875 1.59375q-1.28125 0.5625 -2.90625 0.5625q-2.703125 0 -4.125 -1.109375q-1.40625 -1.125 -1.796875 -3.328125zm14.28125 -12.265625l0 -2.6875l2.34375 0l0 2.6875l-2.34375 0zm0 16.390625l0 -13.828125l2.34375 0l0 13.828125l-2.34375 0zm5.484619 1.140625l2.28125 0.34375q0.140625 1.046875 0.796875 1.53125q0.859375 0.65625 2.375 0.65625q1.625 0 2.5 -0.65625q0.890625 -0.640625 1.203125 -1.8125q0.1875 -0.71875 0.171875 -3.015625q-1.53125 1.8125 -3.828125 1.8125q-2.84375 0 -4.40625 -2.046875q-1.5625 -2.0625 -1.5625 -4.9375q0 -1.984375 0.71875 -3.65625q0.71875 -1.671875 2.078125 -2.578125q1.359375 -0.921875 3.1875 -0.921875q2.453125 0 4.03125 1.984375l0 -1.671875l2.171875 0l0 11.953125q0 3.234375 -0.65625 4.578125q-0.65625 1.34375 -2.09375 2.125q-1.421875 0.78125 -3.5 0.78125q-2.46875 0 -4.0 -1.109375q-1.515625 -1.109375 -1.46875 -3.359375zm1.9375 -8.296875q0 2.71875 1.078125 3.96875q1.078125 1.25 2.703125 1.25q1.625 0 2.71875 -1.234375q1.09375 -1.25 1.09375 -3.90625q0 -2.546875 -1.125 -3.828125q-1.125 -1.296875 -2.71875 -1.296875q-1.5625 0 -2.65625 1.28125q-1.09375 1.265625 -1.09375 3.765625z" fill-rule="nonzero"/><path fill="#ffffff" d="m1027.4199 437.67847l275.67908 0l34.55713 34.55713l0 172.7815l-310.2362 0z" fill-rule="evenodd"/><path stroke="#000000" stroke-width="2.0" stroke-linejoin="round" stroke-linecap="butt" stroke-dasharray="8.0,6.0" d="m1027.4199 437.67847l275.67908 0l34.55713 34.55713l0 172.7815l-310.2362 0z" fill-rule="evenodd"/><path fill="#000000" fill-opacity="0.0" d="m1039.6903 481.5013l243.77954 0l0 135.77951l-243.77954 0z" fill-rule="evenodd"/><path fill="#000000" d="m1050.7528 516.1013l0 -19.078125l7.1875 0q1.90625 0 2.90625 0.171875q1.40625 0.234375 2.359375 0.90625q0.953125 0.65625 1.53125 1.84375q0.578125 1.171875 0.578125 2.59375q0 2.4375 -1.5625 4.125q-1.546875 1.6875 -5.59375 1.6875l-4.890625 0l0 7.75l-2.515625 0zm2.515625 -10.015625l4.9375 0q2.453125 0 3.46875 -0.90625q1.03125 -0.90625 1.03125 -2.5625q0 -1.203125 -0.609375 -2.046875q-0.59375 -0.859375 -1.59375 -1.125q-0.625 -0.171875 -2.34375 -0.171875l-4.890625 0l0 6.8125zm23.982666 8.3125q-1.3125 1.109375 -2.515625 1.5625q-1.203125 0.453125 -2.578125 0.453125q-2.28125 0 -3.5 -1.109375q-1.21875 -1.109375 -1.21875 -2.84375q0 -1.015625 0.453125 -1.859375q0.46875 -0.84375 1.21875 -1.34375q0.75 -0.515625 1.6875 -0.765625q0.6875 -0.1875 2.078125 -0.359375q2.828125 -0.328125 4.171875 -0.796875q0.015625 -0.484375 0.015625 -0.625q0 -1.421875 -0.65625 -2.015625q-0.90625 -0.796875 -2.671875 -0.796875q-1.65625 0 -2.453125 0.59375q-0.78125 0.578125 -1.15625 2.046875l-2.296875 -0.3125q0.3125 -1.46875 1.03125 -2.375q0.71875 -0.90625 2.0625 -1.390625q1.359375 -0.5 3.140625 -0.5q1.78125 0 2.875 0.421875q1.109375 0.421875 1.625 1.046875q0.53125 0.625 0.734375 1.59375q0.125 0.59375 0.125 2.15625l0 3.125q0 3.265625 0.140625 4.140625q0.15625 0.859375 0.59375 1.65625l-2.4375 0q-0.375 -0.734375 -0.46875 -1.703125zm-0.203125 -5.234375q-1.265625 0.515625 -3.828125 0.890625q-1.4375 0.203125 -2.046875 0.46875q-0.59375 0.25 -0.921875 0.75q-0.3125 0.5 -0.3125 1.125q0 0.9375 0.703125 1.5625q0.703125 0.625 2.078125 0.625q1.34375 0 2.390625 -0.59375q1.0625 -0.59375 1.5625 -1.625q0.375 -0.796875 0.375 -2.34375l0 -0.859375zm5.902954 12.265625l-0.265625 -2.203125q0.765625 0.203125 1.34375 0.203125q0.78125 0 1.25 -0.265625q0.46875 -0.25 0.765625 -0.71875q0.21875 -0.359375 0.71875 -1.75q0.0625 -0.1875 0.203125 -0.5625l-5.25 -13.859375l2.53125 0l2.875 8.015625q0.5625 1.515625 1.0 3.203125q0.40625 -1.625 0.96875 -3.15625l2.953125 -8.0625l2.34375 0l-5.265625 14.0625q-0.84375 2.28125 -1.3125 3.140625q-0.625 1.15625 -1.4375 1.6875q-0.796875 0.546875 -1.921875 0.546875q-0.671875 0 -1.5 -0.28125zm13.421875 -5.328125l0 -13.828125l2.109375 0l0 1.9375q0.640625 -1.015625 1.71875 -1.625q1.09375 -0.625 2.46875 -0.625q1.53125 0 2.515625 0.640625q0.984375 0.640625 1.390625 1.78125q1.640625 -2.421875 4.265625 -2.421875q2.0625 0 3.15625 1.140625q1.109375 1.140625 1.109375 3.515625l0 9.484375l-2.328125 0l0 -8.703125q0 -1.40625 -0.234375 -2.015625q-0.21875 -0.625 -0.828125 -1.0q-0.59375 -0.390625 -1.390625 -0.390625q-1.46875 0 -2.4375 0.96875q-0.953125 0.96875 -0.953125 3.109375l0 8.03125l-2.34375 0l0 -8.984375q0 -1.5625 -0.578125 -2.34375q-0.5625 -0.78125 -1.875 -0.78125q-0.984375 0 -1.828125 0.53125q-0.828125 0.515625 -1.21875 1.515625q-0.375 1.0 -0.375 2.890625l0 7.171875l-2.34375 0zm31.673706 -4.453125l2.421875 0.296875q-0.578125 2.125 -2.125 3.296875q-1.546875 1.171875 -3.953125 1.171875q-3.03125 0 -4.8125 -1.859375q-1.78125 -1.875 -1.78125 -5.25q0 -3.484375 1.796875 -5.40625q1.796875 -1.9375 4.671875 -1.9375q2.765625 0 4.515625 1.890625q1.765625 1.890625 1.765625 5.3125q0 0.203125 -0.015625 0.625l-10.3125 0q0.140625 2.28125 1.296875 3.5q1.15625 1.203125 2.890625 1.203125q1.28125 0 2.1875 -0.671875q0.921875 -0.6875 1.453125 -2.171875zm-7.6875 -3.78125l7.71875 0q-0.15625 -1.75 -0.890625 -2.625q-1.125 -1.34375 -2.90625 -1.34375q-1.609375 0 -2.71875 1.078125q-1.09375 1.078125 -1.203125 2.890625zm13.043701 8.234375l0 -13.828125l2.109375 0l0 1.96875q1.53125 -2.28125 4.40625 -2.28125q1.25 0 2.296875 0.453125q1.046875 0.453125 1.5625 1.1875q0.53125 0.71875 0.734375 1.71875q0.125 0.65625 0.125 2.28125l0 8.5l-2.34375 0l0 -8.40625q0 -1.4375 -0.28125 -2.140625q-0.265625 -0.71875 -0.96875 -1.140625q-0.6875 -0.421875 -1.625 -0.421875q-1.484375 0 -2.578125 0.953125q-1.09375 0.953125 -1.09375 3.609375l0 7.546875l-2.34375 0zm19.94983 -2.09375l0.328125 2.0625q-0.984375 0.21875 -1.765625 0.21875q-1.265625 0 -1.96875 -0.40625q-0.703125 -0.40625 -1.0 -1.0625q-0.28125 -0.65625 -0.28125 -2.765625l0 -7.953125l-1.71875 0l0 -1.828125l1.71875 0l0 -3.421875l2.328125 -1.40625l0 4.828125l2.359375 0l0 1.828125l-2.359375 0l0 8.078125q0 1.0 0.125 1.296875q0.125 0.28125 0.40625 0.453125q0.28125 0.171875 0.796875 0.171875q0.390625 0 1.03125 -0.09375zm9.218262 -7.203125q0 -4.75 2.546875 -7.4375q2.5625 -2.6875 6.59375 -2.6875q2.640625 0 4.765625 1.265625q2.125 1.265625 3.234375 3.53125q1.109375 2.25 1.109375 5.109375q0 2.90625 -1.171875 5.203125q-1.171875 2.28125 -3.3125 3.46875q-2.140625 1.171875 -4.640625 1.171875q-2.6875 0 -4.8125 -1.296875q-2.125 -1.3125 -3.21875 -3.5625q-1.09375 -2.25 -1.09375 -4.765625zm2.609375 0.046875q0 3.4375 1.84375 5.4375q1.859375 1.984375 4.671875 1.984375q2.84375 0 4.6875 -2.0q1.84375 -2.015625 1.84375 -5.703125q0 -2.328125 -0.796875 -4.0625q-0.78125 -1.734375 -2.296875 -2.6875q-1.515625 -0.96875 -3.40625 -0.96875q-2.6875 0 -4.625 1.84375q-1.921875 1.84375 -1.921875 6.15625zm20.765259 9.25l-2.171875 0l0 -19.078125l2.34375 0l0 6.796875q1.484375 -1.859375 3.78125 -1.859375q1.28125 0 2.40625 0.515625q1.140625 0.515625 1.875 1.453125q0.75 0.921875 1.15625 2.25q0.421875 1.3125 0.421875 2.796875q0 3.5625 -1.765625 5.5q-1.75 1.9375 -4.21875 1.9375q-2.4375 0 -3.828125 -2.046875l0 1.734375zm-0.03125 -7.015625q0 2.484375 0.671875 3.59375q1.109375 1.8125 3.0 1.8125q1.53125 0 2.65625 -1.328125q1.125 -1.34375 1.125 -3.984375q0 -2.703125 -1.078125 -3.984375q-1.078125 -1.296875 -2.59375 -1.296875q-1.546875 0 -2.671875 1.328125q-1.109375 1.328125 -1.109375 3.859375zm12.684326 -9.34375l0 -2.71875l2.34375 0l0 2.71875l-2.34375 0zm-2.96875 21.71875l0.4375 -1.984375q0.703125 0.171875 1.109375 0.171875q0.71875 0 1.0625 -0.46875q0.359375 -0.46875 0.359375 -2.375l0 -14.53125l2.34375 0l0 14.578125q0 2.5625 -0.671875 3.5625q-0.84375 1.296875 -2.8125 1.296875q-0.953125 0 -1.828125 -0.25zm18.359741 -9.8125l2.421875 0.296875q-0.578125 2.125 -2.125 3.296875q-1.546875 1.171875 -3.953125 1.171875q-3.03125 0 -4.8125 -1.859375q-1.78125 -1.875 -1.78125 -5.25q0 -3.484375 1.796875 -5.40625q1.796875 -1.9375 4.671875 -1.9375q2.765625 0 4.515625 1.890625q1.765625 1.890625 1.765625 5.3125q0 0.203125 -0.015625 0.625l-10.3125 0q0.140625 2.28125 1.296875 3.5q1.15625 1.203125 2.890625 1.203125q1.28125 0 2.1875 -0.671875q0.921875 -0.6875 1.453125 -2.171875zm-7.6875 -3.78125l7.71875 0q-0.15625 -1.75 -0.890625 -2.625q-1.125 -1.34375 -2.90625 -1.34375q-1.609375 0 -2.71875 1.078125q-1.09375 1.078125 -1.203125 2.890625zm22.07483 3.171875l2.296875 0.296875q-0.375 2.390625 -1.9375 3.734375q-1.546875 1.34375 -3.8125 1.34375q-2.84375 0 -4.5625 -1.84375q-1.71875 -1.859375 -1.71875 -5.328125q0 -2.234375 0.734375 -3.90625q0.75 -1.6875 2.265625 -2.53125q1.515625 -0.84375 3.296875 -0.84375q2.25 0 3.671875 1.140625q1.4375 1.140625 1.84375 3.234375l-2.28125 0.359375q-0.328125 -1.390625 -1.15625 -2.09375q-0.8125 -0.703125 -1.984375 -0.703125q-1.78125 0 -2.890625 1.265625q-1.09375 1.265625 -1.09375 4.015625q0 2.78125 1.0625 4.046875q1.0625 1.265625 2.78125 1.265625q1.390625 0 2.3125 -0.84375q0.921875 -0.859375 1.171875 -2.609375zm9.421875 2.96875l0.328125 2.0625q-0.984375 0.21875 -1.765625 0.21875q-1.265625 0 -1.96875 -0.40625q-0.703125 -0.40625 -1.0 -1.0625q-0.28125 -0.65625 -0.28125 -2.765625l0 -7.953125l-1.71875 0l0 -1.828125l1.71875 0l0 -3.421875l2.328125 -1.40625l0 4.828125l2.359375 0l0 1.828125l-2.359375 0l0 8.078125q0 1.0 0.125 1.296875q0.125 0.28125 0.40625 0.453125q0.28125 0.171875 0.796875 0.171875q0.390625 0 1.03125 -0.09375z" fill-rule="nonzero"/><path fill="#000000" d="m1048.659 580.1013l7.3125 -19.078125l2.734375 0l7.796875 19.078125l-2.875 0l-2.21875 -5.78125l-7.984375 0l-2.09375 5.78125l-2.671875 0zm5.5 -7.828125l6.46875 0l-2.0 -5.296875q-0.90625 -2.40625 -1.34375 -3.953125q-0.375 1.84375 -1.03125 3.640625l-2.09375 5.609375zm14.013916 7.828125l0 -19.078125l2.34375 0l0 19.078125l-2.34375 0zm5.984619 -16.390625l0 -2.6875l2.34375 0l0 2.6875l-2.34375 0zm0 16.390625l0 -13.828125l2.34375 0l0 13.828125l-2.34375 0zm14.937744 -5.0625l2.296875 0.296875q-0.375 2.390625 -1.9375 3.734375q-1.546875 1.34375 -3.8125 1.34375q-2.84375 0 -4.5625 -1.84375q-1.71875 -1.859375 -1.71875 -5.328125q0 -2.234375 0.734375 -3.90625q0.75 -1.6875 2.265625 -2.53125q1.515625 -0.84375 3.296875 -0.84375q2.25 0 3.671875 1.140625q1.4375 1.140625 1.84375 3.234375l-2.28125 0.359375q-0.328125 -1.390625 -1.15625 -2.09375q-0.8125 -0.703125 -1.984375 -0.703125q-1.78125 0 -2.890625 1.265625q-1.09375 1.265625 -1.09375 4.015625q0 2.78125 1.0625 4.046875q1.0625 1.265625 2.78125 1.265625q1.390625 0 2.3125 -0.84375q0.921875 -0.859375 1.171875 -2.609375zm13.765625 0.609375l2.421875 0.296875q-0.578125 2.125 -2.125 3.296875q-1.546875 1.171875 -3.953125 1.171875q-3.03125 0 -4.8125 -1.859375q-1.78125 -1.875 -1.78125 -5.25q0 -3.484375 1.796875 -5.40625q1.796875 -1.9375 4.671875 -1.9375q2.765625 0 4.515625 1.890625q1.765625 1.890625 1.765625 5.3125q0 0.203125 -0.015625 0.625l-10.3125 0q0.140625 2.28125 1.296875 3.5q1.15625 1.203125 2.890625 1.203125q1.28125 0 2.1875 -0.671875q0.921875 -0.6875 1.453125 -2.171875zm-7.6875 -3.78125l7.71875 0q-0.15625 -1.75 -0.890625 -2.625q-1.125 -1.34375 -2.90625 -1.34375q-1.609375 0 -2.71875 1.078125q-1.09375 1.078125 -1.203125 2.890625zm13.699951 -2.921875l0 -2.671875l2.671875 0l0 2.671875l-2.671875 0zm0 11.15625l0 -2.671875l2.671875 0l0 2.671875l-2.671875 0zm13.53064 -5.03125l2.34375 -0.3125q0.390625 1.984375 1.359375 2.875q0.984375 0.875 2.375 0.875q1.640625 0 2.78125 -1.140625q1.140625 -1.15625 1.140625 -2.84375q0 -1.625 -1.0625 -2.671875q-1.046875 -1.046875 -2.671875 -1.046875q-0.65625 0 -1.65625 0.265625l0.265625 -2.0625q0.234375 0.03125 0.375 0.03125q1.5 0 2.6875 -0.78125q1.203125 -0.78125 1.203125 -2.40625q0 -1.296875 -0.875 -2.140625q-0.859375 -0.84375 -2.25 -0.84375q-1.359375 0 -2.28125 0.859375q-0.90625 0.859375 -1.15625 2.578125l-2.34375 -0.421875q0.421875 -2.34375 1.9375 -3.640625q1.53125 -1.296875 3.796875 -1.296875q1.5625 0 2.875 0.671875q1.3125 0.671875 2.0 1.828125q0.703125 1.15625 0.703125 2.453125q0 1.234375 -0.671875 2.25q-0.65625 1.015625 -1.953125 1.625q1.6875 0.390625 2.625 1.625q0.9375 1.21875 0.9375 3.0625q0 2.5 -1.828125 4.25q-1.8125 1.734375 -4.59375 1.734375q-2.515625 0 -4.171875 -1.5q-1.65625 -1.5 -1.890625 -3.875zm32.324707 0.578125l2.421875 0.296875q-0.578125 2.125 -2.125 3.296875q-1.546875 1.171875 -3.953125 1.171875q-3.03125 0 -4.8125 -1.859375q-1.78125 -1.875 -1.78125 -5.25q0 -3.484375 1.796875 -5.40625q1.796875 -1.9375 4.671875 -1.9375q2.765625 0 4.515625 1.890625q1.765625 1.890625 1.765625 5.3125q0 0.203125 -0.015625 0.625l-10.3125 0q0.140625 2.28125 1.296875 3.5q1.15625 1.203125 2.890625 1.203125q1.28125 0 2.1875 -0.671875q0.921875 -0.6875 1.453125 -2.171875zm-7.6875 -3.78125l7.71875 0q-0.15625 -1.75 -0.890625 -2.625q-1.125 -1.34375 -2.90625 -1.34375q-1.609375 0 -2.71875 1.078125q-1.09375 1.078125 -1.203125 2.890625zm18.168701 6.140625l0.328125 2.0625q-0.984375 0.21875 -1.765625 0.21875q-1.265625 0 -1.96875 -0.40625q-0.703125 -0.40625 -1.0 -1.0625q-0.28125 -0.65625 -0.28125 -2.765625l0 -7.953125l-1.71875 0l0 -1.828125l1.71875 0l0 -3.421875l2.328125 -1.40625l0 4.828125l2.359375 0l0 1.828125l-2.359375 0l0 8.078125q0 1.0 0.125 1.296875q0.125 0.28125 0.40625 0.453125q0.28125 0.171875 0.796875 0.171875q0.390625 0 1.03125 -0.09375zm2.2808838 2.09375l0 -19.078125l2.34375 0l0 6.84375q1.640625 -1.90625 4.140625 -1.90625q1.546875 0 2.671875 0.609375q1.140625 0.609375 1.625 1.671875q0.484375 1.0625 0.484375 3.09375l0 8.765625l-2.34375 0l0 -8.765625q0 -1.75 -0.765625 -2.546875q-0.75 -0.8125 -2.15625 -0.8125q-1.03125 0 -1.953125 0.546875q-0.921875 0.546875 -1.3125 1.46875q-0.390625 0.921875 -0.390625 2.546875l0 7.5625l-2.34375 0z" fill-rule="nonzero"/><path fill="#000000" d="m1050.6434 612.1013l0 -19.078125l7.15625 0q2.1875 0 3.5 0.578125q1.328125 0.578125 2.078125 1.78125q0.75 1.203125 0.75 2.515625q0 1.21875 -0.671875 2.3125q-0.65625 1.078125 -2.0 1.734375q1.734375 0.515625 2.65625 1.734375q0.9375 1.21875 0.9375 2.890625q0 1.34375 -0.5625 2.5q-0.5625 1.140625 -1.40625 1.765625q-0.828125 0.625 -2.09375 0.953125q-1.25 0.3125 -3.0625 0.3125l-7.28125 0zm2.53125 -11.0625l4.125 0q1.671875 0 2.40625 -0.21875q0.953125 -0.296875 1.4375 -0.953125q0.5 -0.671875 0.5 -1.671875q0 -0.9375 -0.453125 -1.65625q-0.453125 -0.734375 -1.3125 -1.0q-0.84375 -0.265625 -2.890625 -0.265625l-3.8125 0l0 5.765625zm0 8.8125l4.75 0q1.21875 0 1.71875 -0.09375q0.859375 -0.15625 1.4375 -0.515625q0.59375 -0.375 0.96875 -1.0625q0.390625 -0.703125 0.390625 -1.609375q0 -1.0625 -0.546875 -1.84375q-0.546875 -0.796875 -1.515625 -1.109375q-0.96875 -0.328125 -2.796875 -0.328125l-4.40625 0l0 6.5625zm14.185791 -4.65625q0 -3.84375 2.125 -5.6875q1.78125 -1.546875 4.34375 -1.546875q2.859375 0 4.65625 1.875q1.8125 1.859375 1.8125 5.15625q0 2.671875 -0.796875 4.203125q-0.796875 1.53125 -2.328125 2.375q-1.53125 0.84375 -3.34375 0.84375q-2.890625 0 -4.6875 -1.859375q-1.78125 -1.859375 -1.78125 -5.359375zm2.40625 0q0 2.65625 1.15625 3.984375q1.15625 1.3125 2.90625 1.3125q1.75 0 2.90625 -1.328125q1.15625 -1.328125 1.15625 -4.046875q0 -2.5625 -1.171875 -3.890625q-1.15625 -1.328125 -2.890625 -1.328125q-1.75 0 -2.90625 1.328125q-1.15625 1.3125 -1.15625 3.96875zm15.449829 6.90625l-2.171875 0l0 -19.078125l2.34375 0l0 6.796875q1.484375 -1.859375 3.78125 -1.859375q1.28125 0 2.40625 0.515625q1.140625 0.515625 1.875 1.453125q0.75 0.921875 1.15625 2.25q0.421875 1.3125 0.421875 2.796875q0 3.5625 -1.765625 5.5q-1.75 1.9375 -4.21875 1.9375q-2.4375 0 -3.828125 -2.046875l0 1.734375zm-0.03125 -7.015625q0 2.484375 0.671875 3.59375q1.109375 1.8125 3.0 1.8125q1.53125 0 2.65625 -1.328125q1.125 -1.34375 1.125 -3.984375q0 -2.703125 -1.078125 -3.984375q-1.078125 -1.296875 -2.59375 -1.296875q-1.546875 0 -2.671875 1.328125q-1.109375 1.328125 -1.109375 3.859375zm13.340576 -4.140625l0 -2.671875l2.671875 0l0 2.671875l-2.671875 0zm0 11.15625l0 -2.671875l2.671875 0l0 2.671875l-2.671875 0zm25.827637 -2.25l0 2.25l-12.609375 0q-0.03125 -0.84375 0.265625 -1.625q0.484375 -1.296875 1.546875 -2.546875q1.0625 -1.25 3.0625 -2.875q3.109375 -2.5625 4.203125 -4.046875q1.09375 -1.5 1.09375 -2.8125q0 -1.40625 -1.0 -2.359375q-0.984375 -0.953125 -2.59375 -0.953125q-1.6875 0 -2.703125 1.015625q-1.015625 1.015625 -1.03125 2.8125l-2.40625 -0.25q0.25 -2.6875 1.859375 -4.09375q1.609375 -1.421875 4.328125 -1.421875q2.75 0 4.34375 1.53125q1.609375 1.515625 1.609375 3.765625q0 1.140625 -0.46875 2.25q-0.46875 1.109375 -1.5625 2.328125q-1.078125 1.21875 -3.609375 3.359375q-2.09375 1.765625 -2.703125 2.40625q-0.59375 0.625 -0.984375 1.265625l9.359375 0zm20.02771 -2.203125l2.421875 0.296875q-0.578125 2.125 -2.125 3.296875q-1.546875 1.171875 -3.953125 1.171875q-3.03125 0 -4.8125 -1.859375q-1.78125 -1.875 -1.78125 -5.25q0 -3.484375 1.796875 -5.40625q1.796875 -1.9375 4.671875 -1.9375q2.765625 0 4.515625 1.890625q1.765625 1.890625 1.765625 5.3125q0 0.203125 -0.015625 0.625l-10.3125 0q0.140625 2.28125 1.296875 3.5q1.15625 1.203125 2.890625 1.203125q1.28125 0 2.1875 -0.671875q0.921875 -0.6875 1.453125 -2.171875zm-7.6875 -3.78125l7.71875 0q-0.15625 -1.75 -0.890625 -2.625q-1.125 -1.34375 -2.90625 -1.34375q-1.609375 0 -2.71875 1.078125q-1.09375 1.078125 -1.203125 2.890625zm18.168701 6.140625l0.328125 2.0625q-0.984375 0.21875 -1.765625 0.21875q-1.265625 0 -1.96875 -0.40625q-0.703125 -0.40625 -1.0 -1.0625q-0.28125 -0.65625 -0.28125 -2.765625l0 -7.953125l-1.71875 0l0 -1.828125l1.71875 0l0 -3.421875l2.328125 -1.40625l0 4.828125l2.359375 0l0 1.828125l-2.359375 0l0 8.078125q0 1.0 0.125 1.296875q0.125 0.28125 0.40625 0.453125q0.28125 0.171875 0.796875 0.171875q0.390625 0 1.03125 -0.09375zm2.2810059 2.09375l0 -19.078125l2.34375 0l0 6.84375q1.640625 -1.90625 4.140625 -1.90625q1.546875 0 2.671875 0.609375q1.140625 0.609375 1.625 1.671875q0.484375 1.0625 0.484375 3.09375l0 8.765625l-2.34375 0l0 -8.765625q0 -1.75 -0.765625 -2.546875q-0.75 -0.8125 -2.15625 -0.8125q-1.03125 0 -1.953125 0.546875q-0.921875 0.546875 -1.3125 1.46875q-0.390625 0.921875 -0.390625 2.546875l0 7.5625l-2.34375 0z" fill-rule="nonzero"/><path fill="#000000" fill-opacity="0.0" d="m1343.4619 75.71654l86.33069 0l0 35.622047l-86.33069 0z" fill-rule="evenodd"/><path fill="#000000" d="m1353.5869 105.285286l2.34375 -0.3125q0.390625 1.984375 1.359375 2.875q0.984375 0.875 2.375 0.875q1.640625 0 2.78125 -1.140625q1.140625 -1.15625 1.140625 -2.84375q0 -1.625 -1.0625 -2.671875q-1.046875 -1.046875 -2.671875 -1.046875q-0.65625 0 -1.65625 0.265625l0.265625 -2.0625q0.234375 0.03125 0.375 0.03125q1.5 0 2.6875 -0.78125q1.203125 -0.78125 1.203125 -2.40625q0 -1.296875 -0.875 -2.140625q-0.859375 -0.84375 -2.25 -0.84375q-1.359375 0 -2.28125 0.859375q-0.90625 0.859375 -1.15625 2.578125l-2.34375 -0.421875q0.421875 -2.34375 1.9375 -3.640625q1.53125 -1.296875 3.796875 -1.296875q1.5625 0 2.875 0.671875q1.3125 0.671875 2.0 1.828125q0.703125 1.15625 0.703125 2.453125q0 1.234375 -0.671875 2.25q-0.65625 1.015625 -1.953125 1.625q1.6875 0.390625 2.625 1.625q0.9375 1.21875 0.9375 3.0625q0 2.5 -1.828125 4.25q-1.8125 1.734375 -4.59375 1.734375q-2.515625 0 -4.171875 -1.5q-1.65625 -1.5 -1.890625 -3.875zm32.324707 0.578125l2.421875 0.296875q-0.578125 2.125 -2.125 3.296875q-1.546875 1.171875 -3.953125 1.171875q-3.03125 0 -4.8125 -1.859375q-1.78125 -1.875 -1.78125 -5.25q0 -3.484375 1.796875 -5.40625q1.796875 -1.9375 4.671875 -1.9375q2.765625 0 4.515625 1.890625q1.765625 1.890625 1.765625 5.3125q0 0.203125 -0.015625 0.625l-10.3125 0q0.140625 2.28125 1.296875 3.5q1.15625 1.203125 2.890625 1.203125q1.28125 0 2.1875 -0.671875q0.921875 -0.6875 1.453125 -2.171875zm-7.6875 -3.78125l7.71875 0q-0.15625 -1.75 -0.890625 -2.625q-1.125 -1.34375 -2.90625 -1.34375q-1.609375 0 -2.71875 1.078125q-1.09375 1.078125 -1.203125 2.890625zm18.168701 6.140625l0.328125 2.0625q-0.984375 0.21875 -1.765625 0.21875q-1.265625 0 -1.96875 -0.40625q-0.703125 -0.40625 -1.0 -1.0625q-0.28125 -0.65625 -0.28125 -2.765625l0 -7.953125l-1.71875 0l0 -1.828125l1.71875 0l0 -3.421875l2.328125 -1.40625l0 4.828125l2.359375 0l0 1.828125l-2.359375 0l0 8.078125q0 1.0 0.125 1.296875q0.125 0.28125 0.40625 0.453125q0.28125 0.171875 0.796875 0.171875q0.390625 0 1.03125 -0.09375zm2.2808838 2.09375l0 -19.078125l2.34375 0l0 6.84375q1.640625 -1.90625 4.140625 -1.90625q1.546875 0 2.671875 0.609375q1.140625 0.609375 1.625 1.671875q0.484375 1.0625 0.484375 3.09375l0 8.765625l-2.34375 0l0 -8.765625q0 -1.75 -0.765625 -2.546875q-0.75 -0.8125 -2.15625 -0.8125q-1.03125 0 -1.953125 0.546875q-0.921875 0.546875 -1.3125 1.46875q-0.390625 0.921875 -0.390625 2.546875l0 7.5625l-2.34375 0z" fill-rule="nonzero"/><path fill="#000000" fill-opacity="0.0" d="m1343.4619 199.17972l86.33069 0l0 35.62204l-86.33069 0z" fill-rule="evenodd"/><path fill="#000000" d="m1365.8838 231.52971l0 2.25l-12.609375 0q-0.03125 -0.84375 0.265625 -1.625q0.484375 -1.296875 1.546875 -2.546875q1.0625 -1.25 3.0625 -2.875q3.109375 -2.5625 4.203125 -4.046875q1.09375 -1.5 1.09375 -2.8125q0 -1.40625 -1.0 -2.359375q-0.984375 -0.953125 -2.59375 -0.953125q-1.6875 0 -2.703125 1.015625q-1.015625 1.015625 -1.03125 2.8125l-2.40625 -0.25q0.25 -2.6875 1.859375 -4.09375q1.609375 -1.421875 4.328125 -1.421875q2.75 0 4.34375 1.53125q1.609375 1.515625 1.609375 3.765625q0 1.140625 -0.46875 2.25q-0.46875 1.109375 -1.5625 2.328125q-1.078125 1.21875 -3.609375 3.359375q-2.09375 1.765625 -2.703125 2.40625q-0.59375 0.625 -0.984375 1.265625l9.359375 0zm20.027832 -2.203125l2.421875 0.296875q-0.578125 2.125 -2.125 3.296875q-1.546875 1.171875 -3.953125 1.171875q-3.03125 0 -4.8125 -1.859375q-1.78125 -1.875 -1.78125 -5.25q0 -3.484375 1.796875 -5.40625q1.796875 -1.9375 4.671875 -1.9375q2.765625 0 4.515625 1.890625q1.765625 1.890625 1.765625 5.3125q0 0.203125 -0.015625 0.625l-10.3125 0q0.140625 2.28125 1.296875 3.5q1.15625 1.203125 2.890625 1.203125q1.28125 0 2.1875 -0.671875q0.921875 -0.6875 1.453125 -2.171875zm-7.6875 -3.78125l7.71875 0q-0.15625 -1.75 -0.890625 -2.625q-1.125 -1.34375 -2.90625 -1.34375q-1.609375 0 -2.71875 1.078125q-1.09375 1.078125 -1.203125 2.890625zm18.168701 6.140625l0.328125 2.0625q-0.984375 0.21875 -1.765625 0.21875q-1.265625 0 -1.96875 -0.40625q-0.703125 -0.40625 -1.0 -1.0625q-0.28125 -0.65625 -0.28125 -2.765625l0 -7.953125l-1.71875 0l0 -1.828125l1.71875 0l0 -3.421875l2.328125 -1.40625l0 4.828125l2.359375 0l0 1.828125l-2.359375 0l0 8.078125q0 1.0 0.125 1.296875q0.125 0.28125 0.40625 0.453125q0.28125 0.171875 0.796875 0.171875q0.390625 0 1.03125 -0.09375zm2.2808838 2.09375l0 -19.078125l2.34375 0l0 6.84375q1.640625 -1.90625 4.140625 -1.90625q1.546875 0 2.671875 0.609375q1.140625 0.609375 1.625 1.671875q0.484375 1.0625 0.484375 3.09375l0 8.765625l-2.34375 0l0 -8.765625q0 -1.75 -0.765625 -2.546875q-0.75 -0.8125 -2.15625 -0.8125q-1.03125 0 -1.953125 0.546875q-0.921875 0.546875 -1.3125 1.46875q-0.390625 0.921875 -0.390625 2.546875l0 7.5625l-2.34375 0z" fill-rule="nonzero"/><path fill="#ffffff" d="m1489.3989 33.637466l180.51929 0l22.630371 22.630375l0 113.149155l-203.14966 0z" fill-rule="evenodd"/><path stroke="#000000" stroke-width="2.0" stroke-linejoin="round" stroke-linecap="butt" d="m1489.3989 33.637466l180.51929 0l22.630371 22.630375l0 113.149155l-203.14966 0z" fill-rule="evenodd"/><path fill="#000000" fill-opacity="0.0" d="m1501.6693 69.45947l243.77954 0l0 56.755905l-243.77954 0z" fill-rule="evenodd"/><path fill="#000000" d="m1510.6381 104.05947l7.3125 -19.078125l2.734375 0l7.796875 19.078125l-2.875 0l-2.21875 -5.78125l-7.984375 0l-2.09375 5.78125l-2.671875 0zm5.5 -7.828125l6.46875 0l-2.0 -5.296875q-0.90625 -2.40625 -1.34375 -3.953125q-0.375 1.84375 -1.03125 3.640625l-2.09375 5.609375zm14.013916 7.828125l0 -19.078125l2.34375 0l0 19.078125l-2.34375 0zm5.984619 -16.390625l0 -2.6875l2.34375 0l0 2.6875l-2.34375 0zm0 16.390625l0 -13.828125l2.34375 0l0 13.828125l-2.34375 0zm14.937744 -5.0625l2.296875 0.296875q-0.375 2.390625 -1.9375 3.734375q-1.546875 1.34375 -3.8125 1.34375q-2.84375 0 -4.5625 -1.84375q-1.71875 -1.859375 -1.71875 -5.328125q0 -2.234375 0.734375 -3.90625q0.75 -1.6875 2.265625 -2.53125q1.515625 -0.84375 3.296875 -0.84375q2.25 0 3.671875 1.140625q1.4375 1.140625 1.84375 3.234375l-2.28125 0.359375q-0.328125 -1.390625 -1.15625 -2.09375q-0.8125 -0.703125 -1.984375 -0.703125q-1.78125 0 -2.890625 1.265625q-1.09375 1.265625 -1.09375 4.015625q0 2.78125 1.0625 4.046875q1.0625 1.265625 2.78125 1.265625q1.390625 0 2.3125 -0.84375q0.921875 -0.859375 1.171875 -2.609375zm13.765625 0.609375l2.421875 0.296875q-0.578125 2.125 -2.125 3.296875q-1.546875 1.171875 -3.953125 1.171875q-3.03125 0 -4.8125 -1.859375q-1.78125 -1.875 -1.78125 -5.25q0 -3.484375 1.796875 -5.40625q1.796875 -1.9375 4.671875 -1.9375q2.765625 0 4.515625 1.890625q1.765625 1.890625 1.765625 5.3125q0 0.203125 -0.015625 0.625l-10.3125 0q0.140625 2.28125 1.296875 3.5q1.15625 1.203125 2.890625 1.203125q1.28125 0 2.1875 -0.671875q0.921875 -0.6875 1.453125 -2.171875zm-7.6875 -3.78125l7.71875 0q-0.15625 -1.75 -0.890625 -2.625q-1.125 -1.34375 -2.90625 -1.34375q-1.609375 0 -2.71875 1.078125q-1.09375 1.078125 -1.203125 2.890625z" fill-rule="nonzero"/><path fill="#ffffff" d="m1489.6746 200.33023l180.51917 0l22.630371 22.630371l0 113.14914l-203.14954 0z" fill-rule="evenodd"/><path stroke="#000000" stroke-width="2.0" stroke-linejoin="round" stroke-linecap="butt" d="m1489.6746 200.33023l180.51917 0l22.630371 22.630371l0 113.14914l-203.14954 0z" fill-rule="evenodd"/><path fill="#000000" fill-opacity="0.0" d="m1501.9448 236.15224l243.77954 0l0 56.755905l-243.77954 0z" fill-rule="evenodd"/><path fill="#000000" d="m1512.898 270.75223l0 -19.078125l7.15625 0q2.1875 0 3.5 0.578125q1.328125 0.578125 2.078125 1.78125q0.75 1.203125 0.75 2.515625q0 1.21875 -0.671875 2.3125q-0.65625 1.078125 -2.0 1.734375q1.734375 0.515625 2.65625 1.734375q0.9375 1.21875 0.9375 2.890625q0 1.34375 -0.5625 2.5q-0.5625 1.140625 -1.40625 1.765625q-0.828125 0.625 -2.09375 0.953125q-1.25 0.3125 -3.0625 0.3125l-7.28125 0zm2.53125 -11.0625l4.125 0q1.671875 0 2.40625 -0.21875q0.953125 -0.296875 1.4375 -0.953125q0.5 -0.671875 0.5 -1.671875q0 -0.9375 -0.453125 -1.65625q-0.453125 -0.734375 -1.3125 -1.0q-0.84375 -0.265625 -2.890625 -0.265625l-3.8125 0l0 5.765625zm0 8.8125l4.75 0q1.21875 0 1.71875 -0.09375q0.859375 -0.15625 1.4375 -0.515625q0.59375 -0.375 0.96875 -1.0625q0.390625 -0.703125 0.390625 -1.609375q0 -1.0625 -0.546875 -1.84375q-0.546875 -0.796875 -1.515625 -1.109375q-0.96875 -0.328125 -2.796875 -0.328125l-4.40625 0l0 6.5625zm14.185791 -4.65625q0 -3.84375 2.125 -5.6875q1.78125 -1.546875 4.34375 -1.546875q2.859375 0 4.65625 1.875q1.8125 1.859375 1.8125 5.15625q0 2.671875 -0.796875 4.203125q-0.796875 1.53125 -2.328125 2.375q-1.53125 0.84375 -3.34375 0.84375q-2.890625 0 -4.6875 -1.859375q-1.78125 -1.859375 -1.78125 -5.359375zm2.40625 0q0 2.65625 1.15625 3.984375q1.15625 1.3125 2.90625 1.3125q1.75 0 2.90625 -1.328125q1.15625 -1.328125 1.15625 -4.046875q0 -2.5625 -1.171875 -3.890625q-1.15625 -1.328125 -2.890625 -1.328125q-1.75 0 -2.90625 1.328125q-1.15625 1.3125 -1.15625 3.96875zm15.449951 6.90625l-2.171875 0l0 -19.078125l2.34375 0l0 6.796875q1.484375 -1.859375 3.78125 -1.859375q1.28125 0 2.40625 0.515625q1.140625 0.515625 1.875 1.453125q0.75 0.921875 1.15625 2.25q0.421875 1.3125 0.421875 2.796875q0 3.5625 -1.765625 5.5q-1.75 1.9375 -4.21875 1.9375q-2.4375 0 -3.828125 -2.046875l0 1.734375zm-0.03125 -7.015625q0 2.484375 0.671875 3.59375q1.109375 1.8125 3.0 1.8125q1.53125 0 2.65625 -1.328125q1.125 -1.34375 1.125 -3.984375q0 -2.703125 -1.078125 -3.984375q-1.078125 -1.296875 -2.59375 -1.296875q-1.546875 0 -2.671875 1.328125q-1.109375 1.328125 -1.109375 3.859375z" fill-rule="nonzero"/><path fill="#000000" fill-opacity="0.0" d="m1330.2126 122.89239l125.6062 0" fill-rule="evenodd"/><path stroke="#000000" stroke-width="4.0" stroke-linejoin="round" stroke-linecap="butt" d="m1330.2126 122.89239l101.6062 0" fill-rule="evenodd"/><path fill="#000000" stroke="#000000" stroke-width="4.0" stroke-linecap="butt" d="m1431.8188 129.49931l18.152466 -6.606926l-18.152466 -6.606926z" fill-rule="evenodd"/><path fill="#000000" fill-opacity="0.0" d="m1332.8107 242.8924l125.60632 0" fill-rule="evenodd"/><path stroke="#000000" stroke-width="4.0" stroke-linejoin="round" stroke-linecap="butt" d="m1332.8107 242.8924l101.60632 0" fill-rule="evenodd"/><path fill="#000000" stroke="#000000" stroke-width="4.0" stroke-linecap="butt" d="m1434.417 249.49931l18.152344 -6.6069183l-18.152344 -6.6069336z" fill-rule="evenodd"/><path fill="#000000" fill-opacity="0.0" d="m35.65354 148.11548l121.88976 0l0 54.204727l-121.88976 0z" fill-rule="evenodd"/><path fill="#000000" d="m45.762917 177.71548l2.453125 -0.203125q0.28125 1.796875 1.265625 2.703125q1.0 0.90625 2.40625 0.90625q1.6875 0 2.859375 -1.28125q1.171875 -1.28125 1.171875 -3.390625q0 -2.0 -1.125 -3.15625q-1.125 -1.15625 -2.9375 -1.15625q-1.140625 0 -2.046875 0.515625q-0.90625 0.515625 -1.4375 1.328125l-2.203125 -0.28125l1.859375 -9.8125l9.484375 0l0 2.25l-7.609375 0l-1.03125 5.125q1.71875 -1.203125 3.609375 -1.203125q2.5 0 4.203125 1.734375q1.71875 1.734375 1.71875 4.453125q0 2.59375 -1.5 4.484375q-1.84375 2.3125 -5.015625 2.3125q-2.59375 0 -4.25 -1.453125q-1.640625 -1.46875 -1.875 -3.875zm32.34027 0.546875l2.421875 0.296875q-0.578125 2.125 -2.125 3.296875q-1.546875 1.171875 -3.953125 1.171875q-3.03125 0 -4.8125 -1.859375q-1.78125 -1.875 -1.78125 -5.25q0 -3.484375 1.796875 -5.40625q1.796875 -1.9375 4.671875 -1.9375q2.765625 0 4.515625 1.890625q1.765625 1.890625 1.765625 5.3125q0 0.203125 -0.015625 0.625l-10.3125 0q0.140625 2.28125 1.296875 3.5q1.15625 1.203125 2.890625 1.203125q1.28125 0 2.1875 -0.671875q0.921875 -0.6875 1.453125 -2.171875zm-7.6875 -3.78125l7.71875 0q-0.15625 -1.75 -0.890625 -2.625q-1.125 -1.34375 -2.90625 -1.34375q-1.609375 0 -2.71875 1.078125q-1.09375 1.078125 -1.203125 2.890625zm18.168686 6.140625l0.328125 2.0625q-0.984375 0.21875 -1.765625 0.21875q-1.265625 0 -1.96875 -0.40625q-0.703125 -0.40625 -1.0 -1.0625q-0.28125 -0.65625 -0.28125 -2.765625l0 -7.953125l-1.71875 0l0 -1.828125l1.71875 0l0 -3.421875l2.328125 -1.40625l0 4.828125l2.359375 0l0 1.828125l-2.359375 0l0 8.078125q0 1.0 0.125 1.296875q0.125 0.28125 0.40625 0.453125q0.28125 0.171875 0.796875 0.171875q0.390625 0 1.03125 -0.09375zm2.28096 2.09375l0 -19.078125l2.34375 0l0 6.84375q1.640625 -1.90625 4.140625 -1.90625q1.546875 0 2.671875 0.609375q1.140625 0.609375 1.625 1.671875q0.484375 1.0625 0.484375 3.09375l0 8.765625l-2.34375 0l0 -8.765625q0 -1.75 -0.765625 -2.546875q-0.75 -0.8125 -2.15625 -0.8125q-1.03125 0 -1.953125 0.546875q-0.921875 0.546875 -1.3125 1.46875q-0.390625 0.921875 -0.390625 2.546875l0 7.5625l-2.34375 0z" fill-rule="nonzero"/><path fill="#000000" fill-opacity="0.0" d="m1027.6536 148.11548l121.88977 0l0 54.204727l-121.88977 0z" fill-rule="evenodd"/><path fill="#000000" d="m1037.763 173.30923q0 -3.390625 0.6875 -5.453125q0.703125 -2.0625 2.078125 -3.171875q1.375 -1.125 3.453125 -1.125q1.53125 0 2.6875 0.625q1.171875 0.609375 1.921875 1.78125q0.75 1.15625 1.171875 2.828125q0.4375 1.671875 0.4375 4.515625q0 3.359375 -0.6875 5.421875q-0.6875 2.0625 -2.0625 3.1875q-1.375 1.125 -3.46875 1.125q-2.765625 0 -4.328125 -1.984375q-1.890625 -2.375 -1.890625 -7.75zm2.40625 0q0 4.6875 1.09375 6.25q1.109375 1.5625 2.71875 1.5625q1.609375 0 2.703125 -1.5625q1.109375 -1.5625 1.109375 -6.25q0 -4.71875 -1.109375 -6.265625q-1.09375 -1.546875 -2.734375 -1.546875q-1.609375 0 -2.578125 1.359375q-1.203125 1.75 -1.203125 6.453125zm29.93396 4.953125l2.421875 0.296875q-0.578125 2.125 -2.125 3.296875q-1.546875 1.171875 -3.953125 1.171875q-3.03125 0 -4.8125 -1.859375q-1.78125 -1.875 -1.78125 -5.25q0 -3.484375 1.796875 -5.40625q1.796875 -1.9375 4.671875 -1.9375q2.765625 0 4.515625 1.890625q1.765625 1.890625 1.765625 5.3125q0 0.203125 -0.015625 0.625l-10.3125 0q0.140625 2.28125 1.296875 3.5q1.15625 1.203125 2.890625 1.203125q1.28125 0 2.1875 -0.671875q0.921875 -0.6875 1.453125 -2.171875zm-7.6875 -3.78125l7.71875 0q-0.15625 -1.75 -0.890625 -2.625q-1.125 -1.34375 -2.90625 -1.34375q-1.609375 0 -2.71875 1.078125q-1.09375 1.078125 -1.203125 2.890625zm18.168701 6.140625l0.328125 2.0625q-0.984375 0.21875 -1.765625 0.21875q-1.265625 0 -1.96875 -0.40625q-0.703125 -0.40625 -1.0 -1.0625q-0.28125 -0.65625 -0.28125 -2.765625l0 -7.953125l-1.71875 0l0 -1.828125l1.71875 0l0 -3.421875l2.328125 -1.40625l0 4.828125l2.359375 0l0 1.828125l-2.359375 0l0 8.078125q0 1.0 0.125 1.296875q0.125 0.28125 0.40625 0.453125q0.28125 0.171875 0.796875 0.171875q0.390625 0 1.03125 -0.09375zm2.2810059 2.09375l0 -19.078125l2.34375 0l0 6.84375q1.640625 -1.90625 4.140625 -1.90625q1.546875 0 2.671875 0.609375q1.140625 0.609375 1.625 1.671875q0.484375 1.0625 0.484375 3.09375l0 8.765625l-2.34375 0l0 -8.765625q0 -1.75 -0.765625 -2.546875q-0.75 -0.8125 -2.15625 -0.8125q-1.03125 0 -1.953125 0.546875q-0.921875 0.546875 -1.3125 1.46875q-0.390625 0.921875 -0.390625 2.546875l0 7.5625l-2.34375 0z" fill-rule="nonzero"/><path fill="#f3f3f3" d="m791.1772 306.56693l60.944885 0l0 -53.43306l60.944885 106.866135l-60.944885 106.86615l0 -53.433075l-60.944885 0z" fill-rule="evenodd"/><path stroke="#b7b7b7" stroke-width="1.0" stroke-linejoin="round" stroke-linecap="butt" d="m791.1772 306.56693l60.944885 0l0 -53.43306l60.944885 106.866135l-60.944885 106.86615l0 -53.433075l-60.944885 0z" fill-rule="evenodd"/></g></svg>