<svg version="1.1" viewBox="0.0 0.0 898.0524934383202 251.498687664042" fill="none" stroke="none" stroke-linecap="square" stroke-miterlimit="10" xmlns:xlink="http://www.w3.org/1999/xlink" xmlns="http://www.w3.org/2000/svg"><clipPath id="p.0"><path d="m0 0l898.0525 0l0 251.49869l-898.0525 0l0 -251.49869z" clip-rule="nonzero"/></clipPath><g clip-path="url(#p.0)"><path fill="#000000" fill-opacity="0.0" d="m0 0l898.0525 0l0 251.49869l-898.0525 0z" fill-rule="evenodd"/><path fill="#ffffff" d="m20.585302 22.356955l282.7342 0l35.439056 35.439034l0 177.19089l-318.17325 0z" fill-rule="evenodd"/><path stroke="#000000" stroke-width="2.0" stroke-linejoin="round" stroke-linecap="butt" d="m20.585302 22.356955l282.7342 0l35.439056 35.439034l0 177.19089l-318.17325 0z" fill-rule="evenodd"/><path fill="#000000" fill-opacity="0.0" d="m45.64568 59.39895l213.54332 0l0 74.992134l-213.54332 0z" fill-rule="evenodd"/><path fill="#000000" d="m56.630054 93.99895l0 -19.078125l3.796875 0l4.515629 13.5q0.625 1.890625 0.90625 2.828125q0.328125 -1.03125 1.015625 -3.0625l4.578125 -13.265625l3.390625 0l0 19.078125l-2.4375 0l0 -15.96875l-5.546875 15.96875l-2.265625 0l-5.531254 -16.25l0 16.25l-2.421875 0zm31.032993 0l0 -2.03125q-1.609375 2.34375 -4.375 2.34375q-1.234375 0 -2.296875 -0.46875q-1.0625 -0.46875 -1.578125 -1.171875q-0.5 -0.71875 -0.71875 -1.75q-0.140625 -0.6875 -0.140625 -2.1875l0 -8.5625l2.34375 0l0 7.671875q0 1.828125 0.140625 2.46875q0.21875 0.921875 0.9375 1.453125q0.71875 0.53125 1.765625 0.53125q1.0625 0 1.984375 -0.53125q0.921875 -0.546875 1.296875 -1.46875q0.390625 -0.9375 0.390625 -2.71875l0 -7.40625l2.34375 0l0 13.828125l-2.09375 0zm5.715561 0l0 -19.078125l2.34375 0l0 19.078125l-2.34375 0zm11.09404 -2.09375l0.328125 2.0625q-0.984375 0.21875 -1.765625 0.21875q-1.265625 0 -1.96875 -0.40625q-0.703125 -0.40625 -1.0 -1.0625q-0.28125 -0.65625 -0.28125 -2.765625l0 -7.953125l-1.71875 0l0 -1.828125l1.71875 0l0 -3.421875l2.328125 -1.40625l0 4.828125l2.359375 0l0 1.828125l-2.359375 0l0 8.078125q0 1.0 0.125 1.296875q0.125 0.28125 0.40625 0.453125q0.28125 0.171875 0.796875 0.171875q0.390625 0 1.03125 -0.09375zm2.296585 -14.296875l0 -2.6875l2.34375 0l0 2.6875l-2.34375 0zm0 16.390625l0 -13.828125l2.34375 0l0 13.828125l-2.34375 0zm4.96904 -4.125l2.328125 -0.359375q0.1875 1.390625 1.078125 2.140625q0.890625 0.734375 2.5 0.734375q1.609375 0 2.390625 -0.65625q0.78125 -0.65625 0.78125 -1.546875q0 -0.796875 -0.6875 -1.25q-0.484375 -0.3125 -2.390625 -0.796875q-2.578125 -0.65625 -3.578125 -1.125q-1.0 -0.46875 -1.515625 -1.3125q-0.515625 -0.84375 -0.515625 -1.859375q0 -0.921875 0.421875 -1.703125q0.4375 -0.796875 1.15625 -1.3125q0.546875 -0.40625 1.484375 -0.6875q0.953125 -0.28125 2.03125 -0.28125q1.625 0 2.859375 0.46875q1.234375 0.46875 1.8125 1.28125q0.59375 0.796875 0.8125 2.140625l-2.296875 0.3125q-0.15625 -1.078125 -0.90625 -1.671875q-0.75 -0.59375 -2.109375 -0.59375q-1.609375 0 -2.3125 0.53125q-0.6875 0.53125 -0.6875 1.25q0 0.453125 0.296875 0.8125q0.28125 0.375 0.890625 0.625q0.359375 0.140625 2.078125 0.609375q2.484375 0.65625 3.46875 1.078125q0.984375 0.421875 1.53125 1.234375q0.5625 0.796875 0.5625 2.0q0 1.171875 -0.6875 2.21875q-0.671875 1.03125 -1.96875 1.59375q-1.28125 0.5625 -2.90625 0.5625q-2.703125 0 -4.125 -1.109375q-1.40625 -1.125 -1.796875 -3.328125zm14.28125 -12.265625l0 -2.6875l2.3437424 0l0 2.6875l-2.3437424 0zm0 16.390625l0 -13.828125l2.3437424 0l0 13.828125l-2.3437424 0zm5.4846573 1.140625l2.28125 0.34375q0.140625 1.046875 0.796875 1.53125q0.859375 0.65625 2.375 0.65625q1.625 0 2.5 -0.65625q0.890625 -0.640625 1.203125 -1.8125q0.1875 -0.71875 0.171875 -3.015625q-1.53125 1.8125 -3.828125 1.8125q-2.84375 0 -4.40625 -2.046875q-1.5625 -2.0625 -1.5625 -4.9375q0 -1.984375 0.71875 -3.65625q0.71875 -1.671875 2.078125 -2.578125q1.359375 -0.921875 3.1875 -0.921875q2.453125 0 4.03125 1.984375l0 -1.671875l2.171875 0l0 11.953125q0 3.234375 -0.65625 4.578125q-0.65625 1.34375 -2.09375 2.125q-1.421875 0.78125 -3.5 0.78125q-2.46875 0 -4.0 -1.109375q-1.515625 -1.109375 -1.46875 -3.359375zm1.9375 -8.296875q0 2.71875 1.078125 3.96875q1.078125 1.25 2.703125 1.25q1.625 0 2.71875 -1.234375q1.09375 -1.25 1.09375 -3.90625q0 -2.546875 -1.125 -3.828125q-1.125 -1.296875 -2.71875 -1.296875q-1.5625 0 -2.65625 1.28125q-1.09375 1.265625 -1.09375 3.765625zm25.199646 12.765625q-1.9375 -2.453125 -3.28125 -5.71875q-1.34375 -3.28125 -1.34375 -6.796875q0 -3.109375 1.0 -5.9375q1.171875 -3.296875 3.625 -6.5625l1.671875 0q-1.5625 2.703125 -2.078125 3.859375q-0.796875 1.796875 -1.25 3.75q-0.5625 2.4375 -0.5625 4.90625q0 6.25 3.890625 12.5l-1.671875 0zm16.06424 -7.859375l0 2.25l-12.609375 0q-0.03125 -0.84375 0.265625 -1.625q0.484375 -1.296875 1.546875 -2.546875q1.0625 -1.25 3.0625 -2.875q3.109375 -2.5625 4.203125 -4.046875q1.09375 -1.5 1.09375 -2.8125q0 -1.40625 -1.0 -2.359375q-0.984375 -0.953125 -2.59375 -0.953125q-1.6875 0 -2.703125 1.015625q-1.015625 1.015625 -1.03125 2.8125l-2.40625 -0.25q0.25 -2.6875 1.859375 -4.09375q1.609375 -1.421875 4.328125 -1.421875q2.75 0 4.34375 1.53125q1.609375 1.515625 1.609375 3.765625q0 1.140625 -0.46875 2.25q-0.46875 1.109375 -1.5625 2.328125q-1.078125 1.21875 -3.609375 3.359375q-2.09375 1.765625 -2.703125 2.40625q-0.59375 0.625 -0.984375 1.265625l9.359375 0zm9.699646 -4.65625q0 -3.84375 2.125 -5.6875q1.78125 -1.546875 4.34375 -1.546875q2.859375 0 4.65625 1.875q1.8125 1.859375 1.8125 5.15625q0 2.671875 -0.796875 4.203125q-0.796875 1.53125 -2.328125 2.375q-1.53125 0.84375 -3.34375 0.84375q-2.890625 0 -4.6875 -1.859375q-1.78125 -1.859375 -1.78125 -5.359375zm2.40625 0q0 2.65625 1.15625 3.984375q1.15625 1.3125 2.90625 1.3125q1.75 0 2.90625 -1.328125q1.15625 -1.328125 1.15625 -4.046875q0 -2.5625 -1.171875 -3.890625q-1.15625 -1.328125 -2.890625 -1.328125q-1.75 0 -2.90625 1.328125q-1.15625 1.3125 -1.15625 3.96875zm13.840561 6.90625l0 -12.0l-2.0625 0l0 -1.828125l2.0625 0l0 -1.46875q0 -1.390625 0.25 -2.0625q0.34375 -0.921875 1.1875 -1.484375q0.859375 -0.5625 2.390625 -0.5625q0.984375 0 2.1875 0.234375l-0.34375 2.046875q-0.734375 -0.140625 -1.390625 -0.140625q-1.0625 0 -1.515625 0.46875q-0.4375 0.453125 -0.4375 1.703125l0 1.265625l2.703125 0l0 1.828125l-2.703125 0l0 12.0l-2.328125 0zm25.921295 -2.25l0 2.25l-12.609375 0q-0.03125 -0.84375 0.265625 -1.625q0.484375 -1.296875 1.546875 -2.546875q1.0625 -1.25 3.0625 -2.875q3.109375 -2.5625 4.203125 -4.046875q1.09375 -1.5 1.09375 -2.8125q0 -1.40625 -1.0 -2.359375q-0.984375 -0.953125 -2.59375 -0.953125q-1.6875 0 -2.703125 1.015625q-1.015625 1.015625 -1.03125 2.8125l-2.40625 -0.25q0.25 -2.6875 1.859375 -4.09375q1.609375 -1.421875 4.328125 -1.421875q2.75 0 4.34375 1.53125q1.609375 1.515625 1.609375 3.765625q0 1.140625 -0.46875 2.25q-0.46875 1.109375 -1.5625 2.328125q-1.078125 1.21875 -3.609375 3.359375q-2.09375 1.765625 -2.703125 2.40625q-0.59375 0.625 -0.984375 1.265625l9.359375 0zm4.699936 7.859375l-1.6875 0q3.890625 -6.25 3.890625 -12.5q0 -2.453125 -0.546875 -4.859375q-0.453125 -1.953125 -1.25 -3.75q-0.5 -1.171875 -2.09375 -3.90625l1.6875 0q2.4375 3.265625 3.609375 6.5625q1.0 2.828125 1.0 5.9375q0 3.515625 -1.34375 6.796875q-1.34375 3.265625 -3.265625 5.71875z" fill-rule="nonzero"/><path fill="#000000" fill-opacity="0.0" d="m45.645973 107.72589l278.04724 0l0 74.99213l-278.04724 0z" fill-rule="evenodd"/><path fill="#000000" d="m55.38035 134.35713q1.015625 -0.015625 1.640625 -0.53125q0.625 -0.515625 0.828125 -1.40625q0.21875 -0.90625 0.234375 -3.078125q0.015625 -2.1718674 0.078125 -2.8749924q0.109375 -1.09375 0.421875 -1.75q0.328125 -0.671875 0.796875 -1.0625q0.46875 -0.390625 1.203125 -0.609375q0.5 -0.125 1.609375 -0.125l0.734375 0l0 2.046875l-0.40625 0q-1.359375 0 -1.796875 0.484375q-0.4375 0.484375 -0.4375 2.1875q0 3.4062424 -0.140625 4.2968674q-0.234375 1.390625 -0.8125 2.15625q-0.5625 0.75 -1.765625 1.34375q1.421875 0.59375 2.0625 1.828125q0.65625 1.21875 0.65625 4.015625q0 2.546875 0.046875 3.03125q0.109375 0.875 0.53125 1.21875q0.421875 0.359375 1.65625 0.359375l0.40625 0l0 2.046875l-0.734375 0q-1.265625 0 -1.84375 -0.203125q-0.828125 -0.296875 -1.375 -0.96875q-0.546875 -0.671875 -0.71875 -1.703125q-0.15625 -1.03125 -0.171875 -3.375q-0.015625 -2.34375 -0.234375 -3.234375q-0.203125 -0.90625 -0.828125 -1.421875q-0.625 -0.515625 -1.640625 -0.546875l0 -2.125zm8.137146 7.96875l7.3125 -19.078117l2.734375 0l7.796875 19.078117l-2.875 0l-2.21875 -5.78125l-7.984375 0l-2.09375 5.78125l-2.671875 0zm5.5 -7.828125l6.46875 0l-2.0 -5.296875q-0.90625 -2.4062424 -1.34375 -3.9531174q-0.375 1.84375 -1.03125 3.6406174l-2.09375 5.609375zm14.0138855 7.828125l0 -19.078117l2.34375 0l0 19.078117l-2.34375 0zm5.984665 -16.390617l0 -2.6875l2.34375 0l0 2.6875l-2.34375 0zm0 16.390617l0 -13.828125l2.34375 0l0 13.828125l-2.34375 0zm14.93779 -5.0625l2.296875 0.296875q-0.375 2.390625 -1.9375 3.734375q-1.546875 1.34375 -3.8125 1.34375q-2.84375 0 -4.5625 -1.84375q-1.71875 -1.859375 -1.71875 -5.328125q0 -2.234375 0.734375 -3.90625q0.75 -1.6875 2.265625 -2.53125q1.515625 -0.84375 3.296875 -0.84375q2.25 0 3.671875 1.140625q1.4375 1.140625 1.84375 3.234375l-2.28125 0.359375q-0.328125 -1.390625 -1.15625 -2.09375q-0.8125 -0.703125 -1.984375 -0.703125q-1.78125 0 -2.890625 1.265625q-1.09375 1.265625 -1.09375 4.015625q0 2.78125 1.0625 4.046875q1.0625 1.265625 2.78125 1.265625q1.390625 0 2.3125 -0.84375q0.921875 -0.859375 1.171875 -2.609375zm13.765625 0.609375l2.421875 0.296875q-0.578125 2.125 -2.125 3.296875q-1.546875 1.171875 -3.953125 1.171875q-3.03125 0 -4.8125 -1.859375q-1.78125 -1.875 -1.78125 -5.25q0 -3.484375 1.796875 -5.40625q1.796875 -1.9375 4.671875 -1.9375q2.765625 0 4.515625 1.890625q1.765625 1.890625 1.765625 5.3125q0 0.203125 -0.015625 0.625l-10.3125 0q0.140625 2.28125 1.296875 3.5q1.15625 1.203125 2.890625 1.203125q1.28125 0 2.1875 -0.671875q0.921875 -0.6875 1.453125 -2.171875zm-7.6875 -3.78125l7.71875 0q-0.15625 -1.75 -0.890625 -2.625q-1.125 -1.34375 -2.90625 -1.34375q-1.609375 0 -2.71875 1.078125q-1.09375 1.078125 -1.203125 2.890625zm13.668686 8.234375l0 -2.671875l2.65625 0l0 2.671875q0 1.46875 -0.515625 2.375q-0.515625 0.90625 -1.65625 1.40625l-0.640625 -1.015625q0.734375 -0.3125 1.078125 -0.953125q0.359375 -0.625 0.40625 -1.8125l-1.328125 0zm14.390053 0l0 -19.078117l7.15625 0q2.1875 0 3.5 0.578125q1.328125 0.578125 2.078125 1.78125q0.75 1.203125 0.75 2.5156174q0 1.21875 -0.671875 2.3125q-0.65625 1.078125 -2.0 1.734375q1.734375 0.515625 2.65625 1.734375q0.9375 1.21875 0.9375 2.890625q0 1.34375 -0.5625 2.5q-0.5625 1.140625 -1.40625 1.765625q-0.828125 0.625 -2.09375 0.953125q-1.25 0.3125 -3.0625 0.3125l-7.28125 0zm2.53125 -11.0625l4.125 0q1.671875 0 2.40625 -0.21875q0.953125 -0.296875 1.4375 -0.953125q0.5 -0.671875 0.5 -1.671875q0 -0.9374924 -0.453125 -1.6562424q-0.453125 -0.734375 -1.3125 -1.0q-0.84375 -0.265625 -2.890625 -0.265625l-3.8125 0l0 5.7656174zm0 8.8125l4.75 0q1.21875 0 1.71875 -0.09375q0.859375 -0.15625 1.4375 -0.515625q0.59375 -0.375 0.96875 -1.0625q0.390625 -0.703125 0.390625 -1.609375q0 -1.0625 -0.546875 -1.84375q-0.546875 -0.796875 -1.515625 -1.109375q-0.96875 -0.328125 -2.796875 -0.328125l-4.40625 0l0 6.5625zm14.1857605 -4.65625q0 -3.84375 2.125 -5.6875q1.78125 -1.546875 4.34375 -1.546875q2.859375 0 4.65625 1.875q1.8125 1.859375 1.8125 5.15625q0 2.671875 -0.796875 4.203125q-0.796875 1.53125 -2.328125 2.375q-1.53125 0.84375 -3.34375 0.84375q-2.890625 0 -4.6875 -1.859375q-1.78125 -1.859375 -1.78125 -5.359375zm2.40625 0q0 2.65625 1.15625 3.984375q1.15625 1.3125 2.90625 1.3125q1.75 0 2.90625 -1.328125q1.15625 -1.328125 1.15625 -4.046875q0 -2.5625 -1.171875 -3.890625q-1.15625 -1.328125 -2.890625 -1.328125q-1.75 0 -2.90625 1.328125q-1.15625 1.3125 -1.15625 3.96875zm15.449936 6.90625l-2.171875 0l0 -19.078117l2.34375 0l0 6.7968674q1.484375 -1.859375 3.78125 -1.859375q1.28125 0 2.40625 0.515625q1.140625 0.515625 1.875 1.453125q0.75 0.921875 1.15625 2.25q0.421875 1.3125 0.421875 2.796875q0 3.5625 -1.765625 5.5q-1.75 1.9375 -4.21875 1.9375q-2.4375 0 -3.828125 -2.046875l0 1.734375zm-0.03125 -7.015625q0 2.484375 0.671875 3.59375q1.109375 1.8125 3.0 1.8125q1.53125 0 2.65625 -1.328125q1.125 -1.34375 1.125 -3.984375q0 -2.703125 -1.078125 -3.984375q-1.078125 -1.296875 -2.59375 -1.296875q-1.546875 0 -2.671875 1.328125q-1.109375 1.328125 -1.109375 3.859375zm19.074936 -0.953125l0 2.125q-1.0 0.03125 -1.625 0.546875q-0.625 0.515625 -0.84375 1.40625q-0.203125 0.890625 -0.21875 3.078125q-0.015625 2.171875 -0.078125 2.859375q-0.109375 1.109375 -0.4375 1.765625q-0.3125 0.65625 -0.78125 1.046875q-0.46875 0.40625 -1.203125 0.609375q-0.5 0.140625 -1.609375 0.140625l-0.734375 0l0 -2.046875l0.40625 0q1.359375 0 1.796875 -0.484375q0.4375 -0.484375 0.4375 -2.1875q0 -3.265625 0.125 -4.125q0.203125 -1.453125 0.828125 -2.3125q0.625 -0.875 1.765625 -1.34375q-1.484375 -0.71875 -2.109375 -1.890625q-0.609375 -1.1875 -0.609375 -3.984375q0 -2.5468674 -0.0625 -3.0312424q-0.09375 -0.875 -0.515625 -1.21875q-0.421875 -0.34375 -1.65625 -0.34375l-0.40625 0l0 -2.046875l0.734375 0q1.265625 0 1.84375 0.203125q0.828125 0.296875 1.375 0.96875q0.546875 0.671875 0.703125 1.703125q0.171875 1.03125 0.1875 3.3749924q0.015625 2.34375 0.21875 3.234375q0.21875 0.890625 0.84375 1.421875q0.625 0.515625 1.625 0.53125z" fill-rule="nonzero"/><path fill="#000000" fill-opacity="0.0" d="m29.64567 168.59317l314.26773 0l0 37.480316l-314.26773 0z" fill-rule="evenodd"/><path fill="#000000" d="m51.176918 191.02959l-10.03125 0q0.25 1.90625 1.59375 3.078125q1.34375 1.171875 3.328125 1.171875q1.09375 0 2.296875 -0.359375q1.21875 -0.375 1.984375 -0.96875q0.21875 -0.171875 0.375 -0.171875q0.1875 0 0.328125 0.140625q0.140625 0.140625 0.140625 0.34375q0 0.203125 -0.1875 0.390625q-0.5625 0.578125 -2.0 1.09375q-1.421875 0.515625 -2.9375 0.515625q-2.53125 0 -4.234375 -1.65625q-1.6875 -1.671875 -1.6875 -4.015625q0 -2.15625 1.578125 -3.6875q1.59375 -1.53125 3.9375 -1.53125q2.421875 0 3.96875 1.578125q1.5625 1.578125 1.546875 4.078125zm-1.0 -1.0q-0.296875 -1.625 -1.546875 -2.640625q-1.234375 -1.015625 -2.96875 -1.015625q-1.71875 0 -2.96875 1.015625q-1.234375 1.0 -1.53125 2.640625l9.015625 0zm10.746094 0.53125l4.515625 4.328125q0.4375 0 0.546875 0.046875q0.125 0.03125 0.21875 0.171875q0.09375 0.125 0.09375 0.265625q0 0.21875 -0.15625 0.359375q-0.15625 0.140625 -0.515625 0.140625l-3.171875 0q-0.359375 0 -0.515625 -0.140625q-0.140625 -0.140625 -0.140625 -0.359375q0 -0.21875 0.140625 -0.34375q0.15625 -0.140625 0.515625 -0.140625l1.640625 0l-3.84375 -3.671875l-3.796875 3.671875l1.640625 0q0.34375 0 0.5 0.140625q0.15625 0.125 0.15625 0.34375q0 0.21875 -0.15625 0.359375q-0.15625 0.140625 -0.5 0.140625l-3.203125 0q-0.359375 0 -0.515625 -0.140625q-0.140625 -0.140625 -0.140625 -0.359375q0 -0.140625 0.078125 -0.265625q0.09375 -0.140625 0.203125 -0.171875q0.109375 -0.046875 0.5625 -0.046875l4.515625 -4.328125l-4.015625 -3.84375q-0.421875 0 -0.53125 -0.046875q-0.109375 -0.046875 -0.203125 -0.171875q-0.078125 -0.125 -0.078125 -0.28125q0 -0.21875 0.140625 -0.359375q0.15625 -0.140625 0.515625 -0.140625l2.6875 0q0.359375 0 0.5 0.140625q0.15625 0.140625 0.15625 0.375q0 0.203125 -0.15625 0.34375q-0.140625 0.140625 -0.5 0.140625l-1.171875 0l3.3125 3.203125l3.34375 -3.203125l-1.171875 0q-0.34375 0 -0.515625 -0.140625q-0.15625 -0.140625 -0.15625 -0.359375q0 -0.21875 0.15625 -0.359375q0.15625 -0.140625 0.515625 -0.140625l2.6875 0q0.34375 0 0.5 0.140625q0.15625 0.140625 0.15625 0.375q0 0.140625 -0.09375 0.265625q-0.078125 0.125 -0.203125 0.171875q-0.109375 0.046875 -0.53125 0.046875l-4.015625 3.84375zm19.058594 0.46875l-10.03125 0q0.25 1.90625 1.59375 3.078125q1.34375 1.171875 3.328125 1.171875q1.09375 0 2.296875 -0.359375q1.21875 -0.375 1.984375 -0.96875q0.21875 -0.171875 0.375 -0.171875q0.1875 0 0.328125 0.140625q0.140625 0.140625 0.140625 0.34375q0 0.203125 -0.1875 0.390625q-0.5625 0.578125 -2.0 1.09375q-1.421875 0.515625 -2.9375 0.515625q-2.53125 0 -4.234375 -1.65625q-1.6875 -1.671875 -1.6875 -4.015625q0 -2.15625 1.578125 -3.6875q1.59375 -1.53125 3.9375 -1.53125q2.421875 0 3.96875 1.578125q1.5625 1.578125 1.546875 4.078125zm-1.0 -1.0q-0.296875 -1.625 -1.546875 -2.640625q-1.234375 -1.015625 -2.96875 -1.015625q-1.71875 0 -2.96875 1.015625q-1.234375 1.0 -1.53125 2.640625l9.015625 0zm14.183594 -3.3125l0 -0.328125q0 -0.359375 0.140625 -0.515625q0.140625 -0.15625 0.34375 -0.15625q0.234375 0 0.375 0.15625q0.140625 0.15625 0.140625 0.515625l0 2.234375q-0.015625 0.359375 -0.15625 0.515625q-0.125 0.140625 -0.359375 0.140625q-0.1875 0 -0.328125 -0.125q-0.140625 -0.140625 -0.15625 -0.453125q-0.078125 -0.828125 -1.109375 -1.578125q-1.015625 -0.75 -2.75 -0.75q-2.1875 0 -3.328125 1.375q-1.140625 1.359375 -1.140625 3.125q0 1.921875 1.25 3.171875q1.265625 1.234375 3.25 1.234375q1.15625 0 2.34375 -0.421875q1.1875 -0.421875 2.15625 -1.359375q0.234375 -0.234375 0.421875 -0.234375q0.203125 0 0.328125 0.140625q0.140625 0.125 0.140625 0.328125q0 0.5 -1.171875 1.265625q-1.921875 1.265625 -4.265625 1.265625q-2.375 0 -3.90625 -1.515625q-1.53125 -1.53125 -1.53125 -3.859375q0 -2.375 1.5625 -3.9375q1.578125 -1.578125 3.953125 -1.578125q2.265625 0 3.796875 1.34375zm13.667969 9.15625l0 -1.4375q-2.015625 1.828125 -4.359375 1.828125q-1.453125 0 -2.203125 -0.796875q-0.96875 -1.03125 -0.96875 -2.390625l0 -6.359375l-1.328125 0q-0.34375 0 -0.5 -0.140625q-0.15625 -0.140625 -0.15625 -0.359375q0 -0.21875 0.15625 -0.359375q0.15625 -0.140625 0.5 -0.140625l2.3125 0l0 7.359375q0 0.953125 0.609375 1.578125q0.609375 0.625 1.53125 0.625q2.390625 0 4.40625 -2.203125l0 -6.359375l-1.828125 0q-0.34375 0 -0.5 -0.140625q-0.15625 -0.140625 -0.15625 -0.359375q0 -0.21875 0.15625 -0.359375q0.15625 -0.140625 0.5 -0.140625l2.8125 0l0 9.171875l0.828125 0q0.34375 0 0.5 0.140625q0.15625 0.125 0.15625 0.34375q0 0.21875 -0.15625 0.359375q-0.15625 0.140625 -0.5 0.140625l-1.8125 0zm9.011719 -10.15625l5.34375 0q0.34375 0 0.5 0.140625q0.15625 0.140625 0.15625 0.375q0 0.203125 -0.15625 0.34375q-0.15625 0.140625 -0.5 0.140625l-5.34375 0l0 6.546875q0 0.859375 0.671875 1.4375q0.6875 0.578125 2.015625 0.578125q1.0 0 2.15625 -0.296875q1.15625 -0.3125 1.8125 -0.6875q0.234375 -0.140625 0.375 -0.140625q0.1875 0 0.328125 0.140625q0.140625 0.140625 0.140625 0.34375q0 0.171875 -0.140625 0.328125q-0.375 0.390625 -1.828125 0.84375q-1.453125 0.453125 -2.765625 0.453125q-1.734375 0 -2.75 -0.8125q-1.015625 -0.8125 -1.015625 -2.1875l0 -6.546875l-1.8125 0q-0.359375 0 -0.515625 -0.140625q-0.140625 -0.140625 -0.140625 -0.359375q0 -0.21875 0.140625 -0.359375q0.15625 -0.140625 0.515625 -0.140625l1.8125 0l0 -2.90625q0 -0.34375 0.140625 -0.5q0.140625 -0.15625 0.34375 -0.15625q0.234375 0 0.375 0.15625q0.140625 0.15625 0.140625 0.5l0 2.90625zm21.746101 5.3125l-10.031258 0q0.25 1.90625 1.5937576 3.078125q1.34375 1.171875 3.328125 1.171875q1.09375 0 2.296875 -0.359375q1.21875 -0.375 1.984375 -0.96875q0.21875 -0.171875 0.375 -0.171875q0.1875 0 0.328125 0.140625q0.140625 0.140625 0.140625 0.34375q0 0.203125 -0.1875 0.390625q-0.5625 0.578125 -2.0 1.09375q-1.421875 0.515625 -2.9375 0.515625q-2.53125 0 -4.234375 -1.65625q-1.6875076 -1.671875 -1.6875076 -4.015625q0 -2.15625 1.5781326 -3.6875q1.59375 -1.53125 3.9375 -1.53125q2.421875 0 3.96875 1.578125q1.5625 1.578125 1.546875 4.078125zm-1.0 -1.0q-0.296875 -1.625 -1.546875 -2.640625q-1.234375 -1.015625 -2.96875 -1.015625q-1.71875 0 -2.96875 1.015625q-1.2343826 1.0 -1.5312576 2.640625l9.015633 0zm10.558594 -6.890625l0 11.75l2.5625 0q0.34375 0 0.5 0.140625q0.15625 0.125 0.15625 0.34375q0 0.21875 -0.15625 0.359375q-0.15625 0.140625 -0.5 0.140625l-6.109375 0q-0.359375 0 -0.515625 -0.140625q-0.140625 -0.140625 -0.140625 -0.359375q0 -0.21875 0.140625 -0.34375q0.15625 -0.140625 0.515625 -0.140625l2.546875 0l0 -11.75l-4.03125 0l0 3.421875q0 0.359375 -0.140625 0.515625q-0.125 0.140625 -0.34375 0.140625q-0.21875 0 -0.359375 -0.140625q-0.140625 -0.15625 -0.140625 -0.515625l0 -4.40625l11.03125 0l0 4.40625q0 0.359375 -0.140625 0.515625q-0.125 0.140625 -0.34375 0.140625q-0.234375 0 -0.375 -0.140625q-0.125 -0.15625 -0.125 -0.515625l0 -3.421875l-4.03125 0zm12.746094 2.578125l0 2.484375q1.921875 -1.734375 2.875 -2.21875q0.953125 -0.5 1.765625 -0.5q0.875 0 1.625 0.59375q0.765625 0.578125 0.765625 0.890625q0 0.21875 -0.15625 0.375q-0.140625 0.140625 -0.359375 0.140625q-0.125 0 -0.203125 -0.03125q-0.078125 -0.046875 -0.3125 -0.28125q-0.40625 -0.40625 -0.71875 -0.546875q-0.296875 -0.15625 -0.59375 -0.15625q-0.640625 0 -1.546875 0.515625q-0.90625 0.515625 -3.140625 2.515625l0 5.390625l4.359375 0q0.359375 0 0.5 0.140625q0.15625 0.125 0.15625 0.34375q0 0.21875 -0.15625 0.359375q-0.140625 0.140625 -0.5 0.140625l-7.734375 0q-0.34375 0 -0.5 -0.125q-0.15625 -0.140625 -0.15625 -0.359375q0 -0.203125 0.140625 -0.328125q0.15625 -0.140625 0.515625 -0.140625l2.390625 0l0 -8.203125l-1.828125 0q-0.34375 0 -0.5 -0.140625q-0.15625 -0.140625 -0.15625 -0.359375q0 -0.21875 0.140625 -0.359375q0.15625 -0.140625 0.515625 -0.140625l2.8125 0zm18.402344 10.15625l0 -1.421875q-2.140625 1.8125 -4.578125 1.8125q-1.765625 0 -2.765625 -0.890625q-1.0 -0.90625 -1.0 -2.203125q0 -1.4375 1.3125 -2.5q1.3125 -1.0625 3.828125 -1.0625q0.6875 0 1.484375 0.09375q0.796875 0.078125 1.71875 0.265625l0 -1.59375q0 -0.8125 -0.75 -1.40625q-0.75 -0.59375 -2.25 -0.59375q-1.140625 0 -3.21875 0.65625q-0.375 0.125 -0.484375 0.125q-0.1875 0 -0.328125 -0.140625q-0.125 -0.140625 -0.125 -0.359375q0 -0.1875 0.109375 -0.3125q0.171875 -0.171875 1.328125 -0.484375q1.828125 -0.484375 2.765625 -0.484375q1.859375 0 2.90625 0.921875q1.046875 0.921875 1.046875 2.078125l0 6.515625l1.3125 0q0.359375 0 0.515625 0.140625q0.15625 0.125 0.15625 0.34375q0 0.21875 -0.15625 0.359375q-0.15625 0.140625 -0.515625 0.140625l-2.3125 0zm0 -4.90625q-0.6875 -0.1875 -1.46875 -0.28125q-0.765625 -0.09375 -1.625 -0.09375q-2.140625 0 -3.34375 0.921875q-0.921875 0.6875 -0.921875 1.65625q0 0.890625 0.6875 1.5q0.703125 0.609375 2.046875 0.609375q1.28125 0 2.375 -0.515625q1.09375 -0.515625 2.25 -1.625l0 -2.171875zm8.386719 -5.25l0 1.5q1.03125 -1.046875 1.859375 -1.4375q0.84375 -0.40625 1.890625 -0.40625q1.125 0 2.046875 0.484375q0.65625 0.34375 1.1875 1.15625q0.53125 0.8125 0.53125 1.671875l0 6.203125l0.828125 0q0.359375 0 0.5 0.140625q0.15625 0.125 0.15625 0.34375q0 0.21875 -0.15625 0.359375q-0.140625 0.140625 -0.5 0.140625l-2.625 0q-0.375 0 -0.53125 -0.140625q-0.140625 -0.140625 -0.140625 -0.359375q0 -0.21875 0.140625 -0.34375q0.15625 -0.140625 0.53125 -0.140625l0.8125 0l0 -6.03125q0 -1.046875 -0.765625 -1.765625q-0.75 -0.71875 -2.03125 -0.71875q-0.96875 0 -1.6875 0.390625q-0.71875 0.390625 -2.046875 1.953125l0 6.171875l1.125 0q0.34375 0 0.5 0.140625q0.15625 0.125 0.15625 0.34375q0 0.21875 -0.15625 0.359375q-0.15625 0.140625 -0.5 0.140625l-3.21875 0q-0.34375 0 -0.5 -0.140625q-0.15625 -0.140625 -0.15625 -0.359375q0 -0.21875 0.15625 -0.34375q0.15625 -0.140625 0.5 -0.140625l1.109375 0l0 -8.171875l-0.828125 0q-0.34375 0 -0.5 -0.140625q-0.15625 -0.140625 -0.15625 -0.359375q0 -0.21875 0.15625 -0.359375q0.15625 -0.140625 0.5 -0.140625l1.8125 0zm20.839844 0.65625q0 -0.34375 0.140625 -0.5q0.140625 -0.15625 0.359375 -0.15625q0.21875 0 0.359375 0.15625q0.140625 0.15625 0.140625 0.515625l0 1.6875q0 0.359375 -0.140625 0.515625q-0.140625 0.140625 -0.359375 0.140625q-0.203125 0 -0.34375 -0.125q-0.125 -0.125 -0.15625 -0.421875q-0.0625 -0.703125 -0.71875 -1.15625q-0.96875 -0.65625 -2.546875 -0.65625q-1.65625 0 -2.5625 0.65625q-0.703125 0.515625 -0.703125 1.125q0 0.703125 0.828125 1.171875q0.5625 0.328125 2.125 0.515625q2.0625 0.21875 2.859375 0.5q1.125 0.40625 1.6875 1.140625q0.5625 0.71875 0.5625 1.5625q0 1.25 -1.21875 2.234375q-1.203125 0.984375 -3.53125 0.984375q-2.328125 0 -3.828125 -1.1875q0 0.390625 -0.046875 0.515625q-0.046875 0.109375 -0.171875 0.203125q-0.109375 0.078125 -0.265625 0.078125q-0.21875 0 -0.359375 -0.15625q-0.140625 -0.15625 -0.140625 -0.5l0 -2.03125q0 -0.34375 0.140625 -0.5q0.140625 -0.15625 0.359375 -0.15625q0.203125 0 0.34375 0.15625q0.15625 0.140625 0.15625 0.390625q0 0.53125 0.265625 0.890625q0.421875 0.5625 1.3125 0.9375q0.890625 0.375 2.203125 0.375q1.921875 0 2.859375 -0.71875q0.9375 -0.71875 0.9375 -1.515625q0 -0.90625 -0.953125 -1.46875q-0.96875 -0.546875 -2.796875 -0.734375q-1.828125 -0.1875 -2.625 -0.484375q-0.796875 -0.3125 -1.25 -0.921875q-0.4375 -0.609375 -0.4375 -1.3125q0 -1.265625 1.234375 -2.0q1.25 -0.75 2.96875 -0.75q2.03125 0 3.3125 1.0zm13.980469 9.5l0 -1.421875q-2.140625 1.8125 -4.578125 1.8125q-1.765625 0 -2.765625 -0.890625q-1.0 -0.90625 -1.0 -2.203125q0 -1.4375 1.3125 -2.5q1.3125 -1.0625 3.828125 -1.0625q0.6875 0 1.484375 0.09375q0.796875 0.078125 1.71875 0.265625l0 -1.59375q0 -0.8125 -0.75 -1.40625q-0.75 -0.59375 -2.25 -0.59375q-1.140625 0 -3.21875 0.65625q-0.375 0.125 -0.484375 0.125q-0.1875 0 -0.328125 -0.140625q-0.125 -0.140625 -0.125 -0.359375q0 -0.1875 0.109375 -0.3125q0.171875 -0.171875 1.328125 -0.484375q1.828125 -0.484375 2.765625 -0.484375q1.859375 0 2.90625 0.921875q1.046875 0.921875 1.046875 2.078125l0 6.515625l1.3125 0q0.359375 0 0.515625 0.140625q0.15625 0.125 0.15625 0.34375q0 0.21875 -0.15625 0.359375q-0.15625 0.140625 -0.515625 0.140625l-2.3125 0zm0 -4.90625q-0.6875 -0.1875 -1.46875 -0.28125q-0.765625 -0.09375 -1.625 -0.09375q-2.140625 0 -3.34375 0.921875q-0.921875 0.6875 -0.921875 1.65625q0 0.890625 0.6875 1.5q0.703125 0.609375 2.046875 0.609375q1.28125 0 2.375 -0.515625q1.09375 -0.515625 2.25 -1.625l0 -2.171875zm15.683594 -4.25l0 -0.328125q0 -0.359375 0.140625 -0.515625q0.140625 -0.15625 0.34375 -0.15625q0.234375 0 0.375 0.15625q0.140625 0.15625 0.140625 0.515625l0 2.234375q-0.015625 0.359375 -0.15625 0.515625q-0.125 0.140625 -0.359375 0.140625q-0.1875 0 -0.328125 -0.125q-0.140625 -0.140625 -0.15625 -0.453125q-0.078125 -0.828125 -1.109375 -1.578125q-1.015625 -0.75 -2.75 -0.75q-2.1875 0 -3.328125 1.375q-1.140625 1.359375 -1.140625 3.125q0 1.921875 1.25 3.171875q1.265625 1.234375 3.25 1.234375q1.15625 0 2.34375 -0.421875q1.1875 -0.421875 2.15625 -1.359375q0.234375 -0.234375 0.421875 -0.234375q0.203125 0 0.328125 0.140625q0.140625 0.125 0.140625 0.328125q0 0.5 -1.171875 1.265625q-1.921875 1.265625 -4.265625 1.265625q-2.375 0 -3.90625 -1.515625q-1.53125 -1.53125 -1.53125 -3.859375q0 -2.375 1.5625 -3.9375q1.578125 -1.578125 3.953125 -1.578125q2.265625 0 3.796875 1.34375zm8.277344 -1.0l5.34375 0q0.34375 0 0.5 0.140625q0.15625 0.140625 0.15625 0.375q0 0.203125 -0.15625 0.34375q-0.15625 0.140625 -0.5 0.140625l-5.34375 0l0 6.546875q0 0.859375 0.671875 1.4375q0.6875 0.578125 2.015625 0.578125q1.0 0 2.15625 -0.296875q1.15625 -0.3125 1.8125 -0.6875q0.234375 -0.140625 0.375 -0.140625q0.1875 0 0.328125 0.140625q0.140625 0.140625 0.140625 0.34375q0 0.171875 -0.140625 0.328125q-0.375 0.390625 -1.828125 0.84375q-1.453125 0.453125 -2.765625 0.453125q-1.734375 0 -2.75 -0.8125q-1.015625 -0.8125 -1.015625 -2.1875l0 -6.546875l-1.8125 0q-0.359375 0 -0.515625 -0.140625q-0.140625 -0.140625 -0.140625 -0.359375q0 -0.21875 0.140625 -0.359375q0.15625 -0.140625 0.515625 -0.140625l1.8125 0l0 -2.90625q0 -0.34375 0.140625 -0.5q0.140625 -0.15625 0.34375 -0.15625q0.234375 0 0.375 0.15625q0.140625 0.15625 0.140625 0.5l0 2.90625zm16.902328 -5.046875l0 2.546875l-1.453125 0l0 -2.546875l1.453125 0zm0.03125 5.046875l0 9.171875l3.875 0q0.359375 0 0.515625 0.140625q0.15625 0.125 0.15625 0.34375q0 0.21875 -0.15625 0.359375q-0.15625 0.140625 -0.515625 0.140625l-8.71875 0q-0.359375 0 -0.515625 -0.140625q-0.140625 -0.140625 -0.140625 -0.359375q0 -0.21875 0.140625 -0.34375q0.15625 -0.140625 0.515625 -0.140625l3.859375 0l0 -8.171875l-2.859375 0q-0.359375 0 -0.515625 -0.140625q-0.15625 -0.140625 -0.15625 -0.34375q0 -0.234375 0.140625 -0.375q0.15625 -0.140625 0.53125 -0.140625l3.84375 0zm19.386719 5.109375q0 2.25 -1.609375 3.84375q-1.609375 1.59375 -3.890625 1.59375q-2.296875 0 -3.90625 -1.59375q-1.59375 -1.609375 -1.59375 -3.84375q0 -2.25 1.59375 -3.84375q1.609375 -1.609375 3.90625 -1.609375q2.28125 0 3.890625 1.59375q1.609375 1.59375 1.609375 3.859375zm-1.0 0q0 -1.859375 -1.3125 -3.15625q-1.3125 -1.296875 -3.1875 -1.296875q-1.875 0 -3.203125 1.3125q-1.3125 1.296875 -1.3125 3.140625q0 1.828125 1.3125 3.140625q1.328125 1.3125 3.203125 1.3125q1.875 0 3.1875 -1.3125q1.3125 -1.3125 1.3125 -3.140625zm6.7148438 -5.109375l0 1.5q1.03125 -1.046875 1.859375 -1.4375q0.84375 -0.40625 1.890625 -0.40625q1.125 0 2.046875 0.484375q0.65625 0.34375 1.1875 1.15625q0.53125 0.8125 0.53125 1.671875l0 6.203125l0.828125 0q0.359375 0 0.5 0.140625q0.15625 0.125 0.15625 0.34375q0 0.21875 -0.15625 0.359375q-0.140625 0.140625 -0.5 0.140625l-2.625 0q-0.375 0 -0.53125 -0.140625q-0.140625 -0.140625 -0.140625 -0.359375q0 -0.21875 0.140625 -0.34375q0.15625 -0.140625 0.53125 -0.140625l0.8125 0l0 -6.03125q0 -1.046875 -0.765625 -1.765625q-0.75 -0.71875 -2.03125 -0.71875q-0.96875 0 -1.6875 0.390625q-0.71875 0.390625 -2.046875 1.953125l0 6.171875l1.125 0q0.34375 0 0.5 0.140625q0.15625 0.125 0.15625 0.34375q0 0.21875 -0.15625 0.359375q-0.15625 0.140625 -0.5 0.140625l-3.21875 0q-0.34375 0 -0.5 -0.140625q-0.15625 -0.140625 -0.15625 -0.359375q0 -0.21875 0.15625 -0.34375q0.15625 -0.140625 0.5 -0.140625l1.109375 0l0 -8.171875l-0.828125 0q-0.34375 0 -0.5 -0.140625q-0.15625 -0.140625 -0.15625 -0.359375q0 -0.21875 0.15625 -0.359375q0.15625 -0.140625 0.5 -0.140625l1.8125 0zm17.480469 4.3125q0 -1.34375 0.34375 -2.84375q0.359375 -1.515625 1.34375 -3.5q1.0 -1.984375 1.46875 -2.390625q0.140625 -0.125 0.296875 -0.125q0.21875 0 0.359375 0.140625q0.140625 0.140625 0.140625 0.328125q0 0.125 -0.078125 0.265625q-1.28125 2.359375 -1.84375 4.28125q-0.546875 1.921875 -0.546875 3.84375q0 1.9375 0.546875 3.859375q0.5625 1.921875 1.84375 4.28125q0.078125 0.140625 0.078125 0.265625q0 0.1875 -0.140625 0.328125q-0.140625 0.15625 -0.359375 0.15625q-0.15625 0 -0.296875 -0.125q-0.4375 -0.40625 -1.421875 -2.34375q-0.984375 -1.921875 -1.359375 -3.40625q-0.375 -1.5 -0.375 -3.015625zm14.792969 0.015625q0 1.34375 -0.359375 2.859375q-0.34375 1.5 -1.34375 3.484375q-0.984375 2.0 -1.4375 2.390625q-0.140625 0.140625 -0.3125 0.140625q-0.203125 0 -0.359375 -0.15625q-0.140625 -0.140625 -0.140625 -0.328125q0 -0.125 0.078125 -0.265625q1.296875 -2.359375 1.84375 -4.28125q0.546875 -1.921875 0.546875 -3.84375q0 -1.9375 -0.546875 -3.859375q-0.546875 -1.921875 -1.84375 -4.28125q-0.078125 -0.140625 -0.078125 -0.265625q0 -0.1875 0.140625 -0.328125q0.15625 -0.140625 0.359375 -0.140625q0.171875 0 0.3125 0.125q0.421875 0.390625 1.40625 2.328125q0.984375 1.9375 1.359375 3.421875q0.375 1.484375 0.375 3.0z" fill-rule="nonzero"/><path fill="#ffffff" d="m561.8399 22.356955l282.7342 0l35.439026 35.439034l0 177.19089l-318.17322 0z" fill-rule="evenodd"/><path stroke="#000000" stroke-width="2.0" stroke-linejoin="round" stroke-linecap="butt" d="m561.8399 22.356955l282.7342 0l35.439026 35.439034l0 177.19089l-318.17322 0z" fill-rule="evenodd"/><path fill="#000000" fill-opacity="0.0" d="m586.90015 59.39895l195.27557 0l0 74.992134l-195.27557 0z" fill-rule="evenodd"/><path fill="#000000" d="m597.9939 93.99895l0 -19.078125l8.46875 0q2.546875 0 3.875 0.515625q1.328125 0.515625 2.109375 1.8125q0.796875 1.296875 0.796875 2.875q0 2.03125 -1.3125 3.421875q-1.3125 1.390625 -4.0625 1.765625q1.015625 0.484375 1.53125 0.953125q1.109375 1.015625 2.09375 2.546875l3.3125 5.1875l-3.171875 0l-2.515625 -3.96875q-1.109375 -1.71875 -1.828125 -2.625q-0.71875 -0.921875 -1.28125 -1.28125q-0.5625 -0.359375 -1.15625 -0.5q-0.421875 -0.09375 -1.40625 -0.09375l-2.921875 0l0 8.46875l-2.53125 0zm2.53125 -10.65625l5.421875 0q1.734375 0 2.703125 -0.359375q0.984375 -0.359375 1.484375 -1.140625q0.515625 -0.796875 0.515625 -1.71875q0 -1.359375 -0.984375 -2.21875q-0.984375 -0.875 -3.109375 -0.875l-6.03125 0l0 6.3125zm25.844055 6.203125l2.421875 0.296875q-0.578125 2.125 -2.125 3.296875q-1.546875 1.171875 -3.953125 1.171875q-3.03125 0 -4.8125 -1.859375q-1.78125 -1.875 -1.78125 -5.25q0 -3.484375 1.796875 -5.40625q1.796875 -1.9375 4.671875 -1.9375q2.765625 0 4.515625 1.890625q1.765625 1.890625 1.765625 5.3125q0 0.203125 -0.015625 0.625l-10.3125 0q0.140625 2.28125 1.296875 3.5q1.15625 1.203125 2.890625 1.203125q1.28125 0 2.1875 -0.671875q0.921875 -0.6875 1.453125 -2.171875zm-7.6875 -3.78125l7.71875 0q-0.15625 -1.75 -0.890625 -2.625q-1.125 -1.34375 -2.90625 -1.34375q-1.609375 0 -2.71875 1.078125q-1.09375 1.078125 -1.203125 2.890625zm12.621826 9.375l2.28125 0.34375q0.140625 1.046875 0.796875 1.53125q0.859375 0.65625 2.375 0.65625q1.625 0 2.5 -0.65625q0.890625 -0.640625 1.203125 -1.8125q0.1875 -0.71875 0.171875 -3.015625q-1.53125 1.8125 -3.828125 1.8125q-2.84375 0 -4.40625 -2.046875q-1.5625 -2.0625 -1.5625 -4.9375q0 -1.984375 0.71875 -3.65625q0.71875 -1.671875 2.078125 -2.578125q1.359375 -0.921875 3.1875 -0.921875q2.453125 0 4.03125 1.984375l0 -1.671875l2.171875 0l0 11.953125q0 3.234375 -0.65625 4.578125q-0.65625 1.34375 -2.09375 2.125q-1.421875 0.78125 -3.5 0.78125q-2.46875 0 -4.0 -1.109375q-1.515625 -1.109375 -1.46875 -3.359375zm1.9375 -8.296875q0 2.71875 1.078125 3.96875q1.078125 1.25 2.703125 1.25q1.625 0 2.71875 -1.234375q1.09375 -1.25 1.09375 -3.90625q0 -2.546875 -1.125 -3.828125q-1.125 -1.296875 -2.71875 -1.296875q-1.5625 0 -2.65625 1.28125q-1.09375 1.265625 -1.09375 3.765625zm13.32489 -9.234375l0 -2.6875l2.34375 0l0 2.6875l-2.34375 0zm0 16.390625l0 -13.828125l2.34375 0l0 13.828125l-2.34375 0zm4.969055 -4.125l2.328125 -0.359375q0.1875 1.390625 1.078125 2.140625q0.890625 0.734375 2.5 0.734375q1.609375 0 2.390625 -0.65625q0.78125 -0.65625 0.78125 -1.546875q0 -0.796875 -0.6875 -1.25q-0.484375 -0.3125 -2.390625 -0.796875q-2.578125 -0.65625 -3.578125 -1.125q-1.0 -0.46875 -1.515625 -1.3125q-0.515625 -0.84375 -0.515625 -1.859375q0 -0.921875 0.421875 -1.703125q0.4375 -0.796875 1.15625 -1.3125q0.546875 -0.40625 1.484375 -0.6875q0.953125 -0.28125 2.03125 -0.28125q1.625 0 2.859375 0.46875q1.234375 0.46875 1.8125 1.28125q0.59375 0.796875 0.8125 2.140625l-2.296875 0.3125q-0.15625 -1.078125 -0.90625 -1.671875q-0.75 -0.59375 -2.109375 -0.59375q-1.609375 0 -2.3125 0.53125q-0.6875 0.53125 -0.6875 1.25q0 0.453125 0.296875 0.8125q0.28125 0.375 0.890625 0.625q0.359375 0.140625 2.078125 0.609375q2.484375 0.65625 3.46875 1.078125q0.984375 0.421875 1.53125 1.234375q0.5625 0.796875 0.5625 2.0q0 1.171875 -0.6875 2.21875q-0.671875 1.03125 -1.96875 1.59375q-1.28125 0.5625 -2.90625 0.5625q-2.703125 0 -4.125 -1.109375q-1.40625 -1.125 -1.796875 -3.328125zm19.390625 2.03125l0.328125 2.0625q-0.984375 0.21875 -1.765625 0.21875q-1.265625 0 -1.96875 -0.40625q-0.703125 -0.40625 -1.0 -1.0625q-0.28125 -0.65625 -0.28125 -2.765625l0 -7.953125l-1.71875 0l0 -1.828125l1.71875 0l0 -3.421875l2.328125 -1.40625l0 4.828125l2.359375 0l0 1.828125l-2.359375 0l0 8.078125q0 1.0 0.125 1.296875q0.125 0.28125 0.40625 0.453125q0.28125 0.171875 0.796875 0.171875q0.390625 0 1.03125 -0.09375zm2.2653198 2.09375l0 -13.828125l2.109375 0l0 2.09375q0.796875 -1.46875 1.484375 -1.9375q0.6875 -0.46875 1.5 -0.46875q1.1875 0 2.40625 0.765625l-0.796875 2.171875q-0.859375 -0.515625 -1.71875 -0.515625q-0.765625 0 -1.390625 0.46875q-0.609375 0.453125 -0.859375 1.28125q-0.390625 1.25 -0.390625 2.734375l0 7.234375l-2.34375 0zm8.798645 5.328125l-0.265625 -2.203125q0.765625 0.203125 1.34375 0.203125q0.78125 0 1.25 -0.265625q0.46875 -0.25 0.765625 -0.71875q0.21875 -0.359375 0.71875 -1.75q0.0625 -0.1875 0.203125 -0.5625l-5.25 -13.859375l2.53125 0l2.875 8.015625q0.5625 1.515625 1.0 3.203125q0.40625 -1.625 0.96875 -3.15625l2.953125 -8.0625l2.34375 0l-5.265625 14.0625q-0.84375 2.28125 -1.3125 3.140625q-0.625 1.15625 -1.4375 1.6875q-0.796875 0.546875 -1.921875 0.546875q-0.671875 0 -1.5 -0.28125z" fill-rule="nonzero"/><path fill="#000000" fill-opacity="0.0" d="m602.90027 168.59317l248.62994 0l0 37.480316l-248.62994 0z" fill-rule="evenodd"/><path fill="#000000" d="m623.9315 181.17021l0 13.71875l1.3125 0q0.359375 0 0.5 0.140625q0.15625 0.125 0.15625 0.34375q0 0.21875 -0.15625 0.359375q-0.140625 0.140625 -0.5 0.140625l-2.3125 0l0 -1.953125q-1.71875 2.34375 -4.34375 2.34375q-1.34375 0 -2.578125 -0.703125q-1.21875 -0.71875 -1.921875 -2.03125q-0.703125 -1.3125 -0.703125 -2.703125q0 -1.40625 0.703125 -2.71875q0.703125 -1.3125 1.921875 -2.015625q1.234375 -0.71875 2.578125 -0.71875q2.578125 0 4.34375 2.34375l0 -5.5625l-1.3125 0q-0.359375 0 -0.515625 -0.140625q-0.15625 -0.140625 -0.15625 -0.359375q0 -0.203125 0.15625 -0.34375q0.15625 -0.140625 0.515625 -0.140625l2.3125 0zm-1.0 9.65625q0 -1.875 -1.265625 -3.15625q-1.265625 -1.296875 -3.015625 -1.296875q-1.75 0 -3.015625 1.296875q-1.265625 1.28125 -1.265625 3.15625q0 1.859375 1.265625 3.15625q1.265625 1.296875 3.015625 1.296875q1.75 0 3.015625 -1.296875q1.265625 -1.296875 1.265625 -3.15625zm15.902344 0.203125l-10.03125 0q0.25 1.90625 1.59375 3.078125q1.34375 1.171875 3.328125 1.171875q1.09375 0 2.296875 -0.359375q1.21875 -0.375 1.984375 -0.96875q0.21875 -0.171875 0.375 -0.171875q0.1875 0 0.328125 0.140625q0.140625 0.140625 0.140625 0.34375q0 0.203125 -0.1875 0.390625q-0.5625 0.578125 -2.0 1.09375q-1.421875 0.515625 -2.9375 0.515625q-2.53125 0 -4.234375 -1.65625q-1.6875 -1.671875 -1.6875 -4.015625q0 -2.15625 1.578125 -3.6875q1.59375 -1.53125 3.9375 -1.53125q2.421875 0 3.96875 1.578125q1.5625 1.578125 1.546875 4.078125zm-1.0 -1.0q-0.296875 -1.625 -1.546875 -2.640625q-1.234375 -1.015625 -2.96875 -1.015625q-1.71875 0 -2.96875 1.015625q-1.234375 1.0 -1.53125 2.640625l9.015625 0zm6.3710938 -4.3125l0 1.796875q0.875 -1.0625 1.875 -1.59375q1.015625 -0.546875 2.390625 -0.546875q1.453125 0 2.671875 0.6875q1.234375 0.671875 1.90625 1.890625q0.671875 1.203125 0.671875 2.546875q0 2.109375 -1.515625 3.625q-1.515625 1.5 -3.734375 1.5q-2.625 0 -4.265625 -2.140625l0 5.9375l2.390625 0q0.34375 0 0.5 0.125q0.15625 0.140625 0.15625 0.359375q0 0.21875 -0.15625 0.359375q-0.15625 0.140625 -0.5 0.140625l-4.703125 0q-0.359375 0 -0.515625 -0.140625q-0.140625 -0.140625 -0.140625 -0.359375q0 -0.21875 0.140625 -0.359375q0.15625 -0.125 0.515625 -0.125l1.328125 0l0 -12.703125l-1.328125 0q-0.359375 0 -0.515625 -0.140625q-0.140625 -0.140625 -0.140625 -0.359375q0 -0.21875 0.140625 -0.359375q0.15625 -0.140625 0.515625 -0.140625l2.3125 0zm8.53125 4.78125q0 -1.703125 -1.25 -2.90625q-1.234375 -1.21875 -3.015625 -1.21875q-1.78125 0 -3.03125 1.21875q-1.234375 1.21875 -1.234375 2.90625q0 1.6875 1.234375 2.90625q1.25 1.21875 3.03125 1.21875q1.78125 0 3.015625 -1.203125q1.25 -1.21875 1.25 -2.921875zm10.074219 -9.328125l0 13.71875l3.859375 0q0.375 0 0.515625 0.140625q0.15625 0.125 0.15625 0.34375q0 0.21875 -0.15625 0.359375q-0.140625 0.140625 -0.515625 0.140625l-8.71875 0q-0.34375 0 -0.5 -0.140625q-0.15625 -0.140625 -0.15625 -0.359375q0 -0.21875 0.15625 -0.34375q0.15625 -0.140625 0.5 -0.140625l3.875 0l0 -12.734375l-2.84375 0q-0.34375 0 -0.5 -0.140625q-0.15625 -0.140625 -0.15625 -0.359375q0 -0.203125 0.140625 -0.34375q0.15625 -0.140625 0.515625 -0.140625l3.828125 0zm19.402344 9.65625q0 2.25 -1.609375 3.84375q-1.609375 1.59375 -3.890625 1.59375q-2.296875 0 -3.90625 -1.59375q-1.59375 -1.609375 -1.59375 -3.84375q0 -2.25 1.59375 -3.84375q1.609375 -1.609375 3.90625 -1.609375q2.28125 0 3.890625 1.59375q1.609375 1.59375 1.609375 3.859375zm-1.0 0q0 -1.859375 -1.3125 -3.15625q-1.3125 -1.296875 -3.1875 -1.296875q-1.875 0 -3.203125 1.3125q-1.3125 1.296875 -1.3125 3.140625q0 1.828125 1.3125 3.140625q1.328125 1.3125 3.203125 1.3125q1.875 0 3.1875 -1.3125q1.3125 -1.3125 1.3125 -3.140625zm9.964844 5.046875l-4.5625 -9.15625l-0.296875 0q-0.359375 0 -0.515625 -0.140625q-0.140625 -0.140625 -0.140625 -0.34375q0 -0.15625 0.078125 -0.28125q0.078125 -0.125 0.1875 -0.171875q0.125 -0.0625 0.390625 -0.0625l2.6875 0q0.359375 0 0.5 0.140625q0.15625 0.140625 0.15625 0.375q0 0.203125 -0.15625 0.34375q-0.140625 0.140625 -0.5 0.140625l-1.3125 0l4.015625 8.078125l3.953125 -8.078125l-1.3125 0q-0.359375 0 -0.515625 -0.140625q-0.140625 -0.140625 -0.140625 -0.359375q0 -0.21875 0.140625 -0.359375q0.15625 -0.140625 0.515625 -0.140625l2.671875 0q0.375 0 0.515625 0.140625q0.15625 0.140625 0.15625 0.375q0 0.140625 -0.09375 0.28125q-0.09375 0.125 -0.21875 0.171875q-0.109375 0.03125 -0.640625 0.03125l-6.234375 12.703125l1.53125 0q0.34375 0 0.5 0.125q0.15625 0.140625 0.15625 0.359375q0 0.21875 -0.15625 0.359375q-0.15625 0.140625 -0.5 0.140625l-5.671875 0q-0.359375 0 -0.515625 -0.140625q-0.140625 -0.140625 -0.140625 -0.359375q0 -0.21875 0.140625 -0.359375q0.15625 -0.125 0.515625 -0.125l3.078125 0l1.734375 -3.546875zm14.230469 -5.84375q0 -1.34375 0.34375 -2.84375q0.359375 -1.515625 1.34375 -3.5q1.0 -1.984375 1.46875 -2.390625q0.140625 -0.125 0.296875 -0.125q0.21875 0 0.359375 0.140625q0.140625 0.140625 0.140625 0.328125q0 0.125 -0.078125 0.265625q-1.28125 2.359375 -1.84375 4.28125q-0.546875 1.921875 -0.546875 3.84375q0 1.9375 0.546875 3.859375q0.5625 1.921875 1.84375 4.28125q0.078125 0.140625 0.078125 0.265625q0 0.1875 -0.140625 0.328125q-0.140625 0.15625 -0.359375 0.15625q-0.15625 0 -0.296875 -0.125q-0.4375 -0.40625 -1.421875 -2.34375q-0.984375 -1.921875 -1.359375 -3.40625q-0.375 -1.5 -0.375 -3.015625zm14.792969 0.015625q0 1.34375 -0.359375 2.859375q-0.34375 1.5 -1.34375 3.484375q-0.984375 2.0 -1.4375 2.390625q-0.140625 0.140625 -0.3125 0.140625q-0.203125 0 -0.359375 -0.15625q-0.140625 -0.140625 -0.140625 -0.328125q0 -0.125 0.078125 -0.265625q1.296875 -2.359375 1.84375 -4.28125q0.546875 -1.921875 0.546875 -3.84375q0 -1.9375 -0.546875 -3.859375q-0.546875 -1.921875 -1.84375 -4.28125q-0.078125 -0.140625 -0.078125 -0.265625q0 -0.1875 0.140625 -0.328125q0.15625 -0.140625 0.359375 -0.140625q0.171875 0 0.3125 0.125q0.421875 0.390625 1.40625 2.328125q0.984375 1.9375 1.359375 3.421875q0.375 1.484375 0.375 3.0z" fill-rule="nonzero"/><path fill="#000000" fill-opacity="0.0" d="m343.9134 187.33333l258.99213 0" fill-rule="evenodd"/><path stroke="#000000" stroke-width="3.0" stroke-linejoin="round" stroke-linecap="butt" d="m343.9134 187.33333l240.99213 0" fill-rule="evenodd"/><path fill="#000000" stroke="#000000" stroke-width="3.0" stroke-linecap="butt" d="m584.9055 192.28853l13.614258 -4.9552l-13.614258 -4.955185z" fill-rule="evenodd"/><path fill="#000000" fill-opacity="0.0" d="m376.85434 141.11285l141.38583 0l0 33.606308l-141.38583 0z" fill-rule="evenodd"/><path fill="#000000" d="m424.21912 157.43289l0 -0.4375q0 -0.484375 0.1875 -0.6875q0.1875 -0.203125 0.46875 -0.203125q0.296875 0 0.484375 0.203125q0.1875 0.203125 0.1875 0.6875l0 2.96875q-0.015625 0.484375 -0.203125 0.6875q-0.171875 0.203125 -0.46875 0.203125q-0.265625 0 -0.453125 -0.171875q-0.171875 -0.1875 -0.203125 -0.609375q-0.09375 -1.109375 -1.46875 -2.109375q-1.359375 -1.0 -3.671875 -1.0q-2.921875 0 -4.4375 1.828125q-1.515625 1.828125 -1.515625 4.1875q0 2.546875 1.671875 4.203125q1.671875 1.65625 4.328125 1.65625q1.53125 0 3.109375 -0.5625q1.59375 -0.5625 2.875 -1.8125q0.328125 -0.3125 0.578125 -0.3125q0.265625 0 0.4375 0.1875q0.1875 0.171875 0.1875 0.4375q0 0.671875 -1.578125 1.703125q-2.546875 1.671875 -5.671875 1.671875q-3.171875 0 -5.21875 -2.015625q-2.03125 -2.03125 -2.03125 -5.140625q0 -3.171875 2.078125 -5.265625q2.09375 -2.09375 5.265625 -2.09375q3.015625 0 5.0625 1.796875zm17.5 12.203125l0 -1.890625q-2.859375 2.40625 -6.109375 2.40625q-2.359375 0 -3.6875 -1.1875q-1.328125 -1.203125 -1.328125 -2.9375q0 -1.90625 1.75 -3.328125q1.75 -1.421875 5.109375 -1.421875q0.90625 0 1.96875 0.125q1.0625 0.109375 2.296875 0.359375l0 -2.125q0 -1.078125 -1.0 -1.875q-1.0 -0.796875 -3.0 -0.796875q-1.53125 0 -4.296875 0.890625q-0.5 0.15625 -0.640625 0.15625q-0.25 0 -0.4375 -0.1875q-0.171875 -0.1875 -0.171875 -0.46875q0 -0.265625 0.15625 -0.421875q0.21875 -0.234375 1.765625 -0.640625q2.4375 -0.65625 3.6875 -0.65625q2.484375 0 3.875 1.234375q1.390625 1.21875 1.390625 2.765625l0 8.6875l1.75 0q0.484375 0 0.6875 0.1875q0.203125 0.171875 0.203125 0.46875q0 0.28125 -0.203125 0.46875q-0.203125 0.1875 -0.6875 0.1875l-3.078125 0zm0 -6.53125q-0.921875 -0.265625 -1.953125 -0.390625q-1.03125 -0.125 -2.171875 -0.125q-2.859375 0 -4.46875 1.234375q-1.21875 0.921875 -1.21875 2.203125q0 1.1875 0.921875 2.0q0.9375 0.8125 2.71875 0.8125q1.703125 0 3.15625 -0.671875q1.46875 -0.6875 3.015625 -2.171875l0 -2.890625zm16.09375 -13.078125l0 18.296875l5.15625 0q0.484375 0 0.6875 0.1875q0.203125 0.171875 0.203125 0.46875q0 0.28125 -0.203125 0.46875q-0.203125 0.1875 -0.6875 0.1875l-11.625 0q-0.46875 0 -0.671875 -0.1875q-0.203125 -0.1875 -0.203125 -0.46875q0 -0.296875 0.203125 -0.46875q0.203125 -0.1875 0.671875 -0.1875l5.15625 0l0 -16.96875l-3.78125 0q-0.46875 0 -0.6875 -0.1875q-0.203125 -0.1875 -0.203125 -0.484375q0 -0.28125 0.203125 -0.46875q0.203125 -0.1875 0.6875 -0.1875l5.09375 0zm19.203125 0l0 18.296875l5.15625 0q0.484375 0 0.6875 0.1875q0.203125 0.171875 0.203125 0.46875q0 0.28125 -0.203125 0.46875q-0.203125 0.1875 -0.6875 0.1875l-11.625 0q-0.46875 0 -0.671875 -0.1875q-0.203125 -0.1875 -0.203125 -0.46875q0 -0.296875 0.203125 -0.46875q0.203125 -0.1875 0.671875 -0.1875l5.15625 0l0 -16.96875l-3.78125 0q-0.46875 0 -0.6875 -0.1875q-0.203125 -0.1875 -0.203125 -0.484375q0 -0.28125 0.203125 -0.46875q0.203125 -0.1875 0.6875 -0.1875l5.09375 0z" fill-rule="nonzero"/></g></svg>