<svg version="1.1" viewBox="0.0 0.0 2067.1889763779527 933.0498687664042" fill="none" stroke="none" stroke-linecap="square" stroke-miterlimit="10" xmlns:xlink="http://www.w3.org/1999/xlink" xmlns="http://www.w3.org/2000/svg"><clipPath id="p.0"><path d="m0 0l2067.189 0l0 933.04987l-2067.189 0l0 -933.04987z" clip-rule="nonzero"/></clipPath><g clip-path="url(#p.0)"><path fill="#ffffff" d="m0 0l2067.189 0l0 933.04987l-2067.189 0z" fill-rule="evenodd"/><path fill="#ffffff" d="m24.929134 31.106298l310.2362 0l0 0l0 207.3386l-310.2362 0z" fill-rule="evenodd"/><path stroke="#000000" stroke-width="2.0" stroke-linejoin="round" stroke-linecap="butt" d="m24.929134 31.106298l310.2362 0l0 0l0 207.3386l-310.2362 0z" fill-rule="evenodd"/><path fill="#000000" fill-opacity="0.0" d="m37.199474 74.92988l180.7874 0l0 95.55906l-180.7874 0z" fill-rule="evenodd"/><path fill="#000000" d="m46.168224 109.52988l7.3125 -19.078125l2.734375 0l7.796879 19.078125l-2.8750038 0l-2.21875 -5.78125l-7.984375 0l-2.09375 5.78125l-2.671875 0zm5.5 -7.828125l6.46875 0l-2.0 -5.296875q-0.90625 -2.40625 -1.34375 -3.953125q-0.375 1.84375 -1.03125 3.640625l-2.09375 5.609375zm14.013889 7.828125l0 -19.078125l2.34375 0l0 19.078125l-2.34375 0zm5.984665 -16.390625l0 -2.6875l2.34375 0l0 2.6875l-2.34375 0zm0 16.390625l0 -13.828125l2.34375 0l0 13.828125l-2.34375 0zm14.93779 -5.0625l2.296875 0.296875q-0.375 2.390625 -1.9375 3.734375q-1.546875 1.34375 -3.8125 1.34375q-2.84375 0 -4.5625 -1.84375q-1.71875 -1.859375 -1.71875 -5.328125q0 -2.234375 0.734375 -3.90625q0.75 -1.6875 2.265625 -2.53125q1.515625 -0.84375 3.296875 -0.84375q2.25 0 3.671875 1.140625q1.4375 1.140625 1.84375 3.234375l-2.28125 0.359375q-0.328125 -1.390625 -1.15625 -2.09375q-0.8125 -0.703125 -1.984375 -0.703125q-1.78125 0 -2.890625 1.265625q-1.09375 1.265625 -1.09375 4.015625q0 2.78125 1.0625 4.046875q1.0625 1.265625 2.78125 1.265625q1.390625 0 2.3125 -0.84375q0.921875 -0.859375 1.171875 -2.609375zm13.765625 0.609375l2.421875 0.296875q-0.578125 2.125 -2.125 3.296875q-1.546875 1.171875 -3.953125 1.171875q-3.03125 0 -4.8125 -1.859375q-1.78125 -1.875 -1.78125 -5.25q0 -3.484375 1.796875 -5.40625q1.796875 -1.9375 4.671875 -1.9375q2.765625 0 4.515625 1.890625q1.765625 1.890625 1.765625 5.3125q0 0.203125 -0.015625 0.625l-10.3125 0q0.140625 2.28125 1.296875 3.5q1.15625 1.203125 2.890625 1.203125q1.28125 0 2.1875 -0.671875q0.921875 -0.6875 1.453125 -2.171875zm-7.6875 -3.78125l7.71875 0q-0.15625 -1.75 -0.890625 -2.625q-1.125 -1.34375 -2.90625 -1.34375q-1.609375 0 -2.71875 1.078125q-1.09375 1.078125 -1.203125 2.890625z" fill-rule="nonzero"/><path fill="#ffffff" d="m443.10498 31.106298l310.2362 0l0 0l0 207.3386l-310.2362 0z" fill-rule="evenodd"/><path stroke="#000000" stroke-width="2.0" stroke-linejoin="round" stroke-linecap="butt" d="m443.10498 31.106298l310.2362 0l0 0l0 207.3386l-310.2362 0z" fill-rule="evenodd"/><path fill="#000000" fill-opacity="0.0" d="m455.37534 74.92988l180.78738 0l0 95.55906l-180.78738 0z" fill-rule="evenodd"/><path fill="#000000" d="m466.8597 109.52988l0 -19.078125l2.53125 0l0 19.078125l-2.53125 0zm6.67157 0l0 -13.828125l2.109375 0l0 1.96875q1.53125 -2.28125 4.40625 -2.28125q1.25 0 2.296875 0.453125q1.046875 0.453125 1.5625 1.1875q0.53125 0.71875 0.734375 1.71875q0.125 0.65625 0.125 2.28125l0 8.5l-2.34375 0l0 -8.40625q0 -1.4375 -0.28125 -2.140625q-0.265625 -0.71875 -0.96875 -1.140625q-0.6875 -0.421875 -1.625 -0.421875q-1.484375 0 -2.578125 0.953125q-1.09375 0.953125 -1.09375 3.609375l0 7.546875l-2.34375 0zm14.403076 1.140625l2.28125 0.34375q0.140625 1.046875 0.796875 1.53125q0.859375 0.65625 2.375 0.65625q1.625 0 2.5 -0.65625q0.890625 -0.640625 1.203125 -1.8125q0.1875 -0.71875 0.171875 -3.015625q-1.53125 1.8125 -3.828125 1.8125q-2.84375 0 -4.40625 -2.046875q-1.5625 -2.0625 -1.5625 -4.9375q0 -1.984375 0.71875 -3.65625q0.71875 -1.671875 2.078125 -2.578125q1.359375 -0.921875 3.1875 -0.921875q2.453125 0 4.03125 1.984375l0 -1.671875l2.171875 0l0 11.953125q0 3.234375 -0.65625 4.578125q-0.65625 1.34375 -2.09375 2.125q-1.421875 0.78125 -3.5 0.78125q-2.46875 0 -4.0 -1.109375q-1.515625 -1.109375 -1.46875 -3.359375zm1.9375 -8.296875q0 2.71875 1.078125 3.96875q1.078125 1.25 2.703125 1.25q1.625 0 2.71875 -1.234375q1.09375 -1.25 1.09375 -3.90625q0 -2.546875 -1.125 -3.828125q-1.125 -1.296875 -2.71875 -1.296875q-1.5625 0 -2.65625 1.28125q-1.09375 1.265625 -1.09375 3.765625zm13.293671 7.15625l0 -13.828125l2.109375 0l0 2.09375q0.796875 -1.46875 1.484375 -1.9375q0.6875 -0.46875 1.5 -0.46875q1.1875 0 2.40625 0.765625l-0.796875 2.171875q-0.859375 -0.515625 -1.71875 -0.515625q-0.765625 0 -1.390625 0.46875q-0.609375 0.453125 -0.859375 1.28125q-0.390625 1.25 -0.390625 2.734375l0 7.234375l-2.34375 0zm8.90802 -16.390625l0 -2.6875l2.34375 0l0 2.6875l-2.34375 0zm0 16.390625l0 -13.828125l2.34375 0l0 13.828125l-2.34375 0zm14.875244 0l0 -1.75q-1.3125 2.0625 -3.859375 2.0625q-1.65625 0 -3.046875 -0.90625q-1.375 -0.921875 -2.140625 -2.546875q-0.765625 -1.640625 -0.765625 -3.75q0 -2.078125 0.6875 -3.765625q0.703125 -1.6875 2.078125 -2.578125q1.375 -0.90625 3.078125 -0.90625q1.25 0 2.21875 0.53125q0.984375 0.53125 1.59375 1.375l0 -6.84375l2.34375 0l0 19.078125l-2.1875 0zm-7.40625 -6.890625q0 2.640625 1.125 3.96875q1.125 1.3125 2.640625 1.3125q1.53125 0 2.609375 -1.25q1.078125 -1.265625 1.078125 -3.84375q0 -2.84375 -1.09375 -4.171875q-1.09375 -1.328125 -2.703125 -1.328125q-1.546875 0 -2.609375 1.28125q-1.046875 1.28125 -1.046875 4.03125z" fill-rule="nonzero"/><path fill="#ffffff" d="m873.5512 31.106298l310.23615 0l0 0l0 207.3386l-310.23615 0z" fill-rule="evenodd"/><path stroke="#000000" stroke-width="2.0" stroke-linejoin="round" stroke-linecap="butt" d="m873.5512 31.106298l310.23615 0l0 0l0 207.3386l-310.23615 0z" fill-rule="evenodd"/><path fill="#000000" fill-opacity="0.0" d="m885.82153 74.92988l180.78735 0l0 95.55906l-180.78735 0z" fill-rule="evenodd"/><path fill="#000000" d="m897.3059 109.52988l0 -19.078125l2.53125 0l0 19.078125l-2.53125 0zm15.64032 0l0 -1.75q-1.3125 2.0625 -3.859375 2.0625q-1.65625 0 -3.046875 -0.90625q-1.375 -0.921875 -2.140625 -2.546875q-0.765625 -1.640625 -0.765625 -3.75q0 -2.078125 0.6875 -3.765625q0.703125 -1.6875 2.078125 -2.578125q1.375 -0.90625 3.078125 -0.90625q1.25 0 2.21875 0.53125q0.984375 0.53125 1.59375 1.375l0 -6.84375l2.34375 0l0 19.078125l-2.1875 0zm-7.40625 -6.890625q0 2.640625 1.125 3.96875q1.125 1.3125 2.640625 1.3125q1.53125 0 2.609375 -1.25q1.078125 -1.265625 1.078125 -3.84375q0 -2.84375 -1.09375 -4.171875q-1.09375 -1.328125 -2.703125 -1.328125q-1.546875 0 -2.609375 1.28125q-1.046875 1.28125 -1.046875 4.03125zm13.246826 6.890625l0 -13.828125l2.109375 0l0 2.09375q0.796875 -1.46875 1.484375 -1.9375q0.6875 -0.46875 1.5 -0.46875q1.1875 0 2.40625 0.765625l-0.796875 2.171875q-0.859375 -0.515625 -1.71875 -0.515625q-0.765625 0 -1.390625 0.46875q-0.609375 0.453125 -0.859375 1.28125q-0.390625 1.25 -0.390625 2.734375l0 7.234375l-2.34375 0zm8.907959 -16.390625l0 -2.6875l2.34375 0l0 2.6875l-2.34375 0zm0 16.390625l0 -13.828125l2.34375 0l0 13.828125l-2.34375 0zm4.969055 -4.125l2.328125 -0.359375q0.1875 1.390625 1.078125 2.140625q0.890625 0.734375 2.5 0.734375q1.609375 0 2.390625 -0.65625q0.78125 -0.65625 0.78125 -1.546875q0 -0.796875 -0.6875 -1.25q-0.484375 -0.3125 -2.390625 -0.796875q-2.578125 -0.65625 -3.578125 -1.125q-1.0 -0.46875 -1.515625 -1.3125q-0.515625 -0.84375 -0.515625 -1.859375q0 -0.921875 0.421875 -1.703125q0.4375 -0.796875 1.15625 -1.3125q0.546875 -0.40625 1.484375 -0.6875q0.953125 -0.28125 2.03125 -0.28125q1.625 0 2.859375 0.46875q1.234375 0.46875 1.8125 1.28125q0.59375 0.796875 0.8125 2.140625l-2.296875 0.3125q-0.15625 -1.078125 -0.90625 -1.671875q-0.75 -0.59375 -2.109375 -0.59375q-1.609375 0 -2.3125 0.53125q-0.6875 0.53125 -0.6875 1.25q0 0.453125 0.296875 0.8125q0.28125 0.375 0.890625 0.625q0.359375 0.140625 2.078125 0.609375q2.484375 0.65625 3.46875 1.078125q0.984375 0.421875 1.53125 1.234375q0.5625 0.796875 0.5625 2.0q0 1.171875 -0.6875 2.21875q-0.671875 1.03125 -1.96875 1.59375q-1.28125 0.5625 -2.90625 0.5625q-2.703125 0 -4.125 -1.109375q-1.40625 -1.125 -1.796875 -3.328125z" fill-rule="nonzero"/><path fill="#ffffff" d="m1303.9973 31.106298l310.23633 0l0 0l0 207.3386l-310.23633 0z" fill-rule="evenodd"/><path stroke="#000000" stroke-width="2.0" stroke-linejoin="round" stroke-linecap="butt" d="m1303.9973 31.106298l310.23633 0l0 0l0 207.3386l-310.23633 0z" fill-rule="evenodd"/><path fill="#000000" fill-opacity="0.0" d="m1316.2677 74.92988l180.78748 0l0 95.55906l-180.78748 0z" fill-rule="evenodd"/><path fill="#000000" d="m1327.7521 109.52988l0 -19.078125l2.53125 0l0 19.078125l-2.53125 0zm6.249756 1.140625l2.28125 0.34375q0.140625 1.046875 0.796875 1.53125q0.859375 0.65625 2.375 0.65625q1.625 0 2.5 -0.65625q0.890625 -0.640625 1.203125 -1.8125q0.1875 -0.71875 0.171875 -3.015625q-1.53125 1.8125 -3.828125 1.8125q-2.84375 0 -4.40625 -2.046875q-1.5625 -2.0625 -1.5625 -4.9375q0 -1.984375 0.71875 -3.65625q0.71875 -1.671875 2.078125 -2.578125q1.359375 -0.921875 3.1875 -0.921875q2.453125 0 4.03125 1.984375l0 -1.671875l2.171875 0l0 11.953125q0 3.234375 -0.65625 4.578125q-0.65625 1.34375 -2.09375 2.125q-1.421875 0.78125 -3.5 0.78125q-2.46875 0 -4.0 -1.109375q-1.515625 -1.109375 -1.46875 -3.359375zm1.9375 -8.296875q0 2.71875 1.078125 3.96875q1.078125 1.25 2.703125 1.25q1.625 0 2.71875 -1.234375q1.09375 -1.25 1.09375 -3.90625q0 -2.546875 -1.125 -3.828125q-1.125 -1.296875 -2.71875 -1.296875q-1.5625 0 -2.65625 1.28125q-1.09375 1.265625 -1.09375 3.765625zm13.309326 7.15625l0 -13.828125l2.109375 0l0 1.96875q1.53125 -2.28125 4.40625 -2.28125q1.25 0 2.296875 0.453125q1.046875 0.453125 1.5625 1.1875q0.53125 0.71875 0.734375 1.71875q0.125 0.65625 0.125 2.28125l0 8.5l-2.34375 0l0 -8.40625q0 -1.4375 -0.28125 -2.140625q-0.265625 -0.71875 -0.96875 -1.140625q-0.6875 -0.421875 -1.625 -0.421875q-1.484375 0 -2.578125 0.953125q-1.09375 0.953125 -1.09375 3.609375l0 7.546875l-2.34375 0zm23.856201 -1.703125q-1.3125 1.109375 -2.515625 1.5625q-1.203125 0.453125 -2.578125 0.453125q-2.28125 0 -3.5 -1.109375q-1.21875 -1.109375 -1.21875 -2.84375q0 -1.015625 0.453125 -1.859375q0.46875 -0.84375 1.21875 -1.34375q0.75 -0.515625 1.6875 -0.765625q0.6875 -0.1875 2.078125 -0.359375q2.828125 -0.328125 4.171875 -0.796875q0.015625 -0.484375 0.015625 -0.625q0 -1.421875 -0.65625 -2.015625q-0.90625 -0.796875 -2.671875 -0.796875q-1.65625 0 -2.453125 0.59375q-0.78125 0.578125 -1.15625 2.046875l-2.296875 -0.3125q0.3125 -1.46875 1.03125 -2.375q0.71875 -0.90625 2.0625 -1.390625q1.359375 -0.5 3.140625 -0.5q1.78125 0 2.875 0.421875q1.109375 0.421875 1.625 1.046875q0.53125 0.625 0.734375 1.59375q0.125 0.59375 0.125 2.15625l0 3.125q0 3.265625 0.140625 4.140625q0.15625 0.859375 0.59375 1.65625l-2.4375 0q-0.375 -0.734375 -0.46875 -1.703125zm-0.203125 -5.234375q-1.265625 0.515625 -3.828125 0.890625q-1.4375 0.203125 -2.046875 0.46875q-0.59375 0.25 -0.921875 0.75q-0.3125 0.5 -0.3125 1.125q0 0.9375 0.703125 1.5625q0.703125 0.625 2.078125 0.625q1.34375 0 2.390625 -0.59375q1.0625 -0.59375 1.5625 -1.625q0.375 -0.796875 0.375 -2.34375l0 -0.859375zm11.121704 4.84375l0.328125 2.0625q-0.984375 0.21875 -1.765625 0.21875q-1.265625 0 -1.96875 -0.40625q-0.703125 -0.40625 -1.0 -1.0625q-0.28125 -0.65625 -0.28125 -2.765625l0 -7.953125l-1.71875 0l0 -1.828125l1.71875 0l0 -3.421875l2.328125 -1.40625l0 4.828125l2.359375 0l0 1.828125l-2.359375 0l0 8.078125q0 1.0 0.125 1.296875q0.125 0.28125 0.40625 0.453125q0.28125 0.171875 0.796875 0.171875q0.390625 0 1.03125 -0.09375zm2.2966309 -14.296875l0 -2.6875l2.34375 0l0 2.6875l-2.34375 0zm0 16.390625l0 -13.828125l2.34375 0l0 13.828125l-2.34375 0zm14.968994 0l0 -2.03125q-1.609375 2.34375 -4.375 2.34375q-1.234375 0 -2.296875 -0.46875q-1.0625 -0.46875 -1.578125 -1.171875q-0.5 -0.71875 -0.71875 -1.75q-0.140625 -0.6875 -0.140625 -2.1875l0 -8.5625l2.34375 0l0 7.671875q0 1.828125 0.140625 2.46875q0.21875 0.921875 0.9375 1.453125q0.71875 0.53125 1.765625 0.53125q1.0625 0 1.984375 -0.53125q0.921875 -0.546875 1.296875 -1.46875q0.390625 -0.9375 0.390625 -2.71875l0 -7.40625l2.34375 0l0 13.828125l-2.09375 0zm4.824951 -4.125l2.328125 -0.359375q0.1875 1.390625 1.078125 2.140625q0.890625 0.734375 2.5 0.734375q1.609375 0 2.390625 -0.65625q0.78125 -0.65625 0.78125 -1.546875q0 -0.796875 -0.6875 -1.25q-0.484375 -0.3125 -2.390625 -0.796875q-2.578125 -0.65625 -3.578125 -1.125q-1.0 -0.46875 -1.515625 -1.3125q-0.515625 -0.84375 -0.515625 -1.859375q0 -0.921875 0.421875 -1.703125q0.4375 -0.796875 1.15625 -1.3125q0.546875 -0.40625 1.484375 -0.6875q0.953125 -0.28125 2.03125 -0.28125q1.625 0 2.859375 0.46875q1.234375 0.46875 1.8125 1.28125q0.59375 0.796875 0.8125 2.140625l-2.296875 0.3125q-0.15625 -1.078125 -0.90625 -1.671875q-0.75 -0.59375 -2.109375 -0.59375q-1.609375 0 -2.3125 0.53125q-0.6875 0.53125 -0.6875 1.25q0 0.453125 0.296875 0.8125q0.28125 0.375 0.890625 0.625q0.359375 0.140625 2.078125 0.609375q2.484375 0.65625 3.46875 1.078125q0.984375 0.421875 1.53125 1.234375q0.5625 0.796875 0.5625 2.0q0 1.171875 -0.6875 2.21875q-0.671875 1.03125 -1.96875 1.59375q-1.28125 0.5625 -2.90625 0.5625q-2.703125 0 -4.125 -1.109375q-1.40625 -1.125 -1.796875 -3.328125z" fill-rule="nonzero"/><path fill="#ffffff" d="m1734.4436 31.106298l310.2362 0l0 0l0 207.3386l-310.2362 0z" fill-rule="evenodd"/><path stroke="#000000" stroke-width="2.0" stroke-linejoin="round" stroke-linecap="butt" d="m1734.4436 31.106298l310.2362 0l0 0l0 207.3386l-310.2362 0z" fill-rule="evenodd"/><path fill="#000000" fill-opacity="0.0" d="m1746.7139 74.92988l180.78748 0l0 95.55906l-180.78748 0z" fill-rule="evenodd"/><path fill="#000000" d="m1757.667 109.52988l0 -19.078125l7.15625 0q2.1875 0 3.5 0.578125q1.328125 0.578125 2.078125 1.78125q0.75 1.203125 0.75 2.515625q0 1.21875 -0.671875 2.3125q-0.65625 1.078125 -2.0 1.734375q1.734375 0.515625 2.65625 1.734375q0.9375 1.21875 0.9375 2.890625q0 1.34375 -0.5625 2.5q-0.5625 1.140625 -1.40625 1.765625q-0.828125 0.625 -2.09375 0.953125q-1.25 0.3125 -3.0625 0.3125l-7.28125 0zm2.53125 -11.0625l4.125 0q1.671875 0 2.40625 -0.21875q0.953125 -0.296875 1.4375 -0.953125q0.5 -0.671875 0.5 -1.671875q0 -0.9375 -0.453125 -1.65625q-0.453125 -0.734375 -1.3125 -1.0q-0.84375 -0.265625 -2.890625 -0.265625l-3.8125 0l0 5.765625zm0 8.8125l4.75 0q1.21875 0 1.71875 -0.09375q0.859375 -0.15625 1.4375 -0.515625q0.59375 -0.375 0.96875 -1.0625q0.390625 -0.703125 0.390625 -1.609375q0 -1.0625 -0.546875 -1.84375q-0.546875 -0.796875 -1.515625 -1.109375q-0.96875 -0.328125 -2.796875 -0.328125l-4.40625 0l0 6.5625zm14.185791 -4.65625q0 -3.84375 2.125 -5.6875q1.78125 -1.546875 4.34375 -1.546875q2.859375 0 4.65625 1.875q1.8125 1.859375 1.8125 5.15625q0 2.671875 -0.796875 4.203125q-0.796875 1.53125 -2.328125 2.375q-1.53125 0.84375 -3.34375 0.84375q-2.890625 0 -4.6875 -1.859375q-1.78125 -1.859375 -1.78125 -5.359375zm2.40625 0q0 2.65625 1.15625 3.984375q1.15625 1.3125 2.90625 1.3125q1.75 0 2.90625 -1.328125q1.15625 -1.328125 1.15625 -4.046875q0 -2.5625 -1.171875 -3.890625q-1.15625 -1.328125 -2.890625 -1.328125q-1.75 0 -2.90625 1.328125q-1.15625 1.3125 -1.15625 3.96875zm15.449951 6.90625l-2.171875 0l0 -19.078125l2.34375 0l0 6.796875q1.484375 -1.859375 3.78125 -1.859375q1.28125 0 2.40625 0.515625q1.140625 0.515625 1.875 1.453125q0.75 0.921875 1.15625 2.25q0.421875 1.3125 0.421875 2.796875q0 3.5625 -1.765625 5.5q-1.75 1.9375 -4.21875 1.9375q-2.4375 0 -3.828125 -2.046875l0 1.734375zm-0.03125 -7.015625q0 2.484375 0.671875 3.59375q1.109375 1.8125 3.0 1.8125q1.53125 0 2.65625 -1.328125q1.125 -1.34375 1.125 -3.984375q0 -2.703125 -1.078125 -3.984375q-1.078125 -1.296875 -2.59375 -1.296875q-1.546875 0 -2.671875 1.328125q-1.109375 1.328125 -1.109375 3.859375z" fill-rule="nonzero"/><path fill="#000000" fill-opacity="0.0" d="m335.16534 134.77559l107.93701 0" fill-rule="evenodd"/><path stroke="#000000" stroke-width="3.0" stroke-linejoin="round" stroke-linecap="butt" d="m335.16534 134.77559l107.93701 0" fill-rule="evenodd"/><path fill="#000000" fill-opacity="0.0" d="m753.3412 134.77559l120.22052 0" fill-rule="evenodd"/><path stroke="#000000" stroke-width="3.0" stroke-linejoin="round" stroke-linecap="butt" d="m753.3412 134.77559l120.22052 0" fill-rule="evenodd"/><path fill="#000000" fill-opacity="0.0" d="m1183.7874 134.77559l120.22058 0" fill-rule="evenodd"/><path stroke="#000000" stroke-width="3.0" stroke-linejoin="round" stroke-linecap="butt" d="m1183.7874 134.77559l120.22058 0" fill-rule="evenodd"/><path fill="#000000" fill-opacity="0.0" d="m1614.2336 134.77559l120.22046 0" fill-rule="evenodd"/><path stroke="#000000" stroke-width="3.0" stroke-linejoin="round" stroke-linecap="butt" d="m1614.2336 134.77559l120.22046 0" fill-rule="evenodd"/><path fill="#ffffff" d="m234.01443 337.49475l275.6791 0l34.55713 34.55713l0 172.78143l-310.23624 0z" fill-rule="evenodd"/><path stroke="#000000" stroke-width="2.0" stroke-linejoin="round" stroke-linecap="butt" stroke-dasharray="8.0,6.0" d="m234.01443 337.49475l275.6791 0l34.55713 34.55713l0 172.78143l-310.23624 0z" fill-rule="evenodd"/><path fill="#000000" fill-opacity="0.0" d="m246.28477 381.31628l272.5039 0l0 56.75589l-272.5039 0z" fill-rule="evenodd"/><path fill="#000000" d="m257.3473 415.91626l0 -19.078125l7.1875 0q1.90625 0 2.90625 0.171875q1.40625 0.234375 2.359375 0.90625q0.953125 0.65625 1.53125 1.84375q0.578125 1.171875 0.578125 2.59375q0 2.4375 -1.5625 4.125q-1.546875 1.6875 -5.59375 1.6875l-4.890625 0l0 7.75l-2.515625 0zm2.515625 -10.015625l4.9375 0q2.453125 0 3.46875 -0.90625q1.03125 -0.90625 1.03125 -2.5625q0 -1.203125 -0.609375 -2.046875q-0.59375 -0.859375 -1.59375 -1.125q-0.625 -0.171875 -2.34375 -0.171875l-4.890625 0l0 6.8125zm14.9357605 10.015625l0 -13.828125l2.109375 0l0 2.09375q0.796875 -1.46875 1.484375 -1.9375q0.6875 -0.46875 1.5 -0.46875q1.1875 0 2.40625 0.765625l-0.796875 2.171875q-0.859375 -0.515625 -1.71875 -0.515625q-0.765625 0 -1.390625 0.46875q-0.609375 0.453125 -0.859375 1.28125q-0.390625 1.25 -0.390625 2.734375l0 7.234375l-2.34375 0zm8.0329895 -6.90625q0 -3.84375 2.125 -5.6875q1.78125 -1.546875 4.34375 -1.546875q2.859375 0 4.65625 1.875q1.8125 1.859375 1.8125 5.15625q0 2.671875 -0.796875 4.203125q-0.796875 1.53125 -2.328125 2.375q-1.53125 0.84375 -3.34375 0.84375q-2.890625 0 -4.6875 -1.859375q-1.78125 -1.859375 -1.78125 -5.359375zm2.40625 0q0 2.65625 1.15625 3.984375q1.15625 1.3125 2.90625 1.3125q1.75 0 2.90625 -1.328125q1.15625 -1.328125 1.15625 -4.046875q0 -2.5625 -1.171875 -3.890625q-1.15625 -1.328125 -2.890625 -1.328125q-1.75 0 -2.90625 1.328125q-1.15625 1.3125 -1.15625 3.96875zm11.715546 6.90625l5.0625 -7.1875l-4.671875 -6.640625l2.921875 0l2.125 3.25q0.59375 0.921875 0.96875 1.546875q0.5625 -0.859375 1.046875 -1.53125l2.328125 -3.265625l2.796875 0l-4.78125 6.515625l5.15625 7.3125l-2.890625 0l-2.828125 -4.296875l-0.75 -1.15625l-3.640625 5.453125l-2.84375 0zm14.796875 5.328125l-0.265625 -2.203125q0.765625 0.203125 1.34375 0.203125q0.78125 0 1.25 -0.265625q0.46875 -0.25 0.765625 -0.71875q0.21875 -0.359375 0.71875 -1.75q0.0625 -0.1875 0.203125 -0.5625l-5.25 -13.859375l2.53125 0l2.875 8.015625q0.5625 1.515625 1.0 3.203125q0.40625 -1.625 0.96875 -3.15625l2.953125 -8.0625l2.34375 0l-5.265625 14.0625q-0.84375 2.28125 -1.3125 3.140625q-0.625 1.15625 -1.4375 1.6875q-0.796875 0.546875 -1.921875 0.546875q-0.671875 0 -1.5 -0.28125zm21.14035 -5.328125l0 -19.078125l7.1875 0q1.90625 0 2.90625 0.171875q1.40625 0.234375 2.359375 0.90625q0.953125 0.65625 1.53125 1.84375q0.578125 1.171875 0.578125 2.59375q0 2.4375 -1.5625 4.125q-1.546875 1.6875 -5.59375 1.6875l-4.890625 0l0 7.75l-2.515625 0zm2.515625 -10.015625l4.9375 0q2.453125 0 3.46875 -0.90625q1.03125 -0.90625 1.03125 -2.5625q0 -1.203125 -0.609375 -2.046875q-0.59375 -0.859375 -1.59375 -1.125q-0.625 -0.171875 -2.34375 -0.171875l-4.890625 0l0 6.8125zm23.982635 8.3125q-1.3125 1.109375 -2.515625 1.5625q-1.203125 0.453125 -2.578125 0.453125q-2.28125 0 -3.5 -1.109375q-1.21875 -1.109375 -1.21875 -2.84375q0 -1.015625 0.453125 -1.859375q0.46875 -0.84375 1.21875 -1.34375q0.75 -0.515625 1.6875 -0.765625q0.6875 -0.1875 2.078125 -0.359375q2.828125 -0.328125 4.171875 -0.796875q0.015625 -0.484375 0.015625 -0.625q0 -1.421875 -0.65625 -2.015625q-0.90625 -0.796875 -2.671875 -0.796875q-1.65625 0 -2.453125 0.59375q-0.78125 0.578125 -1.15625 2.046875l-2.296875 -0.3125q0.3125 -1.46875 1.03125 -2.375q0.71875 -0.90625 2.0625 -1.390625q1.359375 -0.5 3.140625 -0.5q1.78125 0 2.875 0.421875q1.109375 0.421875 1.625 1.046875q0.53125 0.625 0.734375 1.59375q0.125 0.59375 0.125 2.15625l0 3.125q0 3.265625 0.140625 4.140625q0.15625 0.859375 0.59375 1.65625l-2.4375 0q-0.375 -0.734375 -0.46875 -1.703125zm-0.203125 -5.234375q-1.265625 0.515625 -3.828125 0.890625q-1.4375 0.203125 -2.046875 0.46875q-0.59375 0.25 -0.921875 0.75q-0.3125 0.5 -0.3125 1.125q0 0.9375 0.703125 1.5625q0.703125 0.625 2.078125 0.625q1.34375 0 2.390625 -0.59375q1.0625 -0.59375 1.5625 -1.625q0.375 -0.796875 0.375 -2.34375l0 -0.859375zm5.9030457 12.265625l-0.265625 -2.203125q0.765625 0.203125 1.34375 0.203125q0.78125 0 1.25 -0.265625q0.46875 -0.25 0.765625 -0.71875q0.21875 -0.359375 0.71875 -1.75q0.0625 -0.1875 0.203125 -0.5625l-5.25 -13.859375l2.53125 0l2.875 8.015625q0.5625 1.515625 1.0 3.203125q0.40625 -1.625 0.96875 -3.15625l2.953125 -8.0625l2.34375 0l-5.265625 14.0625q-0.84375 2.28125 -1.3125 3.140625q-0.625 1.15625 -1.4375 1.6875q-0.796875 0.546875 -1.921875 0.546875q-0.671875 0 -1.5 -0.28125zm13.421875 -5.328125l0 -13.828125l2.109375 0l0 1.9375q0.640625 -1.015625 1.71875 -1.625q1.09375 -0.625 2.46875 -0.625q1.53125 0 2.515625 0.640625q0.984375 0.640625 1.390625 1.78125q1.640625 -2.421875 4.265625 -2.421875q2.0625 0 3.15625 1.140625q1.109375 1.140625 1.109375 3.515625l0 9.484375l-2.328125 0l0 -8.703125q0 -1.40625 -0.234375 -2.015625q-0.21875 -0.625 -0.828125 -1.0q-0.59375 -0.390625 -1.390625 -0.390625q-1.46875 0 -2.4375 0.96875q-0.953125 0.96875 -0.953125 3.109375l0 8.03125l-2.34375 0l0 -8.984375q0 -1.5625 -0.578125 -2.34375q-0.5625 -0.78125 -1.875 -0.78125q-0.984375 0 -1.828125 0.53125q-0.828125 0.515625 -1.21875 1.515625q-0.375 1.0 -0.375 2.890625l0 7.171875l-2.34375 0zm31.673615 -4.453125l2.421875 0.296875q-0.578125 2.125 -2.125 3.296875q-1.546875 1.171875 -3.953125 1.171875q-3.03125 0 -4.8125 -1.859375q-1.78125 -1.875 -1.78125 -5.25q0 -3.484375 1.796875 -5.40625q1.796875 -1.9375 4.671875 -1.9375q2.765625 0 4.515625 1.890625q1.765625 1.890625 1.765625 5.3125q0 0.203125 -0.015625 0.625l-10.3125 0q0.140625 2.28125 1.296875 3.5q1.15625 1.203125 2.890625 1.203125q1.28125 0 2.1875 -0.671875q0.921875 -0.6875 1.453125 -2.171875zm-7.6875 -3.78125l7.71875 0q-0.15625 -1.75 -0.890625 -2.625q-1.125 -1.34375 -2.90625 -1.34375q-1.609375 0 -2.71875 1.078125q-1.09375 1.078125 -1.203125 2.890625zm13.043701 8.234375l0 -13.828125l2.109375 0l0 1.96875q1.53125 -2.28125 4.40625 -2.28125q1.25 0 2.296875 0.453125q1.046875 0.453125 1.5625 1.1875q0.53125 0.71875 0.734375 1.71875q0.125 0.65625 0.125 2.28125l0 8.5l-2.34375 0l0 -8.40625q0 -1.4375 -0.28125 -2.140625q-0.265625 -0.71875 -0.96875 -1.140625q-0.6875 -0.421875 -1.625 -0.421875q-1.484375 0 -2.578125 0.953125q-1.09375 0.953125 -1.09375 3.609375l0 7.546875l-2.34375 0zm19.94992 -2.09375l0.328125 2.0625q-0.984375 0.21875 -1.765625 0.21875q-1.265625 0 -1.96875 -0.40625q-0.703125 -0.40625 -1.0 -1.0625q-0.28125 -0.65625 -0.28125 -2.765625l0 -7.953125l-1.71875 0l0 -1.828125l1.71875 0l0 -3.421875l2.328125 -1.40625l0 4.828125l2.359375 0l0 1.828125l-2.359375 0l0 8.078125q0 1.0 0.125 1.296875q0.125 0.28125 0.40625 0.453125q0.28125 0.171875 0.796875 0.171875q0.390625 0 1.03125 -0.09375z" fill-rule="nonzero"/><path fill="#000000" d="m270.95667 441.22876l2.53125 0.640625q-0.796875 3.109375 -2.859375 4.75q-2.0625 1.625 -5.046875 1.625q-3.09375 0 -5.03125 -1.25q-1.921875 -1.265625 -2.9375 -3.640625q-1.0 -2.390625 -1.0 -5.125q0 -2.984375 1.140625 -5.203125q1.140625 -2.21875 3.234375 -3.359375q2.109375 -1.15625 4.625 -1.15625q2.875 0 4.828125 1.46875q1.953125 1.453125 2.71875 4.09375l-2.484375 0.578125q-0.671875 -2.078125 -1.9375 -3.03125q-1.25 -0.953125 -3.171875 -0.953125q-2.203125 0 -3.6875 1.0625q-1.46875 1.046875 -2.0625 2.828125q-0.59375 1.78125 -0.59375 3.65625q0 2.4375 0.703125 4.265625q0.703125 1.8125 2.203125 2.71875q1.5 0.890625 3.25 0.890625q2.109375 0 3.578125 -1.21875q1.484375 -1.234375 2.0 -3.640625zm5.3283997 6.6875l0 -19.078125l2.34375 0l0 6.84375q1.640625 -1.90625 4.140625 -1.90625q1.546875 0 2.671875 0.609375q1.140625 0.609375 1.625 1.671875q0.484375 1.0625 0.484375 3.09375l0 8.765625l-2.34375 0l0 -8.765625q0 -1.75 -0.765625 -2.546875q-0.75 -0.8125 -2.15625 -0.8125q-1.03125 0 -1.953125 0.546875q-0.921875 0.546875 -1.3125 1.46875q-0.390625 0.921875 -0.390625 2.546875l0 7.5625l-2.34375 0zm23.856201 -1.703125q-1.3125 1.109375 -2.515625 1.5625q-1.203125 0.453125 -2.578125 0.453125q-2.28125 0 -3.5 -1.109375q-1.21875 -1.109375 -1.21875 -2.84375q0 -1.015625 0.453125 -1.859375q0.46875 -0.84375 1.21875 -1.34375q0.75 -0.515625 1.6875 -0.765625q0.6875 -0.1875 2.078125 -0.359375q2.828125 -0.328125 4.171875 -0.796875q0.015625 -0.484375 0.015625 -0.625q0 -1.421875 -0.65625 -2.015625q-0.90625 -0.796875 -2.671875 -0.796875q-1.65625 0 -2.453125 0.59375q-0.78125 0.578125 -1.15625 2.046875l-2.296875 -0.3125q0.3125 -1.46875 1.03125 -2.375q0.71875 -0.90625 2.0625 -1.390625q1.359375 -0.5 3.140625 -0.5q1.78125 0 2.875 0.421875q1.109375 0.421875 1.625 1.046875q0.53125 0.625 0.734375 1.59375q0.125 0.59375 0.125 2.15625l0 3.125q0 3.265625 0.140625 4.140625q0.15625 0.859375 0.59375 1.65625l-2.4375 0q-0.375 -0.734375 -0.46875 -1.703125zm-0.203125 -5.234375q-1.265625 0.515625 -3.828125 0.890625q-1.4375 0.203125 -2.046875 0.46875q-0.59375 0.25 -0.921875 0.75q-0.3125 0.5 -0.3125 1.125q0 0.9375 0.703125 1.5625q0.703125 0.625 2.078125 0.625q1.34375 0 2.390625 -0.59375q1.0625 -0.59375 1.5625 -1.625q0.375 -0.796875 0.375 -2.34375l0 -0.859375zm5.9967957 6.9375l0 -13.828125l2.109375 0l0 1.96875q1.53125 -2.28125 4.40625 -2.28125q1.25 0 2.296875 0.453125q1.046875 0.453125 1.5625 1.1875q0.53125 0.71875 0.734375 1.71875q0.125 0.65625 0.125 2.28125l0 8.5l-2.34375 0l0 -8.40625q0 -1.4375 -0.28125 -2.140625q-0.265625 -0.71875 -0.96875 -1.140625q-0.6875 -0.421875 -1.625 -0.421875q-1.484375 0 -2.578125 0.953125q-1.09375 0.953125 -1.09375 3.609375l0 7.546875l-2.34375 0zm14.824951 0l0 -13.828125l2.109375 0l0 1.96875q1.53125 -2.28125 4.40625 -2.28125q1.25 0 2.296875 0.453125q1.046875 0.453125 1.5625 1.1875q0.53125 0.71875 0.734375 1.71875q0.125 0.65625 0.125 2.28125l0 8.5l-2.34375 0l0 -8.40625q0 -1.4375 -0.28125 -2.140625q-0.265625 -0.71875 -0.96875 -1.140625q-0.6875 -0.421875 -1.625 -0.421875q-1.484375 0 -2.578125 0.953125q-1.09375 0.953125 -1.09375 3.609375l0 7.546875l-2.34375 0zm24.29367 -4.453125l2.421875 0.296875q-0.578125 2.125 -2.125 3.296875q-1.546875 1.171875 -3.953125 1.171875q-3.03125 0 -4.8125 -1.859375q-1.78125 -1.875 -1.78125 -5.25q0 -3.484375 1.796875 -5.40625q1.796875 -1.9375 4.671875 -1.9375q2.765625 0 4.515625 1.890625q1.765625 1.890625 1.765625 5.3125q0 0.203125 -0.015625 0.625l-10.3125 0q0.140625 2.28125 1.296875 3.5q1.15625 1.203125 2.890625 1.203125q1.28125 0 2.1875 -0.671875q0.921875 -0.6875 1.453125 -2.171875zm-7.6875 -3.78125l7.71875 0q-0.15625 -1.75 -0.890625 -2.625q-1.125 -1.34375 -2.90625 -1.34375q-1.609375 0 -2.71875 1.078125q-1.09375 1.078125 -1.203125 2.890625zm12.996826 8.234375l0 -19.078125l2.34375 0l0 19.078125l-2.34375 0z" fill-rule="nonzero"/><path fill="#ffffff" d="m1088.7782 337.49475l275.67908 0l34.55713 34.55713l0 172.78143l-310.2362 0z" fill-rule="evenodd"/><path stroke="#000000" stroke-width="2.0" stroke-linejoin="round" stroke-linecap="butt" stroke-dasharray="8.0,6.0" d="m1088.7782 337.49475l275.67908 0l34.55713 34.55713l0 172.78143l-310.2362 0z" fill-rule="evenodd"/><path fill="#000000" fill-opacity="0.0" d="m1101.0486 381.31628l272.5039 0l0 56.75589l-272.5039 0z" fill-rule="evenodd"/><path fill="#000000" d="m1112.1111 415.91626l0 -19.078125l7.1875 0q1.90625 0 2.90625 0.171875q1.40625 0.234375 2.359375 0.90625q0.953125 0.65625 1.53125 1.84375q0.578125 1.171875 0.578125 2.59375q0 2.4375 -1.5625 4.125q-1.546875 1.6875 -5.59375 1.6875l-4.890625 0l0 7.75l-2.515625 0zm2.515625 -10.015625l4.9375 0q2.453125 0 3.46875 -0.90625q1.03125 -0.90625 1.03125 -2.5625q0 -1.203125 -0.609375 -2.046875q-0.59375 -0.859375 -1.59375 -1.125q-0.625 -0.171875 -2.34375 -0.171875l-4.890625 0l0 6.8125zm14.935791 10.015625l0 -13.828125l2.109375 0l0 2.09375q0.796875 -1.46875 1.484375 -1.9375q0.6875 -0.46875 1.5 -0.46875q1.1875 0 2.40625 0.765625l-0.796875 2.171875q-0.859375 -0.515625 -1.71875 -0.515625q-0.765625 0 -1.390625 0.46875q-0.609375 0.453125 -0.859375 1.28125q-0.390625 1.25 -0.390625 2.734375l0 7.234375l-2.34375 0zm8.032959 -6.90625q0 -3.84375 2.125 -5.6875q1.78125 -1.546875 4.34375 -1.546875q2.859375 0 4.65625 1.875q1.8125 1.859375 1.8125 5.15625q0 2.671875 -0.796875 4.203125q-0.796875 1.53125 -2.328125 2.375q-1.53125 0.84375 -3.34375 0.84375q-2.890625 0 -4.6875 -1.859375q-1.78125 -1.859375 -1.78125 -5.359375zm2.40625 0q0 2.65625 1.15625 3.984375q1.15625 1.3125 2.90625 1.3125q1.75 0 2.90625 -1.328125q1.15625 -1.328125 1.15625 -4.046875q0 -2.5625 -1.171875 -3.890625q-1.15625 -1.328125 -2.890625 -1.328125q-1.75 0 -2.90625 1.328125q-1.15625 1.3125 -1.15625 3.96875zm11.715576 6.90625l5.0625 -7.1875l-4.671875 -6.640625l2.921875 0l2.125 3.25q0.59375 0.921875 0.96875 1.546875q0.5625 -0.859375 1.046875 -1.53125l2.328125 -3.265625l2.796875 0l-4.78125 6.515625l5.15625 7.3125l-2.890625 0l-2.828125 -4.296875l-0.75 -1.15625l-3.640625 5.453125l-2.84375 0zm14.796875 5.328125l-0.265625 -2.203125q0.765625 0.203125 1.34375 0.203125q0.78125 0 1.25 -0.265625q0.46875 -0.25 0.765625 -0.71875q0.21875 -0.359375 0.71875 -1.75q0.0625 -0.1875 0.203125 -0.5625l-5.25 -13.859375l2.53125 0l2.875 8.015625q0.5625 1.515625 1.0 3.203125q0.40625 -1.625 0.96875 -3.15625l2.953125 -8.0625l2.34375 0l-5.265625 14.0625q-0.84375 2.28125 -1.3125 3.140625q-0.625 1.15625 -1.4375 1.6875q-0.796875 0.546875 -1.921875 0.546875q-0.671875 0 -1.5 -0.28125zm21.140259 -5.328125l0 -19.078125l7.1875 0q1.90625 0 2.90625 0.171875q1.40625 0.234375 2.359375 0.90625q0.953125 0.65625 1.53125 1.84375q0.578125 1.171875 0.578125 2.59375q0 2.4375 -1.5625 4.125q-1.546875 1.6875 -5.59375 1.6875l-4.890625 0l0 7.75l-2.515625 0zm2.515625 -10.015625l4.9375 0q2.453125 0 3.46875 -0.90625q1.03125 -0.90625 1.03125 -2.5625q0 -1.203125 -0.609375 -2.046875q-0.59375 -0.859375 -1.59375 -1.125q-0.625 -0.171875 -2.34375 -0.171875l-4.890625 0l0 6.8125zm23.982666 8.3125q-1.3125 1.109375 -2.515625 1.5625q-1.203125 0.453125 -2.578125 0.453125q-2.28125 0 -3.5 -1.109375q-1.21875 -1.109375 -1.21875 -2.84375q0 -1.015625 0.453125 -1.859375q0.46875 -0.84375 1.21875 -1.34375q0.75 -0.515625 1.6875 -0.765625q0.6875 -0.1875 2.078125 -0.359375q2.828125 -0.328125 4.171875 -0.796875q0.015625 -0.484375 0.015625 -0.625q0 -1.421875 -0.65625 -2.015625q-0.90625 -0.796875 -2.671875 -0.796875q-1.65625 0 -2.453125 0.59375q-0.78125 0.578125 -1.15625 2.046875l-2.296875 -0.3125q0.3125 -1.46875 1.03125 -2.375q0.71875 -0.90625 2.0625 -1.390625q1.359375 -0.5 3.140625 -0.5q1.78125 0 2.875 0.421875q1.109375 0.421875 1.625 1.046875q0.53125 0.625 0.734375 1.59375q0.125 0.59375 0.125 2.15625l0 3.125q0 3.265625 0.140625 4.140625q0.15625 0.859375 0.59375 1.65625l-2.4375 0q-0.375 -0.734375 -0.46875 -1.703125zm-0.203125 -5.234375q-1.265625 0.515625 -3.828125 0.890625q-1.4375 0.203125 -2.046875 0.46875q-0.59375 0.25 -0.921875 0.75q-0.3125 0.5 -0.3125 1.125q0 0.9375 0.703125 1.5625q0.703125 0.625 2.078125 0.625q1.34375 0 2.390625 -0.59375q1.0625 -0.59375 1.5625 -1.625q0.375 -0.796875 0.375 -2.34375l0 -0.859375zm5.903076 12.265625l-0.265625 -2.203125q0.765625 0.203125 1.34375 0.203125q0.78125 0 1.25 -0.265625q0.46875 -0.25 0.765625 -0.71875q0.21875 -0.359375 0.71875 -1.75q0.0625 -0.1875 0.203125 -0.5625l-5.25 -13.859375l2.53125 0l2.875 8.015625q0.5625 1.515625 1.0 3.203125q0.40625 -1.625 0.96875 -3.15625l2.953125 -8.0625l2.34375 0l-5.265625 14.0625q-0.84375 2.28125 -1.3125 3.140625q-0.625 1.15625 -1.4375 1.6875q-0.796875 0.546875 -1.921875 0.546875q-0.671875 0 -1.5 -0.28125zm13.421875 -5.328125l0 -13.828125l2.109375 0l0 1.9375q0.640625 -1.015625 1.71875 -1.625q1.09375 -0.625 2.46875 -0.625q1.53125 0 2.515625 0.640625q0.984375 0.640625 1.390625 1.78125q1.640625 -2.421875 4.265625 -2.421875q2.0625 0 3.15625 1.140625q1.109375 1.140625 1.109375 3.515625l0 9.484375l-2.328125 0l0 -8.703125q0 -1.40625 -0.234375 -2.015625q-0.21875 -0.625 -0.828125 -1.0q-0.59375 -0.390625 -1.390625 -0.390625q-1.46875 0 -2.4375 0.96875q-0.953125 0.96875 -0.953125 3.109375l0 8.03125l-2.34375 0l0 -8.984375q0 -1.5625 -0.578125 -2.34375q-0.5625 -0.78125 -1.875 -0.78125q-0.984375 0 -1.828125 0.53125q-0.828125 0.515625 -1.21875 1.515625q-0.375 1.0 -0.375 2.890625l0 7.171875l-2.34375 0zm31.673584 -4.453125l2.421875 0.296875q-0.578125 2.125 -2.125 3.296875q-1.546875 1.171875 -3.953125 1.171875q-3.03125 0 -4.8125 -1.859375q-1.78125 -1.875 -1.78125 -5.25q0 -3.484375 1.796875 -5.40625q1.796875 -1.9375 4.671875 -1.9375q2.765625 0 4.515625 1.890625q1.765625 1.890625 1.765625 5.3125q0 0.203125 -0.015625 0.625l-10.3125 0q0.140625 2.28125 1.296875 3.5q1.15625 1.203125 2.890625 1.203125q1.28125 0 2.1875 -0.671875q0.921875 -0.6875 1.453125 -2.171875zm-7.6875 -3.78125l7.71875 0q-0.15625 -1.75 -0.890625 -2.625q-1.125 -1.34375 -2.90625 -1.34375q-1.609375 0 -2.71875 1.078125q-1.09375 1.078125 -1.203125 2.890625zm13.043701 8.234375l0 -13.828125l2.109375 0l0 1.96875q1.53125 -2.28125 4.40625 -2.28125q1.25 0 2.296875 0.453125q1.046875 0.453125 1.5625 1.1875q0.53125 0.71875 0.734375 1.71875q0.125 0.65625 0.125 2.28125l0 8.5l-2.34375 0l0 -8.40625q0 -1.4375 -0.28125 -2.140625q-0.265625 -0.71875 -0.96875 -1.140625q-0.6875 -0.421875 -1.625 -0.421875q-1.484375 0 -2.578125 0.953125q-1.09375 0.953125 -1.09375 3.609375l0 7.546875l-2.34375 0zm19.949951 -2.09375l0.328125 2.0625q-0.984375 0.21875 -1.765625 0.21875q-1.265625 0 -1.96875 -0.40625q-0.703125 -0.40625 -1.0 -1.0625q-0.28125 -0.65625 -0.28125 -2.765625l0 -7.953125l-1.71875 0l0 -1.828125l1.71875 0l0 -3.421875l2.328125 -1.40625l0 4.828125l2.359375 0l0 1.828125l-2.359375 0l0 8.078125q0 1.0 0.125 1.296875q0.125 0.28125 0.40625 0.453125q0.28125 0.171875 0.796875 0.171875q0.390625 0 1.03125 -0.09375z" fill-rule="nonzero"/><path fill="#000000" d="m1125.7205 441.22876l2.53125 0.640625q-0.796875 3.109375 -2.859375 4.75q-2.0625 1.625 -5.046875 1.625q-3.09375 0 -5.03125 -1.25q-1.921875 -1.265625 -2.9375 -3.640625q-1.0 -2.390625 -1.0 -5.125q0 -2.984375 1.140625 -5.203125q1.140625 -2.21875 3.234375 -3.359375q2.109375 -1.15625 4.625 -1.15625q2.875 0 4.828125 1.46875q1.953125 1.453125 2.71875 4.09375l-2.484375 0.578125q-0.671875 -2.078125 -1.9375 -3.03125q-1.25 -0.953125 -3.171875 -0.953125q-2.203125 0 -3.6875 1.0625q-1.46875 1.046875 -2.0625 2.828125q-0.59375 1.78125 -0.59375 3.65625q0 2.4375 0.703125 4.265625q0.703125 1.8125 2.203125 2.71875q1.5 0.890625 3.25 0.890625q2.109375 0 3.578125 -1.21875q1.484375 -1.234375 2.0 -3.640625zm5.328369 6.6875l0 -19.078125l2.34375 0l0 6.84375q1.640625 -1.90625 4.140625 -1.90625q1.546875 0 2.671875 0.609375q1.140625 0.609375 1.625 1.671875q0.484375 1.0625 0.484375 3.09375l0 8.765625l-2.34375 0l0 -8.765625q0 -1.75 -0.765625 -2.546875q-0.75 -0.8125 -2.15625 -0.8125q-1.03125 0 -1.953125 0.546875q-0.921875 0.546875 -1.3125 1.46875q-0.390625 0.921875 -0.390625 2.546875l0 7.5625l-2.34375 0zm23.856201 -1.703125q-1.3125 1.109375 -2.515625 1.5625q-1.203125 0.453125 -2.578125 0.453125q-2.28125 0 -3.5 -1.109375q-1.21875 -1.109375 -1.21875 -2.84375q0 -1.015625 0.453125 -1.859375q0.46875 -0.84375 1.21875 -1.34375q0.75 -0.515625 1.6875 -0.765625q0.6875 -0.1875 2.078125 -0.359375q2.828125 -0.328125 4.171875 -0.796875q0.015625 -0.484375 0.015625 -0.625q0 -1.421875 -0.65625 -2.015625q-0.90625 -0.796875 -2.671875 -0.796875q-1.65625 0 -2.453125 0.59375q-0.78125 0.578125 -1.15625 2.046875l-2.296875 -0.3125q0.3125 -1.46875 1.03125 -2.375q0.71875 -0.90625 2.0625 -1.390625q1.359375 -0.5 3.140625 -0.5q1.78125 0 2.875 0.421875q1.109375 0.421875 1.625 1.046875q0.53125 0.625 0.734375 1.59375q0.125 0.59375 0.125 2.15625l0 3.125q0 3.265625 0.140625 4.140625q0.15625 0.859375 0.59375 1.65625l-2.4375 0q-0.375 -0.734375 -0.46875 -1.703125zm-0.203125 -5.234375q-1.265625 0.515625 -3.828125 0.890625q-1.4375 0.203125 -2.046875 0.46875q-0.59375 0.25 -0.921875 0.75q-0.3125 0.5 -0.3125 1.125q0 0.9375 0.703125 1.5625q0.703125 0.625 2.078125 0.625q1.34375 0 2.390625 -0.59375q1.0625 -0.59375 1.5625 -1.625q0.375 -0.796875 0.375 -2.34375l0 -0.859375zm5.996826 6.9375l0 -13.828125l2.109375 0l0 1.96875q1.53125 -2.28125 4.40625 -2.28125q1.25 0 2.296875 0.453125q1.046875 0.453125 1.5625 1.1875q0.53125 0.71875 0.734375 1.71875q0.125 0.65625 0.125 2.28125l0 8.5l-2.34375 0l0 -8.40625q0 -1.4375 -0.28125 -2.140625q-0.265625 -0.71875 -0.96875 -1.140625q-0.6875 -0.421875 -1.625 -0.421875q-1.484375 0 -2.578125 0.953125q-1.09375 0.953125 -1.09375 3.609375l0 7.546875l-2.34375 0zm14.824951 0l0 -13.828125l2.109375 0l0 1.96875q1.53125 -2.28125 4.40625 -2.28125q1.25 0 2.296875 0.453125q1.046875 0.453125 1.5625 1.1875q0.53125 0.71875 0.734375 1.71875q0.125 0.65625 0.125 2.28125l0 8.5l-2.34375 0l0 -8.40625q0 -1.4375 -0.28125 -2.140625q-0.265625 -0.71875 -0.96875 -1.140625q-0.6875 -0.421875 -1.625 -0.421875q-1.484375 0 -2.578125 0.953125q-1.09375 0.953125 -1.09375 3.609375l0 7.546875l-2.34375 0zm24.293701 -4.453125l2.421875 0.296875q-0.578125 2.125 -2.125 3.296875q-1.546875 1.171875 -3.953125 1.171875q-3.03125 0 -4.8125 -1.859375q-1.78125 -1.875 -1.78125 -5.25q0 -3.484375 1.796875 -5.40625q1.796875 -1.9375 4.671875 -1.9375q2.765625 0 4.515625 1.890625q1.765625 1.890625 1.765625 5.3125q0 0.203125 -0.015625 0.625l-10.3125 0q0.140625 2.28125 1.296875 3.5q1.15625 1.203125 2.890625 1.203125q1.28125 0 2.1875 -0.671875q0.921875 -0.6875 1.453125 -2.171875zm-7.6875 -3.78125l7.71875 0q-0.15625 -1.75 -0.890625 -2.625q-1.125 -1.34375 -2.90625 -1.34375q-1.609375 0 -2.71875 1.078125q-1.09375 1.078125 -1.203125 2.890625zm12.996826 8.234375l0 -19.078125l2.34375 0l0 19.078125l-2.34375 0z" fill-rule="nonzero"/><path fill="#ffffff" d="m661.3963 337.49475l275.67914 0l34.55713 34.55713l0 172.78143l-310.23627 0z" fill-rule="evenodd"/><path stroke="#000000" stroke-width="2.0" stroke-linejoin="round" stroke-linecap="butt" stroke-dasharray="8.0,6.0" d="m661.3963 337.49475l275.67914 0l34.55713 34.55713l0 172.78143l-310.23627 0z" fill-rule="evenodd"/><path fill="#000000" fill-opacity="0.0" d="m673.6667 381.31628l272.5039 0l0 56.75589l-272.5039 0z" fill-rule="evenodd"/><path fill="#000000" d="m684.7292 415.91626l0 -19.078125l7.1875 0q1.90625 0 2.90625 0.171875q1.40625 0.234375 2.359375 0.90625q0.953125 0.65625 1.53125 1.84375q0.578125 1.171875 0.578125 2.59375q0 2.4375 -1.5625 4.125q-1.546875 1.6875 -5.59375 1.6875l-4.890625 0l0 7.75l-2.515625 0zm2.515625 -10.015625l4.9375 0q2.453125 0 3.46875 -0.90625q1.03125 -0.90625 1.03125 -2.5625q0 -1.203125 -0.609375 -2.046875q-0.59375 -0.859375 -1.59375 -1.125q-0.625 -0.171875 -2.34375 -0.171875l-4.890625 0l0 6.8125zm14.93573 10.015625l0 -13.828125l2.109375 0l0 2.09375q0.796875 -1.46875 1.484375 -1.9375q0.6875 -0.46875 1.5 -0.46875q1.1875 0 2.40625 0.765625l-0.796875 2.171875q-0.859375 -0.515625 -1.71875 -0.515625q-0.765625 0 -1.390625 0.46875q-0.609375 0.453125 -0.859375 1.28125q-0.390625 1.25 -0.390625 2.734375l0 7.234375l-2.34375 0zm8.03302 -6.90625q0 -3.84375 2.125 -5.6875q1.78125 -1.546875 4.34375 -1.546875q2.859375 0 4.65625 1.875q1.8125 1.859375 1.8125 5.15625q0 2.671875 -0.796875 4.203125q-0.796875 1.53125 -2.328125 2.375q-1.53125 0.84375 -3.34375 0.84375q-2.890625 0 -4.6875 -1.859375q-1.78125 -1.859375 -1.78125 -5.359375zm2.40625 0q0 2.65625 1.15625 3.984375q1.15625 1.3125 2.90625 1.3125q1.75 0 2.90625 -1.328125q1.15625 -1.328125 1.15625 -4.046875q0 -2.5625 -1.171875 -3.890625q-1.15625 -1.328125 -2.890625 -1.328125q-1.75 0 -2.90625 1.328125q-1.15625 1.3125 -1.15625 3.96875zm11.715515 6.90625l5.0625 -7.1875l-4.671875 -6.640625l2.921875 0l2.125 3.25q0.59375 0.921875 0.96875 1.546875q0.5625 -0.859375 1.046875 -1.53125l2.328125 -3.265625l2.796875 0l-4.78125 6.515625l5.15625 7.3125l-2.890625 0l-2.828125 -4.296875l-0.75 -1.15625l-3.640625 5.453125l-2.84375 0zm14.796875 5.328125l-0.265625 -2.203125q0.765625 0.203125 1.34375 0.203125q0.78125 0 1.25 -0.265625q0.46875 -0.25 0.765625 -0.71875q0.21875 -0.359375 0.71875 -1.75q0.0625 -0.1875 0.203125 -0.5625l-5.25 -13.859375l2.53125 0l2.875 8.015625q0.5625 1.515625 1.0 3.203125q0.40625 -1.625 0.96875 -3.15625l2.953125 -8.0625l2.34375 0l-5.265625 14.0625q-0.84375 2.28125 -1.3125 3.140625q-0.625 1.15625 -1.4375 1.6875q-0.796875 0.546875 -1.921875 0.546875q-0.671875 0 -1.5 -0.28125zm21.14038 -5.328125l0 -19.078125l7.1875 0q1.90625 0 2.90625 0.171875q1.40625 0.234375 2.359375 0.90625q0.953125 0.65625 1.53125 1.84375q0.578125 1.171875 0.578125 2.59375q0 2.4375 -1.5625 4.125q-1.546875 1.6875 -5.59375 1.6875l-4.890625 0l0 7.75l-2.515625 0zm2.515625 -10.015625l4.9375 0q2.453125 0 3.46875 -0.90625q1.03125 -0.90625 1.03125 -2.5625q0 -1.203125 -0.609375 -2.046875q-0.59375 -0.859375 -1.59375 -1.125q-0.625 -0.171875 -2.34375 -0.171875l-4.890625 0l0 6.8125zm23.982605 8.3125q-1.3125 1.109375 -2.515625 1.5625q-1.203125 0.453125 -2.578125 0.453125q-2.28125 0 -3.5 -1.109375q-1.21875 -1.109375 -1.21875 -2.84375q0 -1.015625 0.453125 -1.859375q0.46875 -0.84375 1.21875 -1.34375q0.75 -0.515625 1.6875 -0.765625q0.6875 -0.1875 2.078125 -0.359375q2.828125 -0.328125 4.171875 -0.796875q0.015625 -0.484375 0.015625 -0.625q0 -1.421875 -0.65625 -2.015625q-0.90625 -0.796875 -2.671875 -0.796875q-1.65625 0 -2.453125 0.59375q-0.78125 0.578125 -1.15625 2.046875l-2.296875 -0.3125q0.3125 -1.46875 1.03125 -2.375q0.71875 -0.90625 2.0625 -1.390625q1.359375 -0.5 3.140625 -0.5q1.78125 0 2.875 0.421875q1.109375 0.421875 1.625 1.046875q0.53125 0.625 0.734375 1.59375q0.125 0.59375 0.125 2.15625l0 3.125q0 3.265625 0.140625 4.140625q0.15625 0.859375 0.59375 1.65625l-2.4375 0q-0.375 -0.734375 -0.46875 -1.703125zm-0.203125 -5.234375q-1.265625 0.515625 -3.828125 0.890625q-1.4375 0.203125 -2.046875 0.46875q-0.59375 0.25 -0.921875 0.75q-0.3125 0.5 -0.3125 1.125q0 0.9375 0.703125 1.5625q0.703125 0.625 2.078125 0.625q1.34375 0 2.390625 -0.59375q1.0625 -0.59375 1.5625 -1.625q0.375 -0.796875 0.375 -2.34375l0 -0.859375zm5.903076 12.265625l-0.265625 -2.203125q0.765625 0.203125 1.34375 0.203125q0.78125 0 1.25 -0.265625q0.46875 -0.25 0.765625 -0.71875q0.21875 -0.359375 0.71875 -1.75q0.0625 -0.1875 0.203125 -0.5625l-5.25 -13.859375l2.53125 0l2.875 8.015625q0.5625 1.515625 1.0 3.203125q0.40625 -1.625 0.96875 -3.15625l2.953125 -8.0625l2.34375 0l-5.265625 14.0625q-0.84375 2.28125 -1.3125 3.140625q-0.625 1.15625 -1.4375 1.6875q-0.796875 0.546875 -1.921875 0.546875q-0.671875 0 -1.5 -0.28125zm13.421875 -5.328125l0 -13.828125l2.109375 0l0 1.9375q0.640625 -1.015625 1.71875 -1.625q1.09375 -0.625 2.46875 -0.625q1.53125 0 2.515625 0.640625q0.984375 0.640625 1.390625 1.78125q1.640625 -2.421875 4.265625 -2.421875q2.0625 0 3.15625 1.140625q1.109375 1.140625 1.109375 3.515625l0 9.484375l-2.328125 0l0 -8.703125q0 -1.40625 -0.234375 -2.015625q-0.21875 -0.625 -0.828125 -1.0q-0.59375 -0.390625 -1.390625 -0.390625q-1.46875 0 -2.4375 0.96875q-0.953125 0.96875 -0.953125 3.109375l0 8.03125l-2.34375 0l0 -8.984375q0 -1.5625 -0.578125 -2.34375q-0.5625 -0.78125 -1.875 -0.78125q-0.984375 0 -1.828125 0.53125q-0.828125 0.515625 -1.21875 1.515625q-0.375 1.0 -0.375 2.890625l0 7.171875l-2.34375 0zm31.673584 -4.453125l2.421875 0.296875q-0.578125 2.125 -2.125 3.296875q-1.546875 1.171875 -3.953125 1.171875q-3.03125 0 -4.8125 -1.859375q-1.78125 -1.875 -1.78125 -5.25q0 -3.484375 1.796875 -5.40625q1.796875 -1.9375 4.671875 -1.9375q2.765625 0 4.515625 1.890625q1.765625 1.890625 1.765625 5.3125q0 0.203125 -0.015625 0.625l-10.3125 0q0.140625 2.28125 1.296875 3.5q1.15625 1.203125 2.890625 1.203125q1.28125 0 2.1875 -0.671875q0.921875 -0.6875 1.453125 -2.171875zm-7.6875 -3.78125l7.71875 0q-0.15625 -1.75 -0.890625 -2.625q-1.125 -1.34375 -2.90625 -1.34375q-1.609375 0 -2.71875 1.078125q-1.09375 1.078125 -1.203125 2.890625zm13.043701 8.234375l0 -13.828125l2.109375 0l0 1.96875q1.53125 -2.28125 4.40625 -2.28125q1.25 0 2.296875 0.453125q1.046875 0.453125 1.5625 1.1875q0.53125 0.71875 0.734375 1.71875q0.125 0.65625 0.125 2.28125l0 8.5l-2.34375 0l0 -8.40625q0 -1.4375 -0.28125 -2.140625q-0.265625 -0.71875 -0.96875 -1.140625q-0.6875 -0.421875 -1.625 -0.421875q-1.484375 0 -2.578125 0.953125q-1.09375 0.953125 -1.09375 3.609375l0 7.546875l-2.34375 0zm19.949951 -2.09375l0.328125 2.0625q-0.984375 0.21875 -1.765625 0.21875q-1.265625 0 -1.96875 -0.40625q-0.703125 -0.40625 -1.0 -1.0625q-0.28125 -0.65625 -0.28125 -2.765625l0 -7.953125l-1.71875 0l0 -1.828125l1.71875 0l0 -3.421875l2.328125 -1.40625l0 4.828125l2.359375 0l0 1.828125l-2.359375 0l0 8.078125q0 1.0 0.125 1.296875q0.125 0.28125 0.40625 0.453125q0.28125 0.171875 0.796875 0.171875q0.390625 0 1.03125 -0.09375z" fill-rule="nonzero"/><path fill="#000000" d="m698.33856 441.22876l2.53125 0.640625q-0.796875 3.109375 -2.859375 4.75q-2.0625 1.625 -5.046875 1.625q-3.09375 0 -5.03125 -1.25q-1.921875 -1.265625 -2.9375 -3.640625q-1.0 -2.390625 -1.0 -5.125q0 -2.984375 1.140625 -5.203125q1.140625 -2.21875 3.234375 -3.359375q2.109375 -1.15625 4.625 -1.15625q2.875 0 4.828125 1.46875q1.953125 1.453125 2.71875 4.09375l-2.484375 0.578125q-0.671875 -2.078125 -1.9375 -3.03125q-1.25 -0.953125 -3.171875 -0.953125q-2.203125 0 -3.6875 1.0625q-1.46875 1.046875 -2.0625 2.828125q-0.59375 1.78125 -0.59375 3.65625q0 2.4375 0.703125 4.265625q0.703125 1.8125 2.203125 2.71875q1.5 0.890625 3.25 0.890625q2.109375 0 3.578125 -1.21875q1.484375 -1.234375 2.0 -3.640625zm5.328369 6.6875l0 -19.078125l2.34375 0l0 6.84375q1.640625 -1.90625 4.140625 -1.90625q1.546875 0 2.671875 0.609375q1.140625 0.609375 1.625 1.671875q0.484375 1.0625 0.484375 3.09375l0 8.765625l-2.34375 0l0 -8.765625q0 -1.75 -0.765625 -2.546875q-0.75 -0.8125 -2.15625 -0.8125q-1.03125 0 -1.953125 0.546875q-0.921875 0.546875 -1.3125 1.46875q-0.390625 0.921875 -0.390625 2.546875l0 7.5625l-2.34375 0zm23.856201 -1.703125q-1.3125 1.109375 -2.515625 1.5625q-1.203125 0.453125 -2.578125 0.453125q-2.28125 0 -3.5 -1.109375q-1.21875 -1.109375 -1.21875 -2.84375q0 -1.015625 0.453125 -1.859375q0.46875 -0.84375 1.21875 -1.34375q0.75 -0.515625 1.6875 -0.765625q0.6875 -0.1875 2.078125 -0.359375q2.828125 -0.328125 4.171875 -0.796875q0.015625 -0.484375 0.015625 -0.625q0 -1.421875 -0.65625 -2.015625q-0.90625 -0.796875 -2.671875 -0.796875q-1.65625 0 -2.453125 0.59375q-0.78125 0.578125 -1.15625 2.046875l-2.296875 -0.3125q0.3125 -1.46875 1.03125 -2.375q0.71875 -0.90625 2.0625 -1.390625q1.359375 -0.5 3.140625 -0.5q1.78125 0 2.875 0.421875q1.109375 0.421875 1.625 1.046875q0.53125 0.625 0.734375 1.59375q0.125 0.59375 0.125 2.15625l0 3.125q0 3.265625 0.140625 4.140625q0.15625 0.859375 0.59375 1.65625l-2.4375 0q-0.375 -0.734375 -0.46875 -1.703125zm-0.203125 -5.234375q-1.265625 0.515625 -3.828125 0.890625q-1.4375 0.203125 -2.046875 0.46875q-0.59375 0.25 -0.921875 0.75q-0.3125 0.5 -0.3125 1.125q0 0.9375 0.703125 1.5625q0.703125 0.625 2.078125 0.625q1.34375 0 2.390625 -0.59375q1.0625 -0.59375 1.5625 -1.625q0.375 -0.796875 0.375 -2.34375l0 -0.859375zm5.996826 6.9375l0 -13.828125l2.109375 0l0 1.96875q1.53125 -2.28125 4.40625 -2.28125q1.25 0 2.296875 0.453125q1.046875 0.453125 1.5625 1.1875q0.53125 0.71875 0.734375 1.71875q0.125 0.65625 0.125 2.28125l0 8.5l-2.34375 0l0 -8.40625q0 -1.4375 -0.28125 -2.140625q-0.265625 -0.71875 -0.96875 -1.140625q-0.6875 -0.421875 -1.625 -0.421875q-1.484375 0 -2.578125 0.953125q-1.09375 0.953125 -1.09375 3.609375l0 7.546875l-2.34375 0zm14.824951 0l0 -13.828125l2.109375 0l0 1.96875q1.53125 -2.28125 4.40625 -2.28125q1.25 0 2.296875 0.453125q1.046875 0.453125 1.5625 1.1875q0.53125 0.71875 0.734375 1.71875q0.125 0.65625 0.125 2.28125l0 8.5l-2.34375 0l0 -8.40625q0 -1.4375 -0.28125 -2.140625q-0.265625 -0.71875 -0.96875 -1.140625q-0.6875 -0.421875 -1.625 -0.421875q-1.484375 0 -2.578125 0.953125q-1.09375 0.953125 -1.09375 3.609375l0 7.546875l-2.34375 0zm24.29364 -4.453125l2.421875 0.296875q-0.578125 2.125 -2.125 3.296875q-1.546875 1.171875 -3.953125 1.171875q-3.03125 0 -4.8125 -1.859375q-1.78125 -1.875 -1.78125 -5.25q0 -3.484375 1.796875 -5.40625q1.796875 -1.9375 4.671875 -1.9375q2.765625 0 4.515625 1.890625q1.765625 1.890625 1.765625 5.3125q0 0.203125 -0.015625 0.625l-10.3125 0q0.140625 2.28125 1.296875 3.5q1.15625 1.203125 2.890625 1.203125q1.28125 0 2.1875 -0.671875q0.921875 -0.6875 1.453125 -2.171875zm-7.6875 -3.78125l7.71875 0q-0.15625 -1.75 -0.890625 -2.625q-1.125 -1.34375 -2.90625 -1.34375q-1.609375 0 -2.71875 1.078125q-1.09375 1.078125 -1.203125 2.890625zm12.996826 8.234375l0 -19.078125l2.34375 0l0 19.078125l-2.34375 0z" fill-rule="nonzero"/><path fill="#ffffff" d="m1525.6234 337.49475l275.67908 0l34.55713 34.55713l0 172.78143l-310.2362 0z" fill-rule="evenodd"/><path stroke="#000000" stroke-width="2.0" stroke-linejoin="round" stroke-linecap="butt" stroke-dasharray="8.0,6.0" d="m1525.6234 337.49475l275.67908 0l34.55713 34.55713l0 172.78143l-310.2362 0z" fill-rule="evenodd"/><path fill="#000000" fill-opacity="0.0" d="m1537.8937 381.31628l272.5039 0l0 56.75589l-272.5039 0z" fill-rule="evenodd"/><path fill="#000000" d="m1548.9562 415.91626l0 -19.078125l7.1875 0q1.90625 0 2.90625 0.171875q1.40625 0.234375 2.359375 0.90625q0.953125 0.65625 1.53125 1.84375q0.578125 1.171875 0.578125 2.59375q0 2.4375 -1.5625 4.125q-1.546875 1.6875 -5.59375 1.6875l-4.890625 0l0 7.75l-2.515625 0zm2.515625 -10.015625l4.9375 0q2.453125 0 3.46875 -0.90625q1.03125 -0.90625 1.03125 -2.5625q0 -1.203125 -0.609375 -2.046875q-0.59375 -0.859375 -1.59375 -1.125q-0.625 -0.171875 -2.34375 -0.171875l-4.890625 0l0 6.8125zm14.935791 10.015625l0 -13.828125l2.109375 0l0 2.09375q0.796875 -1.46875 1.484375 -1.9375q0.6875 -0.46875 1.5 -0.46875q1.1875 0 2.40625 0.765625l-0.796875 2.171875q-0.859375 -0.515625 -1.71875 -0.515625q-0.765625 0 -1.390625 0.46875q-0.609375 0.453125 -0.859375 1.28125q-0.390625 1.25 -0.390625 2.734375l0 7.234375l-2.34375 0zm8.032959 -6.90625q0 -3.84375 2.125 -5.6875q1.78125 -1.546875 4.34375 -1.546875q2.859375 0 4.65625 1.875q1.8125 1.859375 1.8125 5.15625q0 2.671875 -0.796875 4.203125q-0.796875 1.53125 -2.328125 2.375q-1.53125 0.84375 -3.34375 0.84375q-2.890625 0 -4.6875 -1.859375q-1.78125 -1.859375 -1.78125 -5.359375zm2.40625 0q0 2.65625 1.15625 3.984375q1.15625 1.3125 2.90625 1.3125q1.75 0 2.90625 -1.328125q1.15625 -1.328125 1.15625 -4.046875q0 -2.5625 -1.171875 -3.890625q-1.15625 -1.328125 -2.890625 -1.328125q-1.75 0 -2.90625 1.328125q-1.15625 1.3125 -1.15625 3.96875zm11.715576 6.90625l5.0625 -7.1875l-4.671875 -6.640625l2.921875 0l2.125 3.25q0.59375 0.921875 0.96875 1.546875q0.5625 -0.859375 1.046875 -1.53125l2.328125 -3.265625l2.796875 0l-4.78125 6.515625l5.15625 7.3125l-2.890625 0l-2.828125 -4.296875l-0.75 -1.15625l-3.640625 5.453125l-2.84375 0zm14.796875 5.328125l-0.265625 -2.203125q0.765625 0.203125 1.34375 0.203125q0.78125 0 1.25 -0.265625q0.46875 -0.25 0.765625 -0.71875q0.21875 -0.359375 0.71875 -1.75q0.0625 -0.1875 0.203125 -0.5625l-5.25 -13.859375l2.53125 0l2.875 8.015625q0.5625 1.515625 1.0 3.203125q0.40625 -1.625 0.96875 -3.15625l2.953125 -8.0625l2.34375 0l-5.265625 14.0625q-0.84375 2.28125 -1.3125 3.140625q-0.625 1.15625 -1.4375 1.6875q-0.796875 0.546875 -1.921875 0.546875q-0.671875 0 -1.5 -0.28125zm21.14038 -5.328125l0 -19.078125l7.1875 0q1.90625 0 2.90625 0.171875q1.40625 0.234375 2.359375 0.90625q0.953125 0.65625 1.53125 1.84375q0.578125 1.171875 0.578125 2.59375q0 2.4375 -1.5625 4.125q-1.546875 1.6875 -5.59375 1.6875l-4.890625 0l0 7.75l-2.515625 0zm2.515625 -10.015625l4.9375 0q2.453125 0 3.46875 -0.90625q1.03125 -0.90625 1.03125 -2.5625q0 -1.203125 -0.609375 -2.046875q-0.59375 -0.859375 -1.59375 -1.125q-0.625 -0.171875 -2.34375 -0.171875l-4.890625 0l0 6.8125zm23.982544 8.3125q-1.3125 1.109375 -2.515625 1.5625q-1.203125 0.453125 -2.578125 0.453125q-2.28125 0 -3.5 -1.109375q-1.21875 -1.109375 -1.21875 -2.84375q0 -1.015625 0.453125 -1.859375q0.46875 -0.84375 1.21875 -1.34375q0.75 -0.515625 1.6875 -0.765625q0.6875 -0.1875 2.078125 -0.359375q2.828125 -0.328125 4.171875 -0.796875q0.015625 -0.484375 0.015625 -0.625q0 -1.421875 -0.65625 -2.015625q-0.90625 -0.796875 -2.671875 -0.796875q-1.65625 0 -2.453125 0.59375q-0.78125 0.578125 -1.15625 2.046875l-2.296875 -0.3125q0.3125 -1.46875 1.03125 -2.375q0.71875 -0.90625 2.0625 -1.390625q1.359375 -0.5 3.140625 -0.5q1.78125 0 2.875 0.421875q1.109375 0.421875 1.625 1.046875q0.53125 0.625 0.734375 1.59375q0.125 0.59375 0.125 2.15625l0 3.125q0 3.265625 0.140625 4.140625q0.15625 0.859375 0.59375 1.65625l-2.4375 0q-0.375 -0.734375 -0.46875 -1.703125zm-0.203125 -5.234375q-1.265625 0.515625 -3.828125 0.890625q-1.4375 0.203125 -2.046875 0.46875q-0.59375 0.25 -0.921875 0.75q-0.3125 0.5 -0.3125 1.125q0 0.9375 0.703125 1.5625q0.703125 0.625 2.078125 0.625q1.34375 0 2.390625 -0.59375q1.0625 -0.59375 1.5625 -1.625q0.375 -0.796875 0.375 -2.34375l0 -0.859375zm5.903076 12.265625l-0.265625 -2.203125q0.765625 0.203125 1.34375 0.203125q0.78125 0 1.25 -0.265625q0.46875 -0.25 0.765625 -0.71875q0.21875 -0.359375 0.71875 -1.75q0.0625 -0.1875 0.203125 -0.5625l-5.25 -13.859375l2.53125 0l2.875 8.015625q0.5625 1.515625 1.0 3.203125q0.40625 -1.625 0.96875 -3.15625l2.953125 -8.0625l2.34375 0l-5.265625 14.0625q-0.84375 2.28125 -1.3125 3.140625q-0.625 1.15625 -1.4375 1.6875q-0.796875 0.546875 -1.921875 0.546875q-0.671875 0 -1.5 -0.28125zm13.421875 -5.328125l0 -13.828125l2.109375 0l0 1.9375q0.640625 -1.015625 1.71875 -1.625q1.09375 -0.625 2.46875 -0.625q1.53125 0 2.515625 0.640625q0.984375 0.640625 1.390625 1.78125q1.640625 -2.421875 4.265625 -2.421875q2.0625 0 3.15625 1.140625q1.109375 1.140625 1.109375 3.515625l0 9.484375l-2.328125 0l0 -8.703125q0 -1.40625 -0.234375 -2.015625q-0.21875 -0.625 -0.828125 -1.0q-0.59375 -0.390625 -1.390625 -0.390625q-1.46875 0 -2.4375 0.96875q-0.953125 0.96875 -0.953125 3.109375l0 8.03125l-2.34375 0l0 -8.984375q0 -1.5625 -0.578125 -2.34375q-0.5625 -0.78125 -1.875 -0.78125q-0.984375 0 -1.828125 0.53125q-0.828125 0.515625 -1.21875 1.515625q-0.375 1.0 -0.375 2.890625l0 7.171875l-2.34375 0zm31.673706 -4.453125l2.421875 0.296875q-0.578125 2.125 -2.125 3.296875q-1.546875 1.171875 -3.953125 1.171875q-3.03125 0 -4.8125 -1.859375q-1.78125 -1.875 -1.78125 -5.25q0 -3.484375 1.796875 -5.40625q1.796875 -1.9375 4.671875 -1.9375q2.765625 0 4.515625 1.890625q1.765625 1.890625 1.765625 5.3125q0 0.203125 -0.015625 0.625l-10.3125 0q0.140625 2.28125 1.296875 3.5q1.15625 1.203125 2.890625 1.203125q1.28125 0 2.1875 -0.671875q0.921875 -0.6875 1.453125 -2.171875zm-7.6875 -3.78125l7.71875 0q-0.15625 -1.75 -0.890625 -2.625q-1.125 -1.34375 -2.90625 -1.34375q-1.609375 0 -2.71875 1.078125q-1.09375 1.078125 -1.203125 2.890625zm13.043579 8.234375l0 -13.828125l2.109375 0l0 1.96875q1.53125 -2.28125 4.40625 -2.28125q1.25 0 2.296875 0.453125q1.046875 0.453125 1.5625 1.1875q0.53125 0.71875 0.734375 1.71875q0.125 0.65625 0.125 2.28125l0 8.5l-2.34375 0l0 -8.40625q0 -1.4375 -0.28125 -2.140625q-0.265625 -0.71875 -0.96875 -1.140625q-0.6875 -0.421875 -1.625 -0.421875q-1.484375 0 -2.578125 0.953125q-1.09375 0.953125 -1.09375 3.609375l0 7.546875l-2.34375 0zm19.949951 -2.09375l0.328125 2.0625q-0.984375 0.21875 -1.765625 0.21875q-1.265625 0 -1.96875 -0.40625q-0.703125 -0.40625 -1.0 -1.0625q-0.28125 -0.65625 -0.28125 -2.765625l0 -7.953125l-1.71875 0l0 -1.828125l1.71875 0l0 -3.421875l2.328125 -1.40625l0 4.828125l2.359375 0l0 1.828125l-2.359375 0l0 8.078125q0 1.0 0.125 1.296875q0.125 0.28125 0.40625 0.453125q0.28125 0.171875 0.796875 0.171875q0.390625 0 1.03125 -0.09375z" fill-rule="nonzero"/><path fill="#000000" d="m1562.5656 441.22876l2.53125 0.640625q-0.796875 3.109375 -2.859375 4.75q-2.0625 1.625 -5.046875 1.625q-3.09375 0 -5.03125 -1.25q-1.921875 -1.265625 -2.9375 -3.640625q-1.0 -2.390625 -1.0 -5.125q0 -2.984375 1.140625 -5.203125q1.140625 -2.21875 3.234375 -3.359375q2.109375 -1.15625 4.625 -1.15625q2.875 0 4.828125 1.46875q1.953125 1.453125 2.71875 4.09375l-2.484375 0.578125q-0.671875 -2.078125 -1.9375 -3.03125q-1.25 -0.953125 -3.171875 -0.953125q-2.203125 0 -3.6875 1.0625q-1.46875 1.046875 -2.0625 2.828125q-0.59375 1.78125 -0.59375 3.65625q0 2.4375 0.703125 4.265625q0.703125 1.8125 2.203125 2.71875q1.5 0.890625 3.25 0.890625q2.109375 0 3.578125 -1.21875q1.484375 -1.234375 2.0 -3.640625zm5.328491 6.6875l0 -19.078125l2.34375 0l0 6.84375q1.640625 -1.90625 4.140625 -1.90625q1.546875 0 2.671875 0.609375q1.140625 0.609375 1.625 1.671875q0.484375 1.0625 0.484375 3.09375l0 8.765625l-2.34375 0l0 -8.765625q0 -1.75 -0.765625 -2.546875q-0.75 -0.8125 -2.15625 -0.8125q-1.03125 0 -1.953125 0.546875q-0.921875 0.546875 -1.3125 1.46875q-0.390625 0.921875 -0.390625 2.546875l0 7.5625l-2.34375 0zm23.85608 -1.703125q-1.3125 1.109375 -2.515625 1.5625q-1.203125 0.453125 -2.578125 0.453125q-2.28125 0 -3.5 -1.109375q-1.21875 -1.109375 -1.21875 -2.84375q0 -1.015625 0.453125 -1.859375q0.46875 -0.84375 1.21875 -1.34375q0.75 -0.515625 1.6875 -0.765625q0.6875 -0.1875 2.078125 -0.359375q2.828125 -0.328125 4.171875 -0.796875q0.015625 -0.484375 0.015625 -0.625q0 -1.421875 -0.65625 -2.015625q-0.90625 -0.796875 -2.671875 -0.796875q-1.65625 0 -2.453125 0.59375q-0.78125 0.578125 -1.15625 2.046875l-2.296875 -0.3125q0.3125 -1.46875 1.03125 -2.375q0.71875 -0.90625 2.0625 -1.390625q1.359375 -0.5 3.140625 -0.5q1.78125 0 2.875 0.421875q1.109375 0.421875 1.625 1.046875q0.53125 0.625 0.734375 1.59375q0.125 0.59375 0.125 2.15625l0 3.125q0 3.265625 0.140625 4.140625q0.15625 0.859375 0.59375 1.65625l-2.4375 0q-0.375 -0.734375 -0.46875 -1.703125zm-0.203125 -5.234375q-1.265625 0.515625 -3.828125 0.890625q-1.4375 0.203125 -2.046875 0.46875q-0.59375 0.25 -0.921875 0.75q-0.3125 0.5 -0.3125 1.125q0 0.9375 0.703125 1.5625q0.703125 0.625 2.078125 0.625q1.34375 0 2.390625 -0.59375q1.0625 -0.59375 1.5625 -1.625q0.375 -0.796875 0.375 -2.34375l0 -0.859375zm5.996826 6.9375l0 -13.828125l2.109375 0l0 1.96875q1.53125 -2.28125 4.40625 -2.28125q1.25 0 2.296875 0.453125q1.046875 0.453125 1.5625 1.1875q0.53125 0.71875 0.734375 1.71875q0.125 0.65625 0.125 2.28125l0 8.5l-2.34375 0l0 -8.40625q0 -1.4375 -0.28125 -2.140625q-0.265625 -0.71875 -0.96875 -1.140625q-0.6875 -0.421875 -1.625 -0.421875q-1.484375 0 -2.578125 0.953125q-1.09375 0.953125 -1.09375 3.609375l0 7.546875l-2.34375 0zm14.824951 0l0 -13.828125l2.109375 0l0 1.96875q1.53125 -2.28125 4.40625 -2.28125q1.25 0 2.296875 0.453125q1.046875 0.453125 1.5625 1.1875q0.53125 0.71875 0.734375 1.71875q0.125 0.65625 0.125 2.28125l0 8.5l-2.34375 0l0 -8.40625q0 -1.4375 -0.28125 -2.140625q-0.265625 -0.71875 -0.96875 -1.140625q-0.6875 -0.421875 -1.625 -0.421875q-1.484375 0 -2.578125 0.953125q-1.09375 0.953125 -1.09375 3.609375l0 7.546875l-2.34375 0zm24.293701 -4.453125l2.421875 0.296875q-0.578125 2.125 -2.125 3.296875q-1.546875 1.171875 -3.953125 1.171875q-3.03125 0 -4.8125 -1.859375q-1.78125 -1.875 -1.78125 -5.25q0 -3.484375 1.796875 -5.40625q1.796875 -1.9375 4.671875 -1.9375q2.765625 0 4.515625 1.890625q1.765625 1.890625 1.765625 5.3125q0 0.203125 -0.015625 0.625l-10.3125 0q0.140625 2.28125 1.296875 3.5q1.15625 1.203125 2.890625 1.203125q1.28125 0 2.1875 -0.671875q0.921875 -0.6875 1.453125 -2.171875zm-7.6875 -3.78125l7.71875 0q-0.15625 -1.75 -0.890625 -2.625q-1.125 -1.34375 -2.90625 -1.34375q-1.609375 0 -2.71875 1.078125q-1.09375 1.078125 -1.203125 2.890625zm12.996826 8.234375l0 -19.078125l2.34375 0l0 19.078125l-2.34375 0z" fill-rule="nonzero"/><path fill="#000000" fill-opacity="0.0" d="m389.13254 337.49475l-1.0393677 -200.7559" fill-rule="evenodd"/><path stroke="#000000" stroke-width="3.0" stroke-linejoin="round" stroke-linecap="butt" d="m389.13254 337.49475l-1.0393677 -200.7559" fill-rule="evenodd"/><path fill="#000000" fill-opacity="0.0" d="m816.51447 337.49475l-0.09454346 -202.77165" fill-rule="evenodd"/><path stroke="#000000" stroke-width="3.0" stroke-linejoin="round" stroke-linecap="butt" d="m816.51447 337.49475l-0.09454346 -202.77165" fill-rule="evenodd"/><path fill="#000000" fill-opacity="0.0" d="m1243.8964 337.49475l-1.1654053 -202.77165" fill-rule="evenodd"/><path stroke="#000000" stroke-width="3.0" stroke-linejoin="round" stroke-linecap="butt" d="m1243.8964 337.49475l-1.1654053 -202.77165" fill-rule="evenodd"/><path fill="#000000" fill-opacity="0.0" d="m1680.7415 337.49475l-1.5748291 -204.7874" fill-rule="evenodd"/><path stroke="#000000" stroke-width="3.0" stroke-linejoin="round" stroke-linecap="butt" d="m1680.7415 337.49475l-1.5748291 -204.7874" fill-rule="evenodd"/><path fill="#ffffff" d="m873.5512 699.8832l275.67902 0l34.55713 34.55713l0 172.7815l-310.23615 0z" fill-rule="evenodd"/><path stroke="#000000" stroke-width="2.0" stroke-linejoin="round" stroke-linecap="butt" stroke-dasharray="8.0,6.0" d="m873.5512 699.8832l275.67902 0l34.55713 34.55713l0 172.7815l-310.23615 0z" fill-rule="evenodd"/><path fill="#000000" fill-opacity="0.0" d="m885.82153 743.7047l272.5039 0l0 56.75592l-272.5039 0z" fill-rule="evenodd"/><path fill="#000000" d="m894.7903 778.30475l7.3125 -19.078125l2.734375 0l7.796875 19.078125l-2.875 0l-2.21875 -5.78125l-7.984375 0l-2.09375 5.78125l-2.671875 0zm5.5 -7.828125l6.46875 0l-2.0 -5.296875q-0.90625 -2.40625 -1.34375 -3.953125q-0.375 1.84375 -1.03125 3.640625l-2.09375 5.609375zm14.013855 7.828125l0 -19.078125l2.34375 0l0 19.078125l-2.34375 0zm5.98468 -16.390625l0 -2.6875l2.34375 0l0 2.6875l-2.34375 0zm0 16.390625l0 -13.828125l2.34375 0l0 13.828125l-2.34375 0zm14.937805 -5.0625l2.296875 0.296875q-0.375 2.390625 -1.9375 3.734375q-1.546875 1.34375 -3.8125 1.34375q-2.84375 0 -4.5625 -1.84375q-1.71875 -1.859375 -1.71875 -5.328125q0 -2.234375 0.734375 -3.90625q0.75 -1.6875 2.265625 -2.53125q1.515625 -0.84375 3.296875 -0.84375q2.25 0 3.671875 1.140625q1.4375 1.140625 1.84375 3.234375l-2.28125 0.359375q-0.328125 -1.390625 -1.15625 -2.09375q-0.8125 -0.703125 -1.984375 -0.703125q-1.78125 0 -2.890625 1.265625q-1.09375 1.265625 -1.09375 4.015625q0 2.78125 1.0625 4.046875q1.0625 1.265625 2.78125 1.265625q1.390625 0 2.3125 -0.84375q0.921875 -0.859375 1.171875 -2.609375zm13.765625 0.609375l2.421875 0.296875q-0.578125 2.125 -2.125 3.296875q-1.546875 1.171875 -3.953125 1.171875q-3.03125 0 -4.8125 -1.859375q-1.78125 -1.875 -1.78125 -5.25q0 -3.484375 1.796875 -5.40625q1.796875 -1.9375 4.671875 -1.9375q2.765625 0 4.515625 1.890625q1.765625 1.890625 1.765625 5.3125q0 0.203125 -0.015625 0.625l-10.3125 0q0.140625 2.28125 1.296875 3.5q1.15625 1.203125 2.890625 1.203125q1.28125 0 2.1875 -0.671875q0.921875 -0.6875 1.453125 -2.171875zm-7.6875 -3.78125l7.71875 0q-0.15625 -1.75 -0.890625 -2.625q-1.125 -1.34375 -2.90625 -1.34375q-1.609375 0 -2.71875 1.078125q-1.09375 1.078125 -1.203125 2.890625zm12.137451 2.5l0 -2.34375l7.203125 0l0 2.34375l-7.203125 0zm9.986084 5.734375l0 -19.078125l7.15625 0q2.1875 0 3.5 0.578125q1.328125 0.578125 2.078125 1.78125q0.75 1.203125 0.75 2.515625q0 1.21875 -0.671875 2.3125q-0.65625 1.078125 -2.0 1.734375q1.734375 0.515625 2.65625 1.734375q0.9375 1.21875 0.9375 2.890625q0 1.34375 -0.5625 2.5q-0.5625 1.140625 -1.40625 1.765625q-0.828125 0.625 -2.09375 0.953125q-1.25 0.3125 -3.0625 0.3125l-7.28125 0zm2.53125 -11.0625l4.125 0q1.671875 0 2.40625 -0.21875q0.953125 -0.296875 1.4375 -0.953125q0.5 -0.671875 0.5 -1.671875q0 -0.9375 -0.453125 -1.65625q-0.453125 -0.734375 -1.3125 -1.0q-0.84375 -0.265625 -2.890625 -0.265625l-3.8125 0l0 5.765625zm0 8.8125l4.75 0q1.21875 0 1.71875 -0.09375q0.859375 -0.15625 1.4375 -0.515625q0.59375 -0.375 0.96875 -1.0625q0.390625 -0.703125 0.390625 -1.609375q0 -1.0625 -0.546875 -1.84375q-0.546875 -0.796875 -1.515625 -1.109375q-0.96875 -0.328125 -2.796875 -0.328125l-4.40625 0l0 6.5625zm14.185791 -4.65625q0 -3.84375 2.125 -5.6875q1.78125 -1.546875 4.34375 -1.546875q2.859375 0 4.65625 1.875q1.8125 1.859375 1.8125 5.15625q0 2.671875 -0.796875 4.203125q-0.796875 1.53125 -2.328125 2.375q-1.53125 0.84375 -3.34375 0.84375q-2.890625 0 -4.6875 -1.859375q-1.78125 -1.859375 -1.78125 -5.359375zm2.40625 0q0 2.65625 1.15625 3.984375q1.15625 1.3125 2.90625 1.3125q1.75 0 2.90625 -1.328125q1.15625 -1.328125 1.15625 -4.046875q0 -2.5625 -1.171875 -3.890625q-1.15625 -1.328125 -2.890625 -1.328125q-1.75 0 -2.90625 1.328125q-1.15625 1.3125 -1.15625 3.96875zm15.44989 6.90625l-2.171875 0l0 -19.078125l2.34375 0l0 6.796875q1.484375 -1.859375 3.78125 -1.859375q1.28125 0 2.40625 0.515625q1.140625 0.515625 1.875 1.453125q0.75 0.921875 1.15625 2.25q0.421875 1.3125 0.421875 2.796875q0 3.5625 -1.765625 5.5q-1.75 1.9375 -4.21875 1.9375q-2.4375 0 -3.828125 -2.046875l0 1.734375zm-0.03125 -7.015625q0 2.484375 0.671875 3.59375q1.109375 1.8125 3.0 1.8125q1.53125 0 2.65625 -1.328125q1.125 -1.34375 1.125 -3.984375q0 -2.703125 -1.078125 -3.984375q-1.078125 -1.296875 -2.59375 -1.296875q-1.546875 0 -2.671875 1.328125q-1.109375 1.328125 -1.109375 3.859375zm20.402771 7.015625l0 -19.078125l7.187561 0q1.90625 0 2.90625 0.171875q1.40625 0.234375 2.359375 0.90625q0.953125 0.65625 1.53125 1.84375q0.578125 1.171875 0.578125 2.59375q0 2.4375 -1.5625 4.125q-1.546875 1.6875 -5.59375 1.6875l-4.890686 0l0 7.75l-2.515625 0zm2.515625 -10.015625l4.937561 0q2.453125 0 3.46875 -0.90625q1.03125 -0.90625 1.03125 -2.5625q0 -1.203125 -0.609375 -2.046875q-0.59375 -0.859375 -1.59375 -1.125q-0.625 -0.171875 -2.34375 -0.171875l-4.890686 0l0 6.8125zm23.982605 8.3125q-1.3125 1.109375 -2.515625 1.5625q-1.203125 0.453125 -2.578125 0.453125q-2.28125 0 -3.5 -1.109375q-1.21875 -1.109375 -1.21875 -2.84375q0 -1.015625 0.453125 -1.859375q0.46875 -0.84375 1.21875 -1.34375q0.75 -0.515625 1.6875 -0.765625q0.6875 -0.1875 2.078125 -0.359375q2.828125 -0.328125 4.171875 -0.796875q0.015625 -0.484375 0.015625 -0.625q0 -1.421875 -0.65625 -2.015625q-0.90625 -0.796875 -2.671875 -0.796875q-1.65625 0 -2.453125 0.59375q-0.78125 0.578125 -1.15625 2.046875l-2.296875 -0.3125q0.3125 -1.46875 1.03125 -2.375q0.71875 -0.90625 2.0625 -1.390625q1.359375 -0.5 3.140625 -0.5q1.78125 0 2.875 0.421875q1.109375 0.421875 1.625 1.046875q0.53125 0.625 0.734375 1.59375q0.125 0.59375 0.125 2.15625l0 3.125q0 3.265625 0.140625 4.140625q0.15625 0.859375 0.59375 1.65625l-2.4375 0q-0.375 -0.734375 -0.46875 -1.703125zm-0.203125 -5.234375q-1.265625 0.515625 -3.828125 0.890625q-1.4375 0.203125 -2.046875 0.46875q-0.59375 0.25 -0.921875 0.75q-0.3125 0.5 -0.3125 1.125q0 0.9375 0.703125 1.5625q0.703125 0.625 2.078125 0.625q1.34375 0 2.390625 -0.59375q1.0625 -0.59375 1.5625 -1.625q0.375 -0.796875 0.375 -2.34375l0 -0.859375zm5.903076 12.265625l-0.265625 -2.203125q0.765625 0.203125 1.34375 0.203125q0.78125 0 1.25 -0.265625q0.46875 -0.25 0.765625 -0.71875q0.21875 -0.359375 0.71875 -1.75q0.0625 -0.1875 0.203125 -0.5625l-5.25 -13.859375l2.53125 0l2.875 8.015625q0.5625 1.515625 1.0 3.203125q0.40625 -1.625 0.96875 -3.15625l2.953125 -8.0625l2.34375 0l-5.265625 14.0625q-0.84375 2.28125 -1.3125 3.140625q-0.625 1.15625 -1.4375 1.6875q-0.796875 0.546875 -1.921875 0.546875q-0.671875 0 -1.5 -0.28125zm13.421875 -5.328125l0 -13.828125l2.109375 0l0 1.9375q0.640625 -1.015625 1.71875 -1.625q1.09375 -0.625 2.46875 -0.625q1.53125 0 2.515625 0.640625q0.984375 0.640625 1.390625 1.78125q1.640625 -2.421875 4.265625 -2.421875q2.0625 0 3.15625 1.140625q1.109375 1.140625 1.109375 3.515625l0 9.484375l-2.328125 0l0 -8.703125q0 -1.40625 -0.234375 -2.015625q-0.21875 -0.625 -0.828125 -1.0q-0.59375 -0.390625 -1.390625 -0.390625q-1.46875 0 -2.4375 0.96875q-0.953125 0.96875 -0.953125 3.109375l0 8.03125l-2.34375 0l0 -8.984375q0 -1.5625 -0.578125 -2.34375q-0.5625 -0.78125 -1.875 -0.78125q-0.984375 0 -1.828125 0.53125q-0.828125 0.515625 -1.21875 1.515625q-0.375 1.0 -0.375 2.890625l0 7.171875l-2.34375 0zm31.673706 -4.453125l2.421875 0.296875q-0.578125 2.125 -2.125 3.296875q-1.546875 1.171875 -3.953125 1.171875q-3.03125 0 -4.8125 -1.859375q-1.78125 -1.875 -1.78125 -5.25q0 -3.484375 1.796875 -5.40625q1.796875 -1.9375 4.671875 -1.9375q2.765625 0 4.515625 1.890625q1.765625 1.890625 1.765625 5.3125q0 0.203125 -0.015625 0.625l-10.3125 0q0.140625 2.28125 1.296875 3.5q1.15625 1.203125 2.890625 1.203125q1.28125 0 2.1875 -0.671875q0.921875 -0.6875 1.453125 -2.171875zm-7.6875 -3.78125l7.71875 0q-0.15625 -1.75 -0.890625 -2.625q-1.125 -1.34375 -2.90625 -1.34375q-1.609375 0 -2.71875 1.078125q-1.09375 1.078125 -1.203125 2.890625zm13.043579 8.234375l0 -13.828125l2.109375 0l0 1.96875q1.53125 -2.28125 4.40625 -2.28125q1.25 0 2.296875 0.453125q1.046875 0.453125 1.5625 1.1875q0.53125 0.71875 0.734375 1.71875q0.125 0.65625 0.125 2.28125l0 8.5l-2.34375 0l0 -8.40625q0 -1.4375 -0.28125 -2.140625q-0.265625 -0.71875 -0.96875 -1.140625q-0.6875 -0.421875 -1.625 -0.421875q-1.484375 0 -2.578125 0.953125q-1.09375 0.953125 -1.09375 3.609375l0 7.546875l-2.34375 0zm19.949951 -2.09375l0.328125 2.0625q-0.984375 0.21875 -1.765625 0.21875q-1.265625 0 -1.96875 -0.40625q-0.703125 -0.40625 -1.0 -1.0625q-0.28125 -0.65625 -0.28125 -2.765625l0 -7.953125l-1.71875 0l0 -1.828125l1.71875 0l0 -3.421875l2.328125 -1.40625l0 4.828125l2.359375 0l0 1.828125l-2.359375 0l0 8.078125q0 1.0 0.125 1.296875q0.125 0.28125 0.40625 0.453125q0.28125 0.171875 0.796875 0.171875q0.390625 0 1.03125 -0.09375z" fill-rule="nonzero"/><path fill="#000000" d="m910.4934 803.61725l2.53125 0.640625q-0.796875 3.109375 -2.859375 4.75q-2.0625 1.625 -5.046875 1.625q-3.09375 0 -5.03125 -1.25q-1.921875 -1.265625 -2.9375 -3.640625q-1.0 -2.390625 -1.0 -5.125q0 -2.984375 1.140625 -5.203125q1.140625 -2.21875 3.234375 -3.359375q2.109375 -1.15625 4.625 -1.15625q2.875 0 4.828125 1.46875q1.953125 1.453125 2.71875 4.09375l-2.484375 0.578125q-0.671875 -2.078125 -1.9375 -3.03125q-1.25 -0.953125 -3.171875 -0.953125q-2.203125 0 -3.6875 1.0625q-1.46875 1.046875 -2.0625 2.828125q-0.59375 1.78125 -0.59375 3.65625q0 2.4375 0.703125 4.265625q0.703125 1.8125 2.203125 2.71875q1.5 0.890625 3.25 0.890625q2.109375 0 3.578125 -1.21875q1.484375 -1.234375 2.0 -3.640625zm4.469055 -0.21875q0 -3.84375 2.125 -5.6875q1.78125 -1.546875 4.34375 -1.546875q2.859375 0 4.65625 1.875q1.8125 1.859375 1.8125 5.15625q0 2.671875 -0.796875 4.203125q-0.796875 1.53125 -2.328125 2.375q-1.53125 0.84375 -3.34375 0.84375q-2.890625 0 -4.6875 -1.859375q-1.78125 -1.859375 -1.78125 -5.359375zm2.40625 0q0 2.65625 1.15625 3.984375q1.15625 1.3125 2.90625 1.3125q1.75 0 2.90625 -1.328125q1.15625 -1.328125 1.15625 -4.046875q0 -2.5625 -1.171875 -3.890625q-1.15625 -1.328125 -2.890625 -1.328125q-1.75 0 -2.90625 1.328125q-1.15625 1.3125 -1.15625 3.96875zm22.340515 6.90625l0 -2.03125q-1.609375 2.34375 -4.375 2.34375q-1.234375 0 -2.296875 -0.46875q-1.0625 -0.46875 -1.578125 -1.171875q-0.5 -0.71875 -0.71875 -1.75q-0.140625 -0.6875 -0.140625 -2.1875l0 -8.5625l2.34375 0l0 7.671875q0 1.828125 0.140625 2.46875q0.21875 0.921875 0.9375 1.453125q0.71875 0.53125 1.765625 0.53125q1.0625 0 1.984375 -0.53125q0.921875 -0.546875 1.296875 -1.46875q0.390625 -0.9375 0.390625 -2.71875l0 -7.40625l2.34375 0l0 13.828125l-2.09375 0zm5.762451 0l0 -13.828125l2.109375 0l0 1.96875q1.53125 -2.28125 4.40625 -2.28125q1.25 0 2.296875 0.453125q1.046875 0.453125 1.5625 1.1875q0.53125 0.71875 0.734375 1.71875q0.125 0.65625 0.125 2.28125l0 8.5l-2.34375 0l0 -8.40625q0 -1.4375 -0.28125 -2.140625q-0.265625 -0.71875 -0.96875 -1.140625q-0.6875 -0.421875 -1.625 -0.421875q-1.484375 0 -2.578125 0.953125q-1.09375 0.953125 -1.09375 3.609375l0 7.546875l-2.34375 0zm19.949951 -2.09375l0.328125 2.0625q-0.984375 0.21875 -1.765625 0.21875q-1.265625 0 -1.96875 -0.40625q-0.703125 -0.40625 -1.0 -1.0625q-0.28125 -0.65625 -0.28125 -2.765625l0 -7.953125l-1.71875 0l0 -1.828125l1.71875 0l0 -3.421875l2.328125 -1.40625l0 4.828125l2.359375 0l0 1.828125l-2.359375 0l0 8.078125q0 1.0 0.125 1.296875q0.125 0.28125 0.40625 0.453125q0.28125 0.171875 0.796875 0.171875q0.390625 0 1.03125 -0.09375zm11.749695 -2.359375l2.421875 0.296875q-0.578125 2.125 -2.125 3.296875q-1.546875 1.171875 -3.953125 1.171875q-3.03125 0 -4.8125 -1.859375q-1.78125 -1.875 -1.78125 -5.25q0 -3.484375 1.796875 -5.40625q1.796875 -1.9375 4.671875 -1.9375q2.765625 0 4.515625 1.890625q1.765625 1.890625 1.765625 5.3125q0 0.203125 -0.015625 0.625l-10.3125 0q0.140625 2.28125 1.296875 3.5q1.15625 1.203125 2.890625 1.203125q1.28125 0 2.1875 -0.671875q0.921875 -0.6875 1.453125 -2.171875zm-7.6875 -3.78125l7.71875 0q-0.15625 -1.75 -0.890625 -2.625q-1.125 -1.34375 -2.90625 -1.34375q-1.609375 0 -2.71875 1.078125q-1.09375 1.078125 -1.203125 2.890625zm13.028076 8.234375l0 -13.828125l2.109375 0l0 2.09375q0.796875 -1.46875 1.484375 -1.9375q0.6875 -0.46875 1.5 -0.46875q1.1875 0 2.40625 0.765625l-0.796875 2.171875q-0.859375 -0.515625 -1.71875 -0.515625q-0.765625 0 -1.390625 0.46875q-0.609375 0.453125 -0.859375 1.28125q-0.390625 1.25 -0.390625 2.734375l0 7.234375l-2.34375 0zm9.454834 0l0 -12.0l-2.0625 0l0 -1.828125l2.0625 0l0 -1.46875q0 -1.390625 0.25 -2.0625q0.34375 -0.921875 1.1875 -1.484375q0.859375 -0.5625 2.390625 -0.5625q0.984375 0 2.1875 0.234375l-0.34375 2.046875q-0.734375 -0.140625 -1.390625 -0.140625q-1.0625 0 -1.515625 0.46875q-0.4375 0.453125 -0.4375 1.703125l0 1.265625l2.703125 0l0 1.828125l-2.703125 0l0 12.0l-2.328125 0zm15.874756 -1.703125q-1.3125 1.109375 -2.515625 1.5625q-1.203125 0.453125 -2.578125 0.453125q-2.28125 0 -3.5 -1.109375q-1.21875 -1.109375 -1.21875 -2.84375q0 -1.015625 0.453125 -1.859375q0.46875 -0.84375 1.21875 -1.34375q0.75 -0.515625 1.6875 -0.765625q0.6875 -0.1875 2.078125 -0.359375q2.828125 -0.328125 4.171875 -0.796875q0.015625 -0.484375 0.015625 -0.625q0 -1.421875 -0.65625 -2.015625q-0.90625 -0.796875 -2.671875 -0.796875q-1.65625 0 -2.453125 0.59375q-0.78125 0.578125 -1.15625 2.046875l-2.296875 -0.3125q0.3125 -1.46875 1.03125 -2.375q0.71875 -0.90625 2.0625 -1.390625q1.359375 -0.5 3.140625 -0.5q1.78125 0 2.875 0.421875q1.109375 0.421875 1.625 1.046875q0.53125 0.625 0.734375 1.59375q0.125 0.59375 0.125 2.15625l0 3.125q0 3.265625 0.140625 4.140625q0.15625 0.859375 0.59375 1.65625l-2.4375 0q-0.375 -0.734375 -0.46875 -1.703125zm-0.203125 -5.234375q-1.265625 0.515625 -3.828125 0.890625q-1.4375 0.203125 -2.046875 0.46875q-0.59375 0.25 -0.921875 0.75q-0.3125 0.5 -0.3125 1.125q0 0.9375 0.703125 1.5625q0.703125 0.625 2.078125 0.625q1.34375 0 2.390625 -0.59375q1.0625 -0.59375 1.5625 -1.625q0.375 -0.796875 0.375 -2.34375l0 -0.859375zm15.028015 1.875l2.296875 0.296875q-0.375 2.390625 -1.9375 3.734375q-1.546875 1.34375 -3.8125 1.34375q-2.84375 0 -4.5625 -1.84375q-1.71875 -1.859375 -1.71875 -5.328125q0 -2.234375 0.734375 -3.90625q0.75 -1.6875 2.265625 -2.53125q1.515625 -0.84375 3.296875 -0.84375q2.25 0 3.671875 1.140625q1.4375 1.140625 1.84375 3.234375l-2.28125 0.359375q-0.328125 -1.390625 -1.15625 -2.09375q-0.8125 -0.703125 -1.984375 -0.703125q-1.78125 0 -2.890625 1.265625q-1.09375 1.265625 -1.09375 4.015625q0 2.78125 1.0625 4.046875q1.0625 1.265625 2.78125 1.265625q1.390625 0 2.3125 -0.84375q0.921875 -0.859375 1.171875 -2.609375zm9.421875 2.96875l0.328125 2.0625q-0.984375 0.21875 -1.765625 0.21875q-1.265625 0 -1.96875 -0.40625q-0.703125 -0.40625 -1.0 -1.0625q-0.28125 -0.65625 -0.28125 -2.765625l0 -7.953125l-1.71875 0l0 -1.828125l1.71875 0l0 -3.421875l2.328125 -1.40625l0 4.828125l2.359375 0l0 1.828125l-2.359375 0l0 8.078125q0 1.0 0.125 1.296875q0.125 0.28125 0.40625 0.453125q0.28125 0.171875 0.796875 0.171875q0.390625 0 1.03125 -0.09375zm11.343506 2.09375l0 -2.03125q-1.609375 2.34375 -4.375 2.34375q-1.234375 0 -2.296875 -0.46875q-1.0625 -0.46875 -1.578125 -1.171875q-0.5 -0.71875 -0.71875 -1.75q-0.140625 -0.6875 -0.140625 -2.1875l0 -8.5625l2.34375 0l0 7.671875q0 1.828125 0.140625 2.46875q0.21875 0.921875 0.9375 1.453125q0.71875 0.53125 1.765625 0.53125q1.0625 0 1.984375 -0.53125q0.921875 -0.546875 1.296875 -1.46875q0.390625 -0.9375 0.390625 -2.71875l0 -7.40625l2.34375 0l0 13.828125l-2.09375 0zm14.793701 -1.703125q-1.3125 1.109375 -2.515625 1.5625q-1.203125 0.453125 -2.578125 0.453125q-2.28125 0 -3.5 -1.109375q-1.21875 -1.109375 -1.21875 -2.84375q0 -1.015625 0.453125 -1.859375q0.46875 -0.84375 1.21875 -1.34375q0.75 -0.515625 1.6875 -0.765625q0.6875 -0.1875 2.078125 -0.359375q2.828125 -0.328125 4.171875 -0.796875q0.015625 -0.484375 0.015625 -0.625q0 -1.421875 -0.65625 -2.015625q-0.90625 -0.796875 -2.671875 -0.796875q-1.65625 0 -2.453125 0.59375q-0.78125 0.578125 -1.15625 2.046875l-2.296875 -0.3125q0.3125 -1.46875 1.03125 -2.375q0.71875 -0.90625 2.0625 -1.390625q1.359375 -0.5 3.140625 -0.5q1.78125 0 2.875 0.421875q1.109375 0.421875 1.625 1.046875q0.53125 0.625 0.734375 1.59375q0.125 0.59375 0.125 2.15625l0 3.125q0 3.265625 0.140625 4.140625q0.15625 0.859375 0.59375 1.65625l-2.4375 0q-0.375 -0.734375 -0.46875 -1.703125zm-0.203125 -5.234375q-1.265625 0.515625 -3.828125 0.890625q-1.4375 0.203125 -2.046875 0.46875q-0.59375 0.25 -0.921875 0.75q-0.3125 0.5 -0.3125 1.125q0 0.9375 0.703125 1.5625q0.703125 0.625 2.078125 0.625q1.34375 0 2.390625 -0.59375q1.0625 -0.59375 1.5625 -1.625q0.375 -0.796875 0.375 -2.34375l0 -0.859375zm5.949951 6.9375l0 -19.078125l2.34375 0l0 19.078125l-2.34375 0z" fill-rule="nonzero"/><path fill="#000000" d="m896.1028 833.0079q0 -4.75 2.546875 -7.4375q2.5625 -2.6875 6.59375 -2.6875q2.640625 0 4.765625 1.265625q2.125 1.265625 3.234375 3.53125q1.109375 2.25 1.109375 5.109375q0 2.90625 -1.171875 5.203125q-1.171875 2.28125 -3.3125 3.46875q-2.140625 1.171875 -4.640625 1.171875q-2.6875 0 -4.8125 -1.296875q-2.125 -1.3125 -3.21875 -3.5625q-1.09375 -2.25 -1.09375 -4.765625zm2.609375 0.046875q0 3.4375 1.84375 5.4375q1.859375 1.984375 4.671875 1.984375q2.84375 0 4.6875 -2.0q1.84375 -2.015625 1.84375 -5.703125q0 -2.328125 -0.796875 -4.0625q-0.78125 -1.734375 -2.296875 -2.6875q-1.515625 -0.96875 -3.40625 -0.96875q-2.6875 0 -4.625 1.84375q-1.921875 1.84375 -1.921875 6.15625zm20.76532 9.25l-2.171875 0l0 -19.078125l2.34375 0l0 6.796875q1.484375 -1.859375 3.78125 -1.859375q1.28125 0 2.40625 0.515625q1.140625 0.515625 1.875 1.453125q0.75 0.921875 1.15625 2.25q0.421875 1.3125 0.421875 2.796875q0 3.5625 -1.765625 5.5q-1.75 1.9375 -4.21875 1.9375q-2.4375 0 -3.828125 -2.046875l0 1.734375zm-0.03125 -7.015625q0 2.484375 0.671875 3.59375q1.109375 1.8125 3.0 1.8125q1.53125 0 2.65625 -1.328125q1.125 -1.34375 1.125 -3.984375q0 -2.703125 -1.078125 -3.984375q-1.078125 -1.296875 -2.59375 -1.296875q-1.546875 0 -2.671875 1.328125q-1.109375 1.328125 -1.109375 3.859375zm12.684326 -9.34375l0 -2.71875l2.34375 0l0 2.71875l-2.34375 0zm-2.96875 21.71875l0.4375 -1.984375q0.703125 0.171875 1.109375 0.171875q0.71875 0 1.0625 -0.46875q0.359375 -0.46875 0.359375 -2.375l0 -14.53125l2.34375 0l0 14.578125q0 2.5625 -0.671875 3.5625q-0.84375 1.296875 -2.8125 1.296875q-0.953125 0 -1.828125 -0.25zm18.35968 -9.8125l2.421875 0.296875q-0.578125 2.125 -2.125 3.296875q-1.546875 1.171875 -3.953125 1.171875q-3.03125 0 -4.8125 -1.859375q-1.78125 -1.875 -1.78125 -5.25q0 -3.484375 1.796875 -5.40625q1.796875 -1.9375 4.671875 -1.9375q2.765625 0 4.515625 1.890625q1.765625 1.890625 1.765625 5.3125q0 0.203125 -0.015625 0.625l-10.3125 0q0.140625 2.28125 1.296875 3.5q1.15625 1.203125 2.890625 1.203125q1.28125 0 2.1875 -0.671875q0.921875 -0.6875 1.453125 -2.171875zm-7.6875 -3.78125l7.71875 0q-0.15625 -1.75 -0.890625 -2.625q-1.125 -1.34375 -2.90625 -1.34375q-1.609375 0 -2.71875 1.078125q-1.09375 1.078125 -1.203125 2.890625zm22.07489 3.171875l2.296875 0.296875q-0.375 2.390625 -1.9375 3.734375q-1.546875 1.34375 -3.8125 1.34375q-2.84375 0 -4.5625 -1.84375q-1.71875 -1.859375 -1.71875 -5.328125q0 -2.234375 0.734375 -3.90625q0.75 -1.6875 2.265625 -2.53125q1.515625 -0.84375 3.296875 -0.84375q2.25 0 3.671875 1.140625q1.4375 1.140625 1.84375 3.234375l-2.28125 0.359375q-0.328125 -1.390625 -1.15625 -2.09375q-0.8125 -0.703125 -1.984375 -0.703125q-1.78125 0 -2.890625 1.265625q-1.09375 1.265625 -1.09375 4.015625q0 2.78125 1.0625 4.046875q1.0625 1.265625 2.78125 1.265625q1.390625 0 2.3125 -0.84375q0.921875 -0.859375 1.171875 -2.609375zm9.421875 2.96875l0.328125 2.0625q-0.984375 0.21875 -1.765625 0.21875q-1.265625 0 -1.96875 -0.40625q-0.703125 -0.40625 -1.0 -1.0625q-0.28125 -0.65625 -0.28125 -2.765625l0 -7.953125l-1.71875 0l0 -1.828125l1.71875 0l0 -3.421875l2.328125 -1.40625l0 4.828125l2.359375 0l0 1.828125l-2.359375 0l0 8.078125q0 1.0 0.125 1.296875q0.125 0.28125 0.40625 0.453125q0.28125 0.171875 0.796875 0.171875q0.390625 0 1.03125 -0.09375z" fill-rule="nonzero"/><path fill="#000000" fill-opacity="0.0" d="m389.13254 544.8333l484.40945 258.70868" fill-rule="evenodd"/><path stroke="#000000" stroke-width="4.0" stroke-linejoin="round" stroke-linecap="butt" stroke-dasharray="16.0,12.0" d="m389.13254 544.8333l463.2394 247.4024" fill-rule="evenodd"/><path fill="#000000" stroke="#000000" stroke-width="4.0" stroke-linecap="butt" d="m849.2595 798.0636l19.12439 2.7236328l-12.899414 -14.3793335z" fill-rule="evenodd"/><path fill="#000000" fill-opacity="0.0" d="m816.51447 544.8333l151.08661 153.57483" fill-rule="evenodd"/><path stroke="#000000" stroke-width="4.0" stroke-linejoin="round" stroke-linecap="butt" stroke-dasharray="16.0,12.0" d="m816.51447 544.8333l134.25525 136.46625" fill-rule="evenodd"/><path fill="#000000" stroke="#000000" stroke-width="4.0" stroke-linecap="butt" d="m946.0599 685.93304l17.440186 8.30658l-8.02063 -17.573547z" fill-rule="evenodd"/><path fill="#000000" fill-opacity="0.0" d="m1243.8964 544.8333l-156.25195 149.95276" fill-rule="evenodd"/><path stroke="#000000" stroke-width="4.0" stroke-linejoin="round" stroke-linecap="butt" stroke-dasharray="16.0,12.0" d="m1243.8964 544.8333l-138.93604 133.33484" fill-rule="evenodd"/><path fill="#000000" stroke="#000000" stroke-width="4.0" stroke-linecap="butt" d="m1100.3856 673.40125l-8.522217 17.335876l17.671753 -7.802063z" fill-rule="evenodd"/><path fill="#000000" fill-opacity="0.0" d="m1680.7415 544.8333l-496.94482 258.70868" fill-rule="evenodd"/><path stroke="#000000" stroke-width="4.0" stroke-linejoin="round" stroke-linecap="butt" stroke-dasharray="16.0,12.0" d="m1680.7415 544.8333l-475.65686 247.62616" fill-rule="evenodd"/><path fill="#000000" stroke="#000000" stroke-width="4.0" stroke-linecap="butt" d="m1202.0337 786.5992l-13.050293 14.242554l19.1521 -2.5219116z" fill-rule="evenodd"/></g></svg>