<svg version="1.1" viewBox="0.0 0.0 1459.7926509186352 257.9133858267717" fill="none" stroke="none" stroke-linecap="square" stroke-miterlimit="10" xmlns:xlink="http://www.w3.org/1999/xlink" xmlns="http://www.w3.org/2000/svg"><clipPath id="p.0"><path d="m0 0l1459.7926 0l0 257.9134l-1459.7926 0l0 -257.9134z" clip-rule="nonzero"/></clipPath><g clip-path="url(#p.0)"><path fill="#000000" fill-opacity="0.0" d="m0 0l1459.7926 0l0 257.9134l-1459.7926 0z" fill-rule="evenodd"/><path fill="#ffffff" d="m20.585302 22.356955l282.7342 0l35.439056 35.439034l0 177.19089l-318.17325 0z" fill-rule="evenodd"/><path stroke="#000000" stroke-width="2.0" stroke-linejoin="round" stroke-linecap="butt" d="m20.585302 22.356955l282.7342 0l35.439056 35.439034l0 177.19089l-318.17325 0z" fill-rule="evenodd"/><path fill="#000000" fill-opacity="0.0" d="m45.645557 59.39895l195.27559 0l0 74.992134l-195.27559 0z" fill-rule="evenodd"/><path fill="#000000" d="m56.426807 91.43895l0 -17.1875l3.421875 0l4.0625 12.171875q0.5624962 1.703125 0.8281212 2.546875q0.296875 -0.9375 0.90625 -2.765625l4.125 -11.953125l3.046875 0l0 17.1875l-2.1875 0l0 -14.375l-4.984375 14.375l-2.0624962 0l-4.96875 -14.625l0 14.625l-2.1875 0zm27.945309 0l0 -1.828125q-1.453125 2.109375 -3.9375 2.109375q-1.109375 0 -2.0625 -0.421875q-0.953125 -0.421875 -1.421875 -1.0625q-0.453125 -0.640625 -0.640625 -1.5625q-0.140625 -0.625 -0.140625 -1.96875l0 -7.71875l2.109375 0l0 6.90625q0 1.65625 0.140625 2.234375q0.1875 0.828125 0.828125 1.3125q0.65625 0.46875 1.609375 0.46875q0.9375 0 1.765625 -0.484375q0.84375 -0.5 1.1875 -1.328125q0.34375 -0.84375 0.34375 -2.4375l0 -6.671875l2.109375 0l0 12.453125l-1.890625 0zm5.1445312 0l0 -17.1875l2.109375 0l0 17.1875l-2.109375 0zm9.988281 -1.890625l0.3125 1.859375q-0.890625 0.203125 -1.59375 0.203125q-1.15625 0 -1.796875 -0.359375q-0.625 -0.375 -0.890625 -0.96875q-0.25 -0.59375 -0.25 -2.484375l0 -7.171875l-1.546875 0l0 -1.640625l1.546875 0l0 -3.078125l2.09375 -1.265625l0 4.34375l2.125 0l0 1.640625l-2.125 0l0 7.28125q0 0.90625 0.109375 1.171875q0.125 0.25 0.375 0.40625q0.25 0.140625 0.71875 0.140625q0.34375 0 0.921875 -0.078125zm2.0742188 -12.859375l0 -2.4375l2.109375 0l0 2.4375l-2.109375 0zm0 14.75l0 -12.453125l2.109375 0l0 12.453125l-2.109375 0zm4.4726562 -3.71875l2.09375 -0.328125q0.171875 1.25 0.96875 1.921875q0.8125 0.671875 2.25 0.671875q1.453125 0 2.15625 -0.59375q0.703125 -0.59375 0.703125 -1.390625q0 -0.71875 -0.625 -1.125q-0.421875 -0.28125 -2.15625 -0.71875q-2.3125 -0.578125 -3.21875 -1.0q-0.890625 -0.4375 -1.359375 -1.1875q-0.453125 -0.765625 -0.453125 -1.671875q0 -0.828125 0.375 -1.53125q0.390625 -0.71875 1.046875 -1.1875q0.484375 -0.359375 1.328125 -0.609375q0.859375 -0.265625 1.828125 -0.265625q1.46875 0 2.578125 0.421875q1.109375 0.421875 1.625 1.15625q0.53125 0.71875 0.734375 1.921875l-2.0625 0.28125q-0.140625 -0.96875 -0.8125 -1.5q-0.671875 -0.546875 -1.90625 -0.546875q-1.453125 0 -2.078125 0.484375q-0.625 0.484375 -0.625 1.125q0 0.40625 0.265625 0.734375q0.25 0.34375 0.8125 0.5625q0.3125 0.125 1.859375 0.546875q2.234375 0.59375 3.109375 0.984375q0.890625 0.375 1.390625 1.109375q0.515625 0.71875 0.515625 1.796875q0 1.046875 -0.625 1.984375q-0.609375 0.9375 -1.765625 1.453125q-1.15625 0.5 -2.625 0.5q-2.421875 0 -3.703125 -1.0q-1.265625 -1.015625 -1.625 -3.0zm12.859375 -11.03125l0 -2.4375l2.109375 0l0 2.4375l-2.109375 0zm0 14.75l0 -12.453125l2.109375 0l0 12.453125l-2.109375 0zm4.9414062 1.03125l2.046875 0.3125q0.125 0.9375 0.71875 1.375q0.78125 0.59375 2.140625 0.59375q1.46875 0 2.265625 -0.59375q0.796875 -0.578125 1.078125 -1.640625q0.15625 -0.640625 0.140625 -2.703125q-1.375 1.625 -3.4375 1.625q-2.5625 0 -3.96875 -1.84375q-1.40625 -1.859375 -1.40625 -4.453125q0 -1.78125 0.640625 -3.28125q0.640625 -1.515625 1.859375 -2.328125q1.234375 -0.828125 2.890625 -0.828125q2.203125 0 3.625 1.78125l0 -1.5l1.953125 0l0 10.765625q0 2.90625 -0.59375 4.109375q-0.59375 1.21875 -1.875 1.921875q-1.28125 0.703125 -3.15625 0.703125q-2.234375 0 -3.609375 -1.0q-1.359375 -1.0 -1.3125 -3.015625zm1.734375 -7.484375q0 2.453125 0.96875 3.578125q0.984375 1.125 2.453125 1.125q1.453125 0 2.4375 -1.109375q0.984375 -1.125 0.984375 -3.515625q0 -2.28125 -1.015625 -3.4375q-1.015625 -1.171875 -2.453125 -1.171875q-1.40625 0 -2.390625 1.140625q-0.984375 1.140625 -0.984375 3.390625zm22.6875 11.5q-1.734375 -2.203125 -2.953125 -5.15625q-1.203125 -2.953125 -1.203125 -6.109375q0 -2.796875 0.90625 -5.34375q1.046875 -2.96875 3.25 -5.90625l1.515625 0q-1.421875 2.4375 -1.875 3.46875q-0.71875 1.625 -1.125 3.375q-0.5 2.203125 -0.5 4.40625q0 5.640625 3.5 11.265625l-1.515625 0zm14.4609375 -7.078125l0 2.03125l-11.34375 0q-0.03125 -0.765625 0.234375 -1.46875q0.4375 -1.15625 1.390625 -2.28125q0.953125 -1.125 2.765625 -2.609375q2.796875 -2.296875 3.78125 -3.625q0.984375 -1.34375 0.984375 -2.546875q0 -1.25 -0.90625 -2.109375q-0.890625 -0.859375 -2.328125 -0.859375q-1.515625 0 -2.4375 0.921875q-0.90625 0.90625 -0.921875 2.515625l-2.171875 -0.21875q0.21875 -2.421875 1.671875 -3.6875q1.453125 -1.28125 3.90625 -1.28125q2.46875 0 3.90625 1.375q1.453125 1.359375 1.453125 3.390625q0 1.03125 -0.421875 2.03125q-0.421875 1.0 -1.40625 2.109375q-0.96875 1.09375 -3.25 3.015625q-1.890625 1.59375 -2.4375 2.15625q-0.53125 0.5625 -0.890625 1.140625l8.421875 0zm8.734375 -4.1875q0 -3.46875 1.921875 -5.125q1.609375 -1.390625 3.921875 -1.390625q2.5625 0 4.1875 1.6875q1.625 1.6875 1.625 4.640625q0 2.40625 -0.71875 3.78125q-0.71875 1.375 -2.09375 2.140625q-1.375 0.765625 -3.0 0.765625q-2.625 0 -4.234375 -1.671875q-1.609375 -1.6875 -1.609375 -4.828125zm2.171875 0q0 2.390625 1.03125 3.578125q1.046875 1.1875 2.640625 1.1875q1.5625 0 2.609375 -1.1875q1.046875 -1.203125 1.046875 -3.65625q0 -2.3125 -1.0625 -3.5q-1.046875 -1.1875 -2.59375 -1.1875q-1.59375 0 -2.640625 1.1875q-1.03125 1.1875 -1.03125 3.578125zm12.472656 6.21875l0 -10.8125l-1.875 0l0 -1.640625l1.875 0l0 -1.3125q0 -1.265625 0.21875 -1.875q0.296875 -0.8125 1.0625 -1.3125q0.78125 -0.515625 2.15625 -0.515625q0.890625 0 1.96875 0.203125l-0.3125 1.84375q-0.65625 -0.125 -1.25 -0.125q-0.953125 0 -1.359375 0.421875q-0.390625 0.40625 -0.390625 1.53125l0 1.140625l2.421875 0l0 1.640625l-2.421875 0l0 10.8125l-2.09375 0zm23.320312 -2.03125l0 2.03125l-11.34375 0q-0.03125 -0.765625 0.234375 -1.46875q0.4375 -1.15625 1.390625 -2.28125q0.953125 -1.125 2.765625 -2.609375q2.796875 -2.296875 3.78125 -3.625q0.984375 -1.34375 0.984375 -2.546875q0 -1.25 -0.90625 -2.109375q-0.890625 -0.859375 -2.328125 -0.859375q-1.515625 0 -2.4375 0.921875q-0.90625 0.90625 -0.921875 2.515625l-2.171875 -0.21875q0.21875 -2.421875 1.671875 -3.6875q1.453125 -1.28125 3.90625 -1.28125q2.46875 0 3.90625 1.375q1.453125 1.359375 1.453125 3.390625q0 1.03125 -0.421875 2.03125q-0.421875 1.0 -1.40625 2.109375q-0.96875 1.09375 -3.25 3.015625q-1.890625 1.59375 -2.4375 2.15625q-0.53125 0.5625 -0.890625 1.140625l8.421875 0zm4.2382812 7.078125l-1.515625 0q3.5 -5.625 3.5 -11.265625q0 -2.203125 -0.5 -4.359375q-0.390625 -1.765625 -1.109375 -3.375q-0.453125 -1.0625 -1.890625 -3.515625l1.515625 0q2.203125 2.9375 3.25 5.90625q0.90625 2.546875 0.90625 5.34375q0 3.15625 -1.21875 6.109375q-1.203125 2.953125 -2.9375 5.15625z" fill-rule="nonzero"/><path fill="#000000" fill-opacity="0.0" d="m45.645973 107.72589l278.04724 0l0 74.99213l-278.04724 0z" fill-rule="evenodd"/><path fill="#000000" d="m55.38035 134.35713q1.015625 -0.015625 1.640625 -0.53125q0.625 -0.515625 0.828125 -1.40625q0.21875 -0.90625 0.234375 -3.078125q0.015625 -2.1718674 0.078125 -2.8749924q0.109375 -1.09375 0.421875 -1.75q0.328125 -0.671875 0.796875 -1.0625q0.46875 -0.390625 1.203125 -0.609375q0.5 -0.125 1.609375 -0.125l0.734375 0l0 2.046875l-0.40625 0q-1.359375 0 -1.796875 0.484375q-0.4375 0.484375 -0.4375 2.1875q0 3.4062424 -0.140625 4.2968674q-0.234375 1.390625 -0.8125 2.15625q-0.5625 0.75 -1.765625 1.34375q1.421875 0.59375 2.0625 1.828125q0.65625 1.21875 0.65625 4.015625q0 2.546875 0.046875 3.03125q0.109375 0.875 0.53125 1.21875q0.421875 0.359375 1.65625 0.359375l0.40625 0l0 2.046875l-0.734375 0q-1.265625 0 -1.84375 -0.203125q-0.828125 -0.296875 -1.375 -0.96875q-0.546875 -0.671875 -0.71875 -1.703125q-0.15625 -1.03125 -0.171875 -3.375q-0.015625 -2.34375 -0.234375 -3.234375q-0.203125 -0.90625 -0.828125 -1.421875q-0.625 -0.515625 -1.640625 -0.546875l0 -2.125zm8.137146 7.96875l7.3125 -19.078117l2.734375 0l7.796875 19.078117l-2.875 0l-2.21875 -5.78125l-7.984375 0l-2.09375 5.78125l-2.671875 0zm5.5 -7.828125l6.46875 0l-2.0 -5.296875q-0.90625 -2.4062424 -1.34375 -3.9531174q-0.375 1.84375 -1.03125 3.6406174l-2.09375 5.609375zm14.0138855 7.828125l0 -19.078117l2.34375 0l0 19.078117l-2.34375 0zm5.984665 -16.390617l0 -2.6875l2.34375 0l0 2.6875l-2.34375 0zm0 16.390617l0 -13.828125l2.34375 0l0 13.828125l-2.34375 0zm14.93779 -5.0625l2.296875 0.296875q-0.375 2.390625 -1.9375 3.734375q-1.546875 1.34375 -3.8125 1.34375q-2.84375 0 -4.5625 -1.84375q-1.71875 -1.859375 -1.71875 -5.328125q0 -2.234375 0.734375 -3.90625q0.75 -1.6875 2.265625 -2.53125q1.515625 -0.84375 3.296875 -0.84375q2.25 0 3.671875 1.140625q1.4375 1.140625 1.84375 3.234375l-2.28125 0.359375q-0.328125 -1.390625 -1.15625 -2.09375q-0.8125 -0.703125 -1.984375 -0.703125q-1.78125 0 -2.890625 1.265625q-1.09375 1.265625 -1.09375 4.015625q0 2.78125 1.0625 4.046875q1.0625 1.265625 2.78125 1.265625q1.390625 0 2.3125 -0.84375q0.921875 -0.859375 1.171875 -2.609375zm13.765625 0.609375l2.421875 0.296875q-0.578125 2.125 -2.125 3.296875q-1.546875 1.171875 -3.953125 1.171875q-3.03125 0 -4.8125 -1.859375q-1.78125 -1.875 -1.78125 -5.25q0 -3.484375 1.796875 -5.40625q1.796875 -1.9375 4.671875 -1.9375q2.765625 0 4.515625 1.890625q1.765625 1.890625 1.765625 5.3125q0 0.203125 -0.015625 0.625l-10.3125 0q0.140625 2.28125 1.296875 3.5q1.15625 1.203125 2.890625 1.203125q1.28125 0 2.1875 -0.671875q0.921875 -0.6875 1.453125 -2.171875zm-7.6875 -3.78125l7.71875 0q-0.15625 -1.75 -0.890625 -2.625q-1.125 -1.34375 -2.90625 -1.34375q-1.609375 0 -2.71875 1.078125q-1.09375 1.078125 -1.203125 2.890625zm13.668686 8.234375l0 -2.671875l2.65625 0l0 2.671875q0 1.46875 -0.515625 2.375q-0.515625 0.90625 -1.65625 1.40625l-0.640625 -1.015625q0.734375 -0.3125 1.078125 -0.953125q0.359375 -0.625 0.40625 -1.8125l-1.328125 0zm14.390053 0l0 -19.078117l7.15625 0q2.1875 0 3.5 0.578125q1.328125 0.578125 2.078125 1.78125q0.75 1.203125 0.75 2.5156174q0 1.21875 -0.671875 2.3125q-0.65625 1.078125 -2.0 1.734375q1.734375 0.515625 2.65625 1.734375q0.9375 1.21875 0.9375 2.890625q0 1.34375 -0.5625 2.5q-0.5625 1.140625 -1.40625 1.765625q-0.828125 0.625 -2.09375 0.953125q-1.25 0.3125 -3.0625 0.3125l-7.28125 0zm2.53125 -11.0625l4.125 0q1.671875 0 2.40625 -0.21875q0.953125 -0.296875 1.4375 -0.953125q0.5 -0.671875 0.5 -1.671875q0 -0.9374924 -0.453125 -1.6562424q-0.453125 -0.734375 -1.3125 -1.0q-0.84375 -0.265625 -2.890625 -0.265625l-3.8125 0l0 5.7656174zm0 8.8125l4.75 0q1.21875 0 1.71875 -0.09375q0.859375 -0.15625 1.4375 -0.515625q0.59375 -0.375 0.96875 -1.0625q0.390625 -0.703125 0.390625 -1.609375q0 -1.0625 -0.546875 -1.84375q-0.546875 -0.796875 -1.515625 -1.109375q-0.96875 -0.328125 -2.796875 -0.328125l-4.40625 0l0 6.5625zm14.1857605 -4.65625q0 -3.84375 2.125 -5.6875q1.78125 -1.546875 4.34375 -1.546875q2.859375 0 4.65625 1.875q1.8125 1.859375 1.8125 5.15625q0 2.671875 -0.796875 4.203125q-0.796875 1.53125 -2.328125 2.375q-1.53125 0.84375 -3.34375 0.84375q-2.890625 0 -4.6875 -1.859375q-1.78125 -1.859375 -1.78125 -5.359375zm2.40625 0q0 2.65625 1.15625 3.984375q1.15625 1.3125 2.90625 1.3125q1.75 0 2.90625 -1.328125q1.15625 -1.328125 1.15625 -4.046875q0 -2.5625 -1.171875 -3.890625q-1.15625 -1.328125 -2.890625 -1.328125q-1.75 0 -2.90625 1.328125q-1.15625 1.3125 -1.15625 3.96875zm15.449936 6.90625l-2.171875 0l0 -19.078117l2.34375 0l0 6.7968674q1.484375 -1.859375 3.78125 -1.859375q1.28125 0 2.40625 0.515625q1.140625 0.515625 1.875 1.453125q0.75 0.921875 1.15625 2.25q0.421875 1.3125 0.421875 2.796875q0 3.5625 -1.765625 5.5q-1.75 1.9375 -4.21875 1.9375q-2.4375 0 -3.828125 -2.046875l0 1.734375zm-0.03125 -7.015625q0 2.484375 0.671875 3.59375q1.109375 1.8125 3.0 1.8125q1.53125 0 2.65625 -1.328125q1.125 -1.34375 1.125 -3.984375q0 -2.703125 -1.078125 -3.984375q-1.078125 -1.296875 -2.59375 -1.296875q-1.546875 0 -2.671875 1.328125q-1.109375 1.328125 -1.109375 3.859375zm19.074936 -0.953125l0 2.125q-1.0 0.03125 -1.625 0.546875q-0.625 0.515625 -0.84375 1.40625q-0.203125 0.890625 -0.21875 3.078125q-0.015625 2.171875 -0.078125 2.859375q-0.109375 1.109375 -0.4375 1.765625q-0.3125 0.65625 -0.78125 1.046875q-0.46875 0.40625 -1.203125 0.609375q-0.5 0.140625 -1.609375 0.140625l-0.734375 0l0 -2.046875l0.40625 0q1.359375 0 1.796875 -0.484375q0.4375 -0.484375 0.4375 -2.1875q0 -3.265625 0.125 -4.125q0.203125 -1.453125 0.828125 -2.3125q0.625 -0.875 1.765625 -1.34375q-1.484375 -0.71875 -2.109375 -1.890625q-0.609375 -1.1875 -0.609375 -3.984375q0 -2.5468674 -0.0625 -3.0312424q-0.09375 -0.875 -0.515625 -1.21875q-0.421875 -0.34375 -1.65625 -0.34375l-0.40625 0l0 -2.046875l0.734375 0q1.265625 0 1.84375 0.203125q0.828125 0.296875 1.375 0.96875q0.546875 0.671875 0.703125 1.703125q0.171875 1.03125 0.1875 3.3749924q0.015625 2.34375 0.21875 3.234375q0.21875 0.890625 0.84375 1.421875q0.625 0.515625 1.625 0.53125z" fill-rule="nonzero"/><path fill="#000000" fill-opacity="0.0" d="m45.645668 168.59317l278.04724 0l0 37.480316l-278.04724 0z" fill-rule="evenodd"/><path fill="#000000" d="m65.61442 190.57896l-8.78125 0q0.21875 1.671875 1.390625 2.703125q1.1875 1.015625 2.90625 1.015625q0.96875 0 2.015625 -0.3125q1.0625 -0.328125 1.734375 -0.859375q0.1875 -0.140625 0.34375 -0.140625q0.15625 0 0.28125 0.125q0.125 0.125 0.125 0.296875q0 0.171875 -0.171875 0.34375q-0.484375 0.515625 -1.75 0.96875q-1.25 0.4375 -2.578125 0.4375q-2.203125 0 -3.6875 -1.453125q-1.484375 -1.453125 -1.484375 -3.515625q0 -1.875 1.390625 -3.21875q1.390625 -1.34375 3.4375 -1.34375q2.109375 0 3.46875 1.390625q1.375 1.375 1.359375 3.5625zm-0.875 -0.875q-0.265625 -1.421875 -1.359375 -2.3125q-1.078125 -0.890625 -2.59375 -0.890625q-1.5 0 -2.59375 0.890625q-1.078125 0.875 -1.359375 2.3125l7.90625 0zm9.398926 0.46875l3.953125 3.78125q0.390625 0 0.484375 0.03125q0.109375 0.03125 0.1875 0.15625q0.078125 0.109375 0.078125 0.234375q0 0.1875 -0.140625 0.3125q-0.125 0.125 -0.453125 0.125l-2.765625 0q-0.3125 0 -0.453125 -0.125q-0.125 -0.125 -0.125 -0.3125q0 -0.1875 0.125 -0.296875q0.140625 -0.125 0.453125 -0.125l1.421875 0l-3.34375 -3.21875l-3.34375 3.21875l1.4375 0q0.3125 0 0.4375 0.125q0.140625 0.109375 0.140625 0.296875q0 0.1875 -0.140625 0.3125q-0.125 0.125 -0.4375 0.125l-2.796875 0q-0.3125 0 -0.453125 -0.125q-0.125 -0.125 -0.125 -0.3125q0 -0.125 0.078125 -0.234375q0.078125 -0.125 0.171875 -0.15625q0.109375 -0.03125 0.5 -0.03125l3.9375 -3.78125l-3.5 -3.375q-0.375 0 -0.46875 -0.03125q-0.09375 -0.046875 -0.171875 -0.15625q-0.078125 -0.109375 -0.078125 -0.25q0 -0.1875 0.125 -0.296875q0.140625 -0.125 0.453125 -0.125l2.359375 0q0.3125 0 0.4375 0.125q0.125 0.109375 0.125 0.3125q0 0.1875 -0.125 0.3125q-0.125 0.109375 -0.4375 0.109375l-1.03125 0l2.90625 2.8125l2.921875 -2.8125l-1.03125 0q-0.3125 0 -0.453125 -0.109375q-0.125 -0.125 -0.125 -0.328125q0 -0.1875 0.125 -0.296875q0.140625 -0.125 0.453125 -0.125l2.34375 0q0.3125 0 0.4375 0.125q0.140625 0.109375 0.140625 0.3125q0 0.125 -0.078125 0.234375q-0.078125 0.109375 -0.171875 0.15625q-0.09375 0.03125 -0.46875 0.03125l-3.515625 3.375zm16.680176 0.40625l-8.78125 0q0.21875 1.671875 1.390625 2.703125q1.1875 1.015625 2.90625 1.015625q0.96875 0 2.015625 -0.3125q1.0625 -0.328125 1.734375 -0.859375q0.1875 -0.140625 0.34375 -0.140625q0.15625 0 0.28125 0.125q0.125 0.125 0.125 0.296875q0 0.171875 -0.171875 0.34375q-0.484375 0.515625 -1.75 0.96875q-1.25 0.4375 -2.578125 0.4375q-2.203125 0 -3.6875 -1.453125q-1.484375 -1.453125 -1.484375 -3.515625q0 -1.875 1.390625 -3.21875q1.390625 -1.34375 3.4375 -1.34375q2.109375 0 3.46875 1.390625q1.375 1.375 1.359375 3.5625zm-0.875 -0.875q-0.265625 -1.421875 -1.359375 -2.3125q-1.078125 -0.890625 -2.59375 -0.890625q-1.5 0 -2.59375 0.890625q-1.078125 0.875 -1.359375 2.3125l7.90625 0zm12.398926 -2.90625l0 -0.28125q0 -0.3125 0.125 -0.4375q0.125 -0.140625 0.3125 -0.140625q0.1875 0 0.3125 0.140625q0.125 0.125 0.125 0.4375l0 1.953125q-0.015625 0.3125 -0.140625 0.453125q-0.109375 0.125 -0.296875 0.125q-0.171875 0 -0.296875 -0.109375q-0.109375 -0.125 -0.140625 -0.40625q-0.0625 -0.71875 -0.953125 -1.375q-0.890625 -0.65625 -2.421875 -0.65625q-1.90625 0 -2.90625 1.203125q-1.0 1.1875 -1.0 2.734375q0 1.671875 1.09375 2.765625q1.109375 1.09375 2.84375 1.09375q1.015625 0 2.046875 -0.375q1.046875 -0.375 1.890625 -1.1875q0.203125 -0.203125 0.375 -0.203125q0.171875 0 0.28125 0.125q0.125 0.109375 0.125 0.28125q0 0.4375 -1.03125 1.109375q-1.671875 1.109375 -3.71875 1.109375q-2.078125 0 -3.421875 -1.328125q-1.34375 -1.328125 -1.34375 -3.375q0 -2.078125 1.359375 -3.453125q1.375 -1.375 3.46875 -1.375q1.96875 0 3.3125 1.171875zm11.961426 8.015625l0 -1.265625q-1.765625 1.609375 -3.8125 1.609375q-1.265625 0 -1.921875 -0.6875q-0.84375 -0.90625 -0.84375 -2.109375l0 -5.5625l-1.171875 0q-0.296875 0 -0.4375 -0.109375q-0.125 -0.125 -0.125 -0.328125q0 -0.1875 0.125 -0.296875q0.140625 -0.125 0.4375 -0.125l2.03125 0l0 6.421875q0 0.84375 0.53125 1.390625q0.53125 0.546875 1.328125 0.546875q2.109375 0 3.859375 -1.9375l0 -5.5625l-1.59375 0q-0.296875 0 -0.4375 -0.109375q-0.140625 -0.125 -0.140625 -0.328125q0 -0.1875 0.140625 -0.296875q0.140625 -0.125 0.4375 -0.125l2.453125 0l0 8.015625l0.734375 0q0.296875 0 0.421875 0.125q0.140625 0.109375 0.140625 0.296875q0 0.1875 -0.140625 0.3125q-0.125 0.125 -0.421875 0.125l-1.59375 0zm7.883301 -8.875l4.671875 0q0.3125 0 0.4375 0.125q0.140625 0.109375 0.140625 0.3125q0 0.1875 -0.140625 0.3125q-0.125 0.109375 -0.4375 0.109375l-4.671875 0l0 5.734375q0 0.75 0.59375 1.265625q0.609375 0.5 1.765625 0.5q0.875 0 1.890625 -0.265625q1.015625 -0.265625 1.5781326 -0.59375q0.203125 -0.125 0.328125 -0.125q0.171875 0 0.296875 0.125q0.125 0.125 0.125 0.296875q0 0.15625 -0.140625 0.28125q-0.328125 0.34375 -1.5937576 0.75q-1.265625 0.390625 -2.421875 0.390625q-1.515625 0 -2.40625 -0.703125q-0.890625 -0.71875 -0.890625 -1.921875l0 -5.734375l-1.578125 0q-0.3125 0 -0.453125 -0.109375q-0.125 -0.125 -0.125 -0.328125q0 -0.1875 0.125 -0.296875q0.140625 -0.125 0.453125 -0.125l1.578125 0l0 -2.546875q0 -0.3125 0.125 -0.4375q0.125 -0.140625 0.3125 -0.140625q0.1875 0 0.3125 0.140625q0.125 0.125 0.125 0.4375l0 2.546875zm19.039558 4.640625l-8.78125 0q0.21875 1.671875 1.390625 2.703125q1.1875 1.015625 2.90625 1.015625q0.96875 0 2.015625 -0.3125q1.0625 -0.328125 1.734375 -0.859375q0.1875 -0.140625 0.34375 -0.140625q0.15625 0 0.28125 0.125q0.125 0.125 0.125 0.296875q0 0.171875 -0.171875 0.34375q-0.484375 0.515625 -1.75 0.96875q-1.25 0.4375 -2.578125 0.4375q-2.203125 0 -3.6875 -1.453125q-1.484375 -1.453125 -1.484375 -3.515625q0 -1.875 1.390625 -3.21875q1.390625 -1.34375 3.4375 -1.34375q2.109375 0 3.46875 1.390625q1.375 1.375 1.359375 3.5625zm-0.875 -0.875q-0.265625 -1.421875 -1.359375 -2.3125q-1.078125 -0.890625 -2.59375 -0.890625q-1.5 0 -2.59375 0.890625q-1.078125 0.875 -1.359375 2.3125l7.90625 0zm9.242676 -6.03125l0 10.28125l2.234375 0q0.296875 0 0.421875 0.125q0.140625 0.109375 0.140625 0.296875q0 0.1875 -0.140625 0.3125q-0.125 0.125 -0.421875 0.125l-5.34375 0q-0.3125 0 -0.453125 -0.125q-0.125 -0.125 -0.125 -0.3125q0 -0.1875 0.125 -0.296875q0.140625 -0.125 0.453125 -0.125l2.234375 0l0 -10.28125l-3.53125 0l0 2.984375q0 0.328125 -0.125 0.46875q-0.109375 0.125 -0.3125 0.125q-0.171875 0 -0.296875 -0.125q-0.125 -0.140625 -0.125 -0.46875l0 -3.84375l9.640625 0l0 3.84375q0 0.328125 -0.125 0.46875q-0.109375 0.125 -0.296875 0.125q-0.203125 0 -0.328125 -0.125q-0.109375 -0.140625 -0.109375 -0.46875l0 -2.984375l-3.515625 0zm11.133301 2.265625l0 2.171875q1.6875 -1.515625 2.515625 -1.953125q0.84375 -0.4375 1.546875 -0.4375q0.765625 0 1.421875 0.515625q0.671875 0.515625 0.671875 0.78125q0 0.203125 -0.125 0.328125q-0.125 0.125 -0.328125 0.125q-0.09375 0 -0.171875 -0.03125q-0.078125 -0.03125 -0.265625 -0.234375q-0.359375 -0.359375 -0.625 -0.484375q-0.265625 -0.140625 -0.53125 -0.140625q-0.5625 0 -1.359375 0.453125q-0.78125 0.453125 -2.75 2.203125l0 4.71875l3.8125 0q0.328125 0 0.453125 0.125q0.140625 0.109375 0.140625 0.296875q0 0.1875 -0.140625 0.3125q-0.125 0.125 -0.453125 0.125l-6.75 0q-0.3125 0 -0.453125 -0.109375q-0.125 -0.125 -0.125 -0.3125q0 -0.171875 0.125 -0.28125q0.140625 -0.125 0.453125 -0.125l2.078125 0l0 -7.1875l-1.59375 0q-0.296875 0 -0.4375 -0.109375q-0.125 -0.125 -0.125 -0.328125q0 -0.1875 0.125 -0.296875q0.125 -0.125 0.4375 -0.125l2.453125 0zm16.117676 8.875l0 -1.234375q-1.875 1.578125 -4.015625 1.578125q-1.546875 0 -2.421875 -0.78125q-0.859375 -0.796875 -0.859375 -1.9375q0 -1.25 1.140625 -2.171875q1.15625 -0.9375 3.359375 -0.9375q0.59375 0 1.28125 0.078125q0.703125 0.078125 1.515625 0.234375l0 -1.390625q0 -0.703125 -0.65625 -1.21875q-0.65625 -0.53125 -1.96875 -0.53125q-1.015625 0 -2.828125 0.578125q-0.328125 0.109375 -0.421875 0.109375q-0.15625 0 -0.28125 -0.125q-0.109375 -0.125 -0.109375 -0.3125q0 -0.171875 0.09375 -0.28125q0.15625 -0.140625 1.171875 -0.40625q1.59375 -0.4375 2.40625 -0.4375q1.640625 0 2.546875 0.8125q0.921875 0.796875 0.921875 1.8125l0 5.703125l1.140625 0q0.3125 0 0.4375 0.125q0.140625 0.109375 0.140625 0.296875q0 0.1875 -0.140625 0.3125q-0.125 0.125 -0.4375 0.125l-2.015625 0zm0 -4.28125q-0.609375 -0.171875 -1.296875 -0.25q-0.671875 -0.09375 -1.40625 -0.09375q-1.890625 0 -2.9375 0.8125q-0.796875 0.609375 -0.796875 1.4375q0 0.78125 0.609375 1.328125q0.609375 0.53125 1.78125 0.53125q1.109375 0 2.0625 -0.453125q0.96875 -0.453125 1.984375 -1.421875l0 -1.890625zm7.336426 -4.59375l0 1.296875q0.90625 -0.90625 1.625 -1.25q0.734375 -0.359375 1.640625 -0.359375q0.984375 0 1.796875 0.421875q0.578125 0.3125 1.046875 1.03125q0.46875 0.703125 0.46875 1.453125l0 5.421875l0.71875 0q0.3125 0 0.4375 0.125q0.140625 0.109375 0.140625 0.296875q0 0.1875 -0.140625 0.3125q-0.125 0.125 -0.4375 0.125l-2.296875 0q-0.328125 0 -0.46875 -0.125q-0.125 -0.125 -0.125 -0.3125q0 -0.1875 0.125 -0.296875q0.140625 -0.125 0.46875 -0.125l0.71875 0l0 -5.28125q0 -0.921875 -0.671875 -1.546875q-0.671875 -0.625 -1.78125 -0.625q-0.859375 0 -1.484375 0.34375q-0.625 0.34375 -1.78125 1.703125l0 5.40625l0.96875 0q0.3125 0 0.4375 0.125q0.140625 0.109375 0.140625 0.296875q0 0.1875 -0.140625 0.3125q-0.125 0.125 -0.4375 0.125l-2.796875 0q-0.3125 0 -0.453125 -0.125q-0.125 -0.125 -0.125 -0.3125q0 -0.1875 0.125 -0.296875q0.140625 -0.125 0.453125 -0.125l0.96875 0l0 -7.15625l-0.734375 0q-0.296875 0 -0.4375 -0.109375q-0.125 -0.125 -0.125 -0.328125q0 -0.1875 0.125 -0.296875q0.140625 -0.125 0.4375 -0.125l1.59375 0zm18.22705 0.5625q0 -0.296875 0.125 -0.421875q0.125 -0.140625 0.3125 -0.140625q0.1875 0 0.3125 0.140625q0.125 0.125 0.125 0.4375l0 1.484375q0 0.296875 -0.125 0.4375q-0.125 0.125 -0.3125 0.125q-0.171875 0 -0.296875 -0.109375q-0.109375 -0.109375 -0.140625 -0.375q-0.0625 -0.609375 -0.625 -1.0q-0.84375 -0.578125 -2.234375 -0.578125q-1.4375 0 -2.234375 0.578125q-0.609375 0.4375 -0.609375 0.984375q0 0.625 0.71875 1.03125q0.484375 0.28125 1.859375 0.4375q1.796875 0.1875 2.5 0.4375q0.984375 0.359375 1.46875 1.0q0.5 0.640625 0.5 1.375q0 1.09375 -1.0625 1.953125q-1.046875 0.859375 -3.09375 0.859375q-2.046875 0 -3.34375 -1.046875q0 0.359375 -0.046875 0.46875q-0.03125 0.09375 -0.140625 0.171875q-0.109375 0.0625 -0.25 0.0625q-0.171875 0 -0.296875 -0.125q-0.125 -0.140625 -0.125 -0.453125l0 -1.765625q0 -0.3125 0.109375 -0.4375q0.125 -0.140625 0.3125 -0.140625q0.1875 0 0.3125 0.125q0.140625 0.125 0.140625 0.34375q0 0.46875 0.234375 0.796875q0.359375 0.484375 1.140625 0.8125q0.78125 0.328125 1.921875 0.328125q1.6875 0 2.5 -0.625q0.828125 -0.640625 0.828125 -1.328125q0 -0.796875 -0.84375 -1.28125q-0.828125 -0.484375 -2.4375 -0.640625q-1.609375 -0.171875 -2.3125 -0.4375q-0.6875 -0.265625 -1.078125 -0.796875q-0.390625 -0.53125 -0.390625 -1.15625q0 -1.109375 1.078125 -1.75q1.09375 -0.65625 2.609375 -0.65625q1.78125 0 2.890625 0.875zm12.242676 8.3125l0 -1.234375q-1.875 1.578125 -4.015625 1.578125q-1.546875 0 -2.421875 -0.78125q-0.859375 -0.796875 -0.859375 -1.9375q0 -1.25 1.140625 -2.171875q1.15625 -0.9375 3.359375 -0.9375q0.59375 0 1.28125 0.078125q0.703125 0.078125 1.515625 0.234375l0 -1.390625q0 -0.703125 -0.65625 -1.21875q-0.65625 -0.53125 -1.96875 -0.53125q-1.015625 0 -2.828125 0.578125q-0.328125 0.109375 -0.421875 0.109375q-0.15625 0 -0.28125 -0.125q-0.109375 -0.125 -0.109375 -0.3125q0 -0.171875 0.09375 -0.28125q0.15625 -0.140625 1.171875 -0.40625q1.59375 -0.4375 2.40625 -0.4375q1.640625 0 2.546875 0.8125q0.921875 0.796875 0.921875 1.8125l0 5.703125l1.140625 0q0.3125 0 0.4375 0.125q0.140625 0.109375 0.140625 0.296875q0 0.1875 -0.140625 0.3125q-0.125 0.125 -0.4375 0.125l-2.015625 0zm0 -4.28125q-0.609375 -0.171875 -1.296875 -0.25q-0.671875 -0.09375 -1.40625 -0.09375q-1.890625 0 -2.9375 0.8125q-0.796875 0.609375 -0.796875 1.4375q0 0.78125 0.609375 1.328125q0.609375 0.53125 1.78125 0.53125q1.109375 0 2.0625 -0.453125q0.96875 -0.453125 1.984375 -1.421875l0 -1.890625zm13.711426 -3.734375l0 -0.28125q0 -0.3125 0.125 -0.4375q0.125 -0.140625 0.3125 -0.140625q0.1875 0 0.3125 0.140625q0.125 0.125 0.125 0.4375l0 1.953125q-0.015625 0.3125 -0.140625 0.453125q-0.109375 0.125 -0.296875 0.125q-0.171875 0 -0.296875 -0.109375q-0.109375 -0.125 -0.140625 -0.40625q-0.0625 -0.71875 -0.953125 -1.375q-0.890625 -0.65625 -2.421875 -0.65625q-1.90625 0 -2.90625 1.203125q-1.0 1.1875 -1.0 2.734375q0 1.671875 1.09375 2.765625q1.109375 1.09375 2.84375 1.09375q1.015625 0 2.046875 -0.375q1.046875 -0.375 1.890625 -1.1875q0.203125 -0.203125 0.375 -0.203125q0.171875 0 0.28125 0.125q0.125 0.109375 0.125 0.28125q0 0.4375 -1.03125 1.109375q-1.671875 1.109375 -3.71875 1.109375q-2.078125 0 -3.421875 -1.328125q-1.34375 -1.328125 -1.34375 -3.375q0 -2.078125 1.359375 -3.453125q1.375 -1.375 3.46875 -1.375q1.96875 0 3.3125 1.171875zm7.242676 -0.859375l4.671875 0q0.3125 0 0.4375 0.125q0.140625 0.109375 0.140625 0.3125q0 0.1875 -0.140625 0.3125q-0.125 0.109375 -0.4375 0.109375l-4.671875 0l0 5.734375q0 0.75 0.59375 1.265625q0.609375 0.5 1.765625 0.5q0.875 0 1.890625 -0.265625q1.015625 -0.265625 1.578125 -0.59375q0.203125 -0.125 0.328125 -0.125q0.171875 0 0.296875 0.125q0.125 0.125 0.125 0.296875q0 0.15625 -0.140625 0.28125q-0.328125 0.34375 -1.59375 0.75q-1.265625 0.390625 -2.421875 0.390625q-1.515625 0 -2.40625 -0.703125q-0.890625 -0.71875 -0.890625 -1.921875l0 -5.734375l-1.578125 0q-0.3125 0 -0.453125 -0.109375q-0.125 -0.125 -0.125 -0.328125q0 -0.1875 0.125 -0.296875q0.140625 -0.125 0.453125 -0.125l1.578125 0l0 -2.546875q0 -0.3125 0.125 -0.4375q0.125 -0.140625 0.3125 -0.140625q0.1875 0 0.3125 0.140625q0.125 0.125 0.125 0.4375l0 2.546875zm14.805176 -4.421875l0 2.21875l-1.28125 0l0 -2.21875l1.28125 0zm0.015625 4.421875l0 8.015625l3.390625 0q0.3125 0 0.4375 0.125q0.140625 0.109375 0.140625 0.296875q0 0.1875 -0.140625 0.3125q-0.125 0.125 -0.4375 0.125l-7.625 0q-0.3125 0 -0.453125 -0.125q-0.125 -0.125 -0.125 -0.3125q0 -0.1875 0.125 -0.296875q0.140625 -0.125 0.453125 -0.125l3.375 0l0 -7.15625l-2.5 0q-0.3125 0 -0.453125 -0.109375q-0.140625 -0.125 -0.140625 -0.3125q0 -0.203125 0.125 -0.3125q0.140625 -0.125 0.46875 -0.125l3.359375 0zm16.96141 4.453125q0 1.96875 -1.40625 3.375q-1.40625 1.390625 -3.390625 1.390625q-2.015625 0 -3.421875 -1.40625q-1.40625 -1.40625 -1.40625 -3.359375q0 -1.96875 1.40625 -3.359375q1.40625 -1.40625 3.421875 -1.40625q1.984375 0 3.390625 1.390625q1.40625 1.390625 1.40625 3.375zm-0.859375 0q0 -1.625 -1.15625 -2.75q-1.15625 -1.140625 -2.796875 -1.140625q-1.640625 0 -2.796875 1.140625q-1.15625 1.140625 -1.15625 2.75q0 1.609375 1.15625 2.765625q1.15625 1.140625 2.796875 1.140625q1.640625 0 2.796875 -1.140625q1.15625 -1.15625 1.15625 -2.765625zm5.867676 -4.453125l0 1.296875q0.90625 -0.90625 1.625 -1.25q0.734375 -0.359375 1.640625 -0.359375q0.984375 0 1.796875 0.421875q0.578125 0.3125 1.046875 1.03125q0.46875 0.703125 0.46875 1.453125l0 5.421875l0.71875 0q0.3125 0 0.4375 0.125q0.140625 0.109375 0.140625 0.296875q0 0.1875 -0.140625 0.3125q-0.125 0.125 -0.4375 0.125l-2.296875 0q-0.328125 0 -0.46875 -0.125q-0.125 -0.125 -0.125 -0.3125q0 -0.1875 0.125 -0.296875q0.140625 -0.125 0.46875 -0.125l0.71875 0l0 -5.28125q0 -0.921875 -0.671875 -1.546875q-0.671875 -0.625 -1.78125 -0.625q-0.859375 0 -1.484375 0.34375q-0.625 0.34375 -1.78125 1.703125l0 5.40625l0.96875 0q0.3125 0 0.4375 0.125q0.140625 0.109375 0.140625 0.296875q0 0.1875 -0.140625 0.3125q-0.125 0.125 -0.4375 0.125l-2.796875 0q-0.3125 0 -0.453125 -0.125q-0.125 -0.125 -0.125 -0.3125q0 -0.1875 0.125 -0.296875q0.140625 -0.125 0.453125 -0.125l0.96875 0l0 -7.15625l-0.734375 0q-0.296875 0 -0.4375 -0.109375q-0.125 -0.125 -0.125 -0.328125q0 -0.1875 0.125 -0.296875q0.140625 -0.125 0.4375 -0.125l1.59375 0zm15.289551 3.765625q0 -1.171875 0.296875 -2.5q0.3125 -1.328125 1.1875 -3.046875q0.875 -1.734375 1.28125 -2.09375q0.109375 -0.125 0.265625 -0.125q0.171875 0 0.296875 0.125q0.140625 0.125 0.140625 0.296875q0 0.109375 -0.078125 0.234375q-1.125 2.0625 -1.609375 3.75q-0.484375 1.6875 -0.484375 3.359375q0 1.6875 0.484375 3.375q0.484375 1.6875 1.609375 3.75q0.078125 0.125 0.078125 0.21875q0 0.171875 -0.140625 0.296875q-0.125 0.140625 -0.296875 0.140625q-0.15625 0 -0.265625 -0.125q-0.390625 -0.34375 -1.25 -2.03125q-0.859375 -1.6875 -1.1875 -2.984375q-0.328125 -1.3125 -0.328125 -2.640625zm12.945801 0.015625q0 1.171875 -0.3125 2.5q-0.296875 1.3125 -1.171875 3.046875q-0.875 1.734375 -1.265625 2.09375q-0.125 0.125 -0.265625 0.125q-0.1875 0 -0.3125 -0.140625q-0.125 -0.125 -0.125 -0.296875q0 -0.09375 0.0625 -0.21875q1.125 -2.0625 1.609375 -3.75q0.484375 -1.6875 0.484375 -3.359375q0 -1.6875 -0.484375 -3.375q-0.484375 -1.6875 -1.609375 -3.75q-0.0625 -0.125 -0.0625 -0.234375q0 -0.171875 0.125 -0.296875q0.125 -0.125 0.3125 -0.125q0.140625 0 0.265625 0.125q0.375 0.34375 1.234375 2.03125q0.859375 1.6875 1.1875 3.0q0.328125 1.296875 0.328125 2.625z" fill-rule="nonzero"/><path fill="#ffffff" d="m561.8399 22.356955l282.7342 0l35.439026 35.439034l0 177.19089l-318.17322 0z" fill-rule="evenodd"/><path stroke="#000000" stroke-width="2.0" stroke-linejoin="round" stroke-linecap="butt" d="m561.8399 22.356955l282.7342 0l35.439026 35.439034l0 177.19089l-318.17322 0z" fill-rule="evenodd"/><path fill="#000000" fill-opacity="0.0" d="m586.90015 59.39895l195.27557 0l0 74.992134l-195.27557 0z" fill-rule="evenodd"/><path fill="#000000" d="m597.7908 91.43895l0 -17.1875l7.609375 0q2.296875 0 3.484375 0.46875q1.203125 0.46875 1.921875 1.640625q0.71875 1.171875 0.71875 2.578125q0 1.828125 -1.1875 3.09375q-1.1875 1.25 -3.65625 1.59375q0.90625 0.421875 1.375 0.84375q1.0 0.921875 1.890625 2.296875l2.984375 4.671875l-2.859375 0l-2.28125 -3.578125q-0.984375 -1.546875 -1.640625 -2.359375q-0.640625 -0.828125 -1.15625 -1.15625q-0.5 -0.328125 -1.03125 -0.453125q-0.390625 -0.078125 -1.265625 -0.078125l-2.640625 0l0 7.625l-2.265625 0zm2.265625 -9.59375l4.890625 0q1.5625 0 2.4375 -0.328125q0.875 -0.328125 1.328125 -1.03125q0.46875 -0.703125 0.46875 -1.546875q0 -1.21875 -0.890625 -2.0q-0.875 -0.78125 -2.796875 -0.78125l-5.4375 0l0 5.6875zm23.285156 5.578125l2.171875 0.28125q-0.515625 1.90625 -1.90625 2.96875q-1.390625 1.046875 -3.5625 1.046875q-2.734375 0 -4.34375 -1.671875q-1.59375 -1.6875 -1.59375 -4.734375q0 -3.140625 1.609375 -4.875q1.625 -1.734375 4.203125 -1.734375q2.5 0 4.078125 1.703125q1.59375 1.703125 1.59375 4.78125q0 0.1875 -0.015625 0.5625l-9.28125 0q0.109375 2.046875 1.15625 3.140625q1.046875 1.09375 2.609375 1.09375q1.15625 0 1.96875 -0.609375q0.828125 -0.609375 1.3125 -1.953125zm-6.9375 -3.40625l6.953125 0q-0.140625 -1.5625 -0.796875 -2.359375q-1.0 -1.21875 -2.609375 -1.21875q-1.453125 0 -2.453125 0.984375q-0.984375 0.96875 -1.09375 2.59375zm11.378906 8.453125l2.046875 0.3125q0.125 0.9375 0.71875 1.375q0.78125 0.59375 2.140625 0.59375q1.46875 0 2.265625 -0.59375q0.796875 -0.578125 1.078125 -1.640625q0.15625 -0.640625 0.140625 -2.703125q-1.375 1.625 -3.4375 1.625q-2.5625 0 -3.96875 -1.84375q-1.40625 -1.859375 -1.40625 -4.453125q0 -1.78125 0.640625 -3.28125q0.640625 -1.515625 1.859375 -2.328125q1.234375 -0.828125 2.890625 -0.828125q2.203125 0 3.625 1.78125l0 -1.5l1.953125 0l0 10.765625q0 2.90625 -0.59375 4.109375q-0.59375 1.21875 -1.875 1.921875q-1.28125 0.703125 -3.15625 0.703125q-2.234375 0 -3.609375 -1.0q-1.359375 -1.0 -1.3125 -3.015625zm1.734375 -7.484375q0 2.453125 0.96875 3.578125q0.984375 1.125 2.453125 1.125q1.453125 0 2.4375 -1.109375q0.984375 -1.125 0.984375 -3.515625q0 -2.28125 -1.015625 -3.4375q-1.015625 -1.171875 -2.453125 -1.171875q-1.40625 0 -2.390625 1.140625q-0.984375 1.140625 -0.984375 3.390625zm12.003906 -8.296875l0 -2.4375l2.109375 0l0 2.4375l-2.109375 0zm0 14.75l0 -12.453125l2.109375 0l0 12.453125l-2.109375 0zm4.4726562 -3.71875l2.09375 -0.328125q0.171875 1.25 0.96875 1.921875q0.8125 0.671875 2.25 0.671875q1.453125 0 2.15625 -0.59375q0.703125 -0.59375 0.703125 -1.390625q0 -0.71875 -0.625 -1.125q-0.421875 -0.28125 -2.15625 -0.71875q-2.3125 -0.578125 -3.21875 -1.0q-0.890625 -0.4375 -1.359375 -1.1875q-0.453125 -0.765625 -0.453125 -1.671875q0 -0.828125 0.375 -1.53125q0.390625 -0.71875 1.046875 -1.1875q0.484375 -0.359375 1.328125 -0.609375q0.859375 -0.265625 1.828125 -0.265625q1.46875 0 2.578125 0.421875q1.109375 0.421875 1.625 1.15625q0.53125 0.71875 0.734375 1.921875l-2.0625 0.28125q-0.140625 -0.96875 -0.8125 -1.5q-0.671875 -0.546875 -1.90625 -0.546875q-1.453125 0 -2.078125 0.484375q-0.625 0.484375 -0.625 1.125q0 0.40625 0.265625 0.734375q0.25 0.34375 0.8125 0.5625q0.3125 0.125 1.859375 0.546875q2.234375 0.59375 3.109375 0.984375q0.890625 0.375 1.390625 1.109375q0.515625 0.71875 0.515625 1.796875q0 1.046875 -0.625 1.984375q-0.609375 0.9375 -1.765625 1.453125q-1.15625 0.5 -2.625 0.5q-2.421875 0 -3.703125 -1.0q-1.265625 -1.015625 -1.625 -3.0zm17.453125 1.828125l0.3125 1.859375q-0.890625 0.203125 -1.59375 0.203125q-1.15625 0 -1.796875 -0.359375q-0.625 -0.375 -0.890625 -0.96875q-0.25 -0.59375 -0.25 -2.484375l0 -7.171875l-1.546875 0l0 -1.640625l1.546875 0l0 -3.078125l2.09375 -1.265625l0 4.34375l2.125 0l0 1.640625l-2.125 0l0 7.28125q0 0.90625 0.109375 1.171875q0.125 0.25 0.375 0.40625q0.25 0.140625 0.71875 0.140625q0.34375 0 0.921875 -0.078125zm2.0429688 1.890625l0 -12.453125l1.890625 0l0 1.890625q0.734375 -1.328125 1.34375 -1.75q0.625 -0.421875 1.359375 -0.421875q1.0625 0 2.171875 0.6875l-0.734375 1.953125q-0.765625 -0.453125 -1.546875 -0.453125q-0.6875 0 -1.25 0.421875q-0.546875 0.40625 -0.78125 1.140625q-0.34375 1.125 -0.34375 2.46875l0 6.515625l-2.109375 0zm7.9140625 4.796875l-0.234375 -1.984375q0.703125 0.1875 1.21875 0.1875q0.703125 0 1.125 -0.234375q0.421875 -0.234375 0.6875 -0.65625q0.203125 -0.3125 0.640625 -1.5625q0.0625 -0.1875 0.1875 -0.515625l-4.71875 -12.484375l2.265625 0l2.59375 7.21875q0.5 1.359375 0.90625 2.875q0.359375 -1.453125 0.859375 -2.828125l2.671875 -7.265625l2.109375 0l-4.734375 12.671875q-0.765625 2.046875 -1.1875 2.8125q-0.5625 1.046875 -1.296875 1.53125q-0.71875 0.484375 -1.734375 0.484375q-0.609375 0 -1.359375 -0.25z" fill-rule="nonzero"/><path fill="#000000" fill-opacity="0.0" d="m586.9006 107.72589l278.04724 0l0 74.99213l-278.04724 0z" fill-rule="evenodd"/><path fill="#000000" fill-opacity="0.0" d="m602.90027 168.59317l166.11023 0l0 37.480316l-166.11023 0z" fill-rule="evenodd"/><path fill="#000000" d="m614.96277 185.93834l0 1.5625q0.765625 -0.9375 1.640625 -1.40625q0.890625 -0.46875 2.078125 -0.46875q1.28125 0 2.359375 0.59375q1.078125 0.59375 1.65625 1.65625q0.59375 1.0625 0.59375 2.234375q0 1.859375 -1.328125 3.171875q-1.328125 1.3125 -3.265625 1.3125q-2.3125 0 -3.734375 -1.875l0 5.1875l2.078125 0q0.3125 0 0.4375 0.109375q0.140625 0.125 0.140625 0.328125q0 0.1875 -0.140625 0.296875q-0.125 0.125 -0.4375 0.125l-4.109375 0q-0.296875 0 -0.4375 -0.125q-0.125 -0.109375 -0.125 -0.296875q0 -0.203125 0.125 -0.328125q0.140625 -0.109375 0.4375 -0.109375l1.15625 0l0 -11.109375l-1.15625 0q-0.296875 0 -0.4375 -0.109375q-0.125 -0.125 -0.125 -0.328125q0 -0.1875 0.125 -0.296875q0.140625 -0.125 0.4375 -0.125l2.03125 0zm7.453125 4.171875q0 -1.484375 -1.078125 -2.546875q-1.078125 -1.0625 -2.640625 -1.0625q-1.5625 0 -2.65625 1.0625q-1.078125 1.0625 -1.078125 2.546875q0 1.484375 1.078125 2.546875q1.09375 1.0625 2.65625 1.0625q1.546875 0 2.625 -1.046875q1.09375 -1.0625 1.09375 -2.5625zm7.352051 -4.171875l0 2.171875q1.6875 -1.515625 2.515625 -1.953125q0.84375 -0.4375 1.546875 -0.4375q0.765625 0 1.421875 0.515625q0.671875 0.515625 0.671875 0.78125q0 0.203125 -0.125 0.328125q-0.125 0.125 -0.328125 0.125q-0.09375 0 -0.171875 -0.03125q-0.078125 -0.03125 -0.265625 -0.234375q-0.359375 -0.359375 -0.625 -0.484375q-0.265625 -0.140625 -0.53125 -0.140625q-0.5625 0 -1.359375 0.453125q-0.78125 0.453125 -2.75 2.203125l0 4.71875l3.8125 0q0.328125 0 0.453125 0.125q0.140625 0.109375 0.140625 0.296875q0 0.1875 -0.140625 0.3125q-0.125 0.125 -0.453125 0.125l-6.75 0q-0.3125 0 -0.453125 -0.109375q-0.125 -0.125 -0.125 -0.3125q0 -0.171875 0.125 -0.28125q0.140625 -0.125 0.453125 -0.125l2.078125 0l0 -7.1875l-1.59375 0q-0.296875 0 -0.4375 -0.109375q-0.125 -0.125 -0.125 -0.328125q0 -0.1875 0.125 -0.296875q0.125 -0.125 0.4375 -0.125l2.453125 0zm18.4458 4.453125q0 1.96875 -1.40625 3.375q-1.40625 1.390625 -3.390625 1.390625q-2.015625 0 -3.421875 -1.40625q-1.40625 -1.40625 -1.40625 -3.359375q0 -1.96875 1.40625 -3.359375q1.40625 -1.40625 3.421875 -1.40625q1.984375 0 3.390625 1.390625q1.40625 1.390625 1.40625 3.375zm-0.859375 0q0 -1.625 -1.15625 -2.75q-1.15625 -1.140625 -2.796875 -1.140625q-1.640625 0 -2.796875 1.140625q-1.15625 1.140625 -1.15625 2.75q0 1.609375 1.15625 2.765625q1.15625 1.140625 2.796875 1.140625q1.640625 0 2.796875 -1.140625q1.15625 -1.15625 1.15625 -2.765625zm9.242676 -0.21875l3.953125 3.78125q0.390625 0 0.484375 0.03125q0.109375 0.03125 0.1875 0.15625q0.078125 0.109375 0.078125 0.234375q0 0.1875 -0.140625 0.3125q-0.125 0.125 -0.453125 0.125l-2.765625 0q-0.3125 0 -0.453125 -0.125q-0.125 -0.125 -0.125 -0.3125q0 -0.1875 0.125 -0.296875q0.140625 -0.125 0.453125 -0.125l1.421875 0l-3.34375 -3.21875l-3.34375 3.21875l1.4375 0q0.3125 0 0.4375 0.125q0.140625 0.109375 0.140625 0.296875q0 0.1875 -0.140625 0.3125q-0.125 0.125 -0.4375 0.125l-2.796875 0q-0.3125 0 -0.453125 -0.125q-0.125 -0.125 -0.125 -0.3125q0 -0.125 0.078125 -0.234375q0.078125 -0.125 0.171875 -0.15625q0.109375 -0.03125 0.5 -0.03125l3.9375 -3.78125l-3.5 -3.375q-0.375 0 -0.46875 -0.03125q-0.09375 -0.046875 -0.171875 -0.15625q-0.078125 -0.109375 -0.078125 -0.25q0 -0.1875 0.125 -0.296875q0.140625 -0.125 0.453125 -0.125l2.359375 0q0.3125 0 0.4375 0.125q0.125 0.109375 0.125 0.3125q0 0.1875 -0.125 0.3125q-0.125 0.109375 -0.4375 0.109375l-1.03125 0l2.90625 2.8125l2.921875 -2.8125l-1.03125 0q-0.3125 0 -0.453125 -0.109375q-0.125 -0.125 -0.125 -0.328125q0 -0.1875 0.125 -0.296875q0.140625 -0.125 0.453125 -0.125l2.34375 0q0.3125 0 0.4375 0.125q0.140625 0.109375 0.140625 0.3125q0 0.125 -0.078125 0.234375q-0.078125 0.109375 -0.171875 0.15625q-0.09375 0.03125 -0.46875 0.03125l-3.515625 3.375zm12.070801 4.640625l-4.0 -8.015625l-0.25 0q-0.3125 0 -0.453125 -0.109375q-0.125 -0.125 -0.125 -0.3125q0 -0.140625 0.0625 -0.234375q0.0625 -0.109375 0.171875 -0.15625q0.109375 -0.046875 0.34375 -0.046875l2.34375 0q0.3125 0 0.4375 0.125q0.140625 0.109375 0.140625 0.3125q0 0.1875 -0.140625 0.3125q-0.125 0.109375 -0.4375 0.109375l-1.15625 0l3.515625 7.078125l3.46875 -7.078125l-1.15625 0q-0.3125 0 -0.453125 -0.109375q-0.125 -0.125 -0.125 -0.328125q0 -0.1875 0.125 -0.296875q0.140625 -0.125 0.453125 -0.125l2.34375 0q0.328125 0 0.453125 0.125q0.140625 0.109375 0.140625 0.3125q0 0.125 -0.09375 0.25q-0.078125 0.109375 -0.1875 0.140625q-0.09375 0.03125 -0.5625 0.03125l-5.453125 11.109375l1.34375 0q0.296875 0 0.4375 0.109375q0.140625 0.125 0.140625 0.328125q0 0.1875 -0.140625 0.296875q-0.140625 0.125 -0.4375 0.125l-4.96875 0q-0.3125 0 -0.453125 -0.125q-0.125 -0.109375 -0.125 -0.296875q0 -0.203125 0.125 -0.328125q0.140625 -0.109375 0.453125 -0.109375l2.703125 0l1.515625 -3.09375zm16.1333 -8.015625l0 -0.28125q0 -0.3125 0.125 -0.4375q0.125 -0.140625 0.3125 -0.140625q0.1875 0 0.3125 0.140625q0.125 0.125 0.125 0.4375l0 1.953125q-0.015625 0.3125 -0.140625 0.453125q-0.109375 0.125 -0.296875 0.125q-0.171875 0 -0.296875 -0.109375q-0.109375 -0.125 -0.140625 -0.40625q-0.0625 -0.71875 -0.953125 -1.375q-0.890625 -0.65625 -2.421875 -0.65625q-1.90625 0 -2.90625 1.203125q-1.0 1.1875 -1.0 2.734375q0 1.671875 1.09375 2.765625q1.109375 1.09375 2.84375 1.09375q1.015625 0 2.046875 -0.375q1.046875 -0.375 1.890625 -1.1875q0.203125 -0.203125 0.375 -0.203125q0.171875 0 0.28125 0.125q0.125 0.109375 0.125 0.28125q0 0.4375 -1.03125 1.109375q-1.671875 1.109375 -3.71875 1.109375q-2.078125 0 -3.421875 -1.328125q-1.34375 -1.328125 -1.34375 -3.375q0 -2.078125 1.359375 -3.453125q1.375 -1.375 3.46875 -1.375q1.96875 0 3.3125 1.171875zm11.492676 8.015625l0 -1.234375q-1.875 1.578125 -4.015625 1.578125q-1.546875 0 -2.421875 -0.78125q-0.859375 -0.796875 -0.859375 -1.9375q0 -1.25 1.140625 -2.171875q1.15625 -0.9375 3.359375 -0.9375q0.59375 0 1.28125 0.078125q0.703125 0.078125 1.515625 0.234375l0 -1.390625q0 -0.703125 -0.65625 -1.21875q-0.65625 -0.53125 -1.96875 -0.53125q-1.015625 0 -2.828125 0.578125q-0.328125 0.109375 -0.421875 0.109375q-0.15625 0 -0.28125 -0.125q-0.109375 -0.125 -0.109375 -0.3125q0 -0.171875 0.09375 -0.28125q0.15625 -0.140625 1.171875 -0.40625q1.59375 -0.4375 2.40625 -0.4375q1.640625 0 2.546875 0.8125q0.921875 0.796875 0.921875 1.8125l0 5.703125l1.140625 0q0.3125 0 0.4375 0.125q0.140625 0.109375 0.140625 0.296875q0 0.1875 -0.140625 0.3125q-0.125 0.125 -0.4375 0.125l-2.015625 0zm0 -4.28125q-0.609375 -0.171875 -1.296875 -0.25q-0.671875 -0.09375 -1.40625 -0.09375q-1.890625 0 -2.9375 0.8125q-0.796875 0.609375 -0.796875 1.4375q0 0.78125 0.609375 1.328125q0.609375 0.53125 1.78125 0.53125q1.109375 0 2.0625 -0.453125q0.96875 -0.453125 1.984375 -1.421875l0 -1.890625zm10.555176 -8.59375l0 12.015625l3.390625 0q0.3125 0 0.4375 0.125q0.140625 0.109375 0.140625 0.296875q0 0.1875 -0.140625 0.3125q-0.125 0.125 -0.4375 0.125l-7.640625 0q-0.296875 0 -0.4375 -0.125q-0.125 -0.125 -0.125 -0.3125q0 -0.1875 0.125 -0.296875q0.140625 -0.125 0.4375 -0.125l3.390625 0l0 -11.140625l-2.484375 0q-0.296875 0 -0.4375 -0.125q-0.140625 -0.125 -0.140625 -0.3125q0 -0.1875 0.125 -0.3125q0.140625 -0.125 0.453125 -0.125l3.34375 0zm12.602051 0l0 12.015625l3.390625 0q0.3125 0 0.4375 0.125q0.140625 0.109375 0.140625 0.296875q0 0.1875 -0.140625 0.3125q-0.125 0.125 -0.4375 0.125l-7.640625 0q-0.296875 0 -0.4375 -0.125q-0.125 -0.125 -0.125 -0.3125q0 -0.1875 0.125 -0.296875q0.140625 -0.125 0.4375 -0.125l3.390625 0l0 -11.140625l-2.484375 0q-0.296875 0 -0.4375 -0.125q-0.140625 -0.125 -0.140625 -0.3125q0 -0.1875 0.125 -0.3125q0.140625 -0.125 0.453125 -0.125l3.34375 0zm12.070801 7.765625q0 -1.171875 0.296875 -2.5q0.3125 -1.328125 1.1875 -3.046875q0.875 -1.734375 1.28125 -2.09375q0.109375 -0.125 0.265625 -0.125q0.171875 0 0.296875 0.125q0.140625 0.125 0.140625 0.296875q0 0.109375 -0.078125 0.234375q-1.125 2.0625 -1.609375 3.75q-0.484375 1.6875 -0.484375 3.359375q0 1.6875 0.484375 3.375q0.484375 1.6875 1.609375 3.75q0.078125 0.125 0.078125 0.21875q0 0.171875 -0.140625 0.296875q-0.125 0.140625 -0.296875 0.140625q-0.15625 0 -0.265625 -0.125q-0.390625 -0.34375 -1.25 -2.03125q-0.859375 -1.6875 -1.1875 -2.984375q-0.328125 -1.3125 -0.328125 -2.640625zm12.945801 0.015625q0 1.171875 -0.3125 2.5q-0.296875 1.3125 -1.171875 3.046875q-0.875 1.734375 -1.265625 2.09375q-0.125 0.125 -0.265625 0.125q-0.1875 0 -0.3125 -0.140625q-0.125 -0.125 -0.125 -0.296875q0 -0.09375 0.0625 -0.21875q1.125 -2.0625 1.609375 -3.75q0.484375 -1.6875 0.484375 -3.359375q0 -1.6875 -0.484375 -3.375q-0.484375 -1.6875 -1.609375 -3.75q-0.0625 -0.125 -0.0625 -0.234375q0 -0.171875 0.125 -0.296875q0.125 -0.125 0.3125 -0.125q0.140625 0 0.265625 0.125q0.375 0.34375 1.234375 2.03125q0.859375 1.6875 1.1875 3.0q0.328125 1.296875 0.328125 2.625z" fill-rule="nonzero"/><path fill="#000000" fill-opacity="0.0" d="m323.6929 187.33333l279.21262 0" fill-rule="evenodd"/><path stroke="#000000" stroke-width="3.0" stroke-linejoin="round" stroke-linecap="butt" d="m323.6929 187.33333l261.21262 0" fill-rule="evenodd"/><path fill="#000000" stroke="#000000" stroke-width="3.0" stroke-linecap="butt" d="m584.9055 192.28853l13.614258 -4.9552l-13.614258 -4.955185z" fill-rule="evenodd"/><path fill="#000000" fill-opacity="0.0" d="m362.34644 149.11285l184.18896 0l0 33.606308l-184.18896 0z" fill-rule="evenodd"/><path fill="#000000" d="m389.34427 160.52101l0 12.015625l1.15625 0q0.3125 0 0.4375 0.125q0.140625 0.109375 0.140625 0.296875q0 0.1875 -0.140625 0.3125q-0.125 0.125 -0.4375 0.125l-2.015625 0l0 -1.71875q-1.5 2.0625 -3.8125 2.0625q-1.171875 0 -2.25 -0.625q-1.0625 -0.625 -1.6875 -1.765625q-0.609375 -1.15625 -0.609375 -2.375q0 -1.234375 0.609375 -2.375q0.625 -1.140625 1.6875 -1.765625q1.078125 -0.625 2.265625 -0.625q2.25 0 3.796875 2.046875l0 -4.859375l-1.15625 0q-0.3125 0 -0.453125 -0.125q-0.125 -0.125 -0.125 -0.3125q0 -0.1875 0.125 -0.3125q0.140625 -0.125 0.453125 -0.125l2.015625 0zm-0.859375 8.453125q0 -1.640625 -1.109375 -2.765625q-1.109375 -1.125 -2.640625 -1.125q-1.53125 0 -2.640625 1.125q-1.109375 1.125 -1.109375 2.765625q0 1.625 1.109375 2.765625q1.109375 1.140625 2.640625 1.140625q1.53125 0 2.640625 -1.140625q1.109375 -1.140625 1.109375 -2.765625zm13.914551 0.1875l-8.78125 0q0.21875 1.671875 1.390625 2.703125q1.1875 1.015625 2.90625 1.015625q0.96875 0 2.015625 -0.3125q1.0625 -0.328125 1.734375 -0.859375q0.1875 -0.140625 0.34375 -0.140625q0.15625 0 0.28125 0.125q0.125 0.125 0.125 0.296875q0 0.171875 -0.171875 0.34375q-0.484375 0.515625 -1.75 0.96875q-1.25 0.4375 -2.578125 0.4375q-2.203125 0 -3.6875 -1.453125q-1.484375 -1.453125 -1.484375 -3.515625q0 -1.875 1.390625 -3.21875q1.390625 -1.34375 3.4375 -1.34375q2.109375 0 3.46875 1.390625q1.375 1.375 1.359375 3.5625zm-0.875 -0.875q-0.265625 -1.421875 -1.359375 -2.3125q-1.078125 -0.890625 -2.59375 -0.890625q-1.5 0 -2.59375 0.890625q-1.078125 0.875 -1.359375 2.3125l7.90625 0zm9.242676 -7.765625l0 12.015625l3.390625 0q0.3125 0 0.4375 0.125q0.140625 0.109375 0.140625 0.296875q0 0.1875 -0.140625 0.3125q-0.125 0.125 -0.4375 0.125l-7.640625 0q-0.296875 0 -0.4375 -0.125q-0.125 -0.125 -0.125 -0.3125q0 -0.1875 0.125 -0.296875q0.140625 -0.125 0.4375 -0.125l3.390625 0l0 -11.140625l-2.484375 0q-0.296875 0 -0.4375 -0.125q-0.140625 -0.125 -0.140625 -0.3125q0 -0.1875 0.125 -0.3125q0.140625 -0.125 0.453125 -0.125l3.34375 0zm16.836426 8.640625l-8.78125 0q0.21875 1.671875 1.390625 2.703125q1.1875 1.015625 2.90625 1.015625q0.96875 0 2.015625 -0.3125q1.0625 -0.328125 1.734375 -0.859375q0.1875 -0.140625 0.34375 -0.140625q0.15625 0 0.28125 0.125q0.125 0.125 0.125 0.296875q0 0.171875 -0.171875 0.34375q-0.484375 0.515625 -1.75 0.96875q-1.25 0.4375 -2.578125 0.4375q-2.203125 0 -3.6875 -1.453125q-1.484375 -1.453125 -1.484375 -3.515625q0 -1.875 1.390625 -3.21875q1.390625 -1.34375 3.4375 -1.34375q2.109375 0 3.46875 1.390625q1.375 1.375 1.359375 3.5625zm-0.875 -0.875q-0.265625 -1.421875 -1.359375 -2.3125q-1.078125 -0.890625 -2.59375 -0.890625q-1.5 0 -2.59375 0.890625q-1.078125 0.875 -1.359375 2.3125l7.90625 0zm11.711426 -2.1875l0 -1.578125l2.015625 0q0.3125 0 0.4375 0.125q0.140625 0.109375 0.140625 0.3125q0 0.1875 -0.140625 0.3125q-0.125 0.109375 -0.4375 0.109375l-1.15625 0l0 8.609375q0 0.859375 -0.375 1.546875q-0.25 0.4375 -0.828125 0.921875q-0.5625 0.484375 -1.03125 0.6875q-0.46875 0.203125 -1.265625 0.203125l-2.4375 0q-0.3125 0 -0.453125 -0.125q-0.125 -0.109375 -0.125 -0.296875q0 -0.203125 0.125 -0.328125q0.140625 -0.109375 0.453125 -0.109375l2.46875 0q0.765625 0 1.375 -0.390625q0.609375 -0.390625 1.0 -1.140625q0.234375 -0.421875 0.234375 -1.09375l0 -2.578125q-1.390625 1.890625 -3.578125 1.890625q-1.765625 0 -3.0625 -1.3125q-1.28125 -1.3125 -1.28125 -3.171875q0 -1.859375 1.28125 -3.171875q1.296875 -1.3125 3.0625 -1.3125q2.1875 0 3.578125 1.890625zm0 2.59375q0 -1.515625 -1.046875 -2.5625q-1.046875 -1.046875 -2.484375 -1.046875q-1.453125 0 -2.484375 1.046875q-1.03125 1.046875 -1.03125 2.5625q0 1.515625 1.03125 2.5625q1.03125 1.046875 2.484375 1.046875q1.4375 0 2.484375 -1.046875q1.046875 -1.046875 1.046875 -2.5625zm12.180176 4.703125l0 -1.234375q-1.875 1.578125 -4.015625 1.578125q-1.546875 0 -2.421875 -0.78125q-0.859375 -0.796875 -0.859375 -1.9375q0 -1.25 1.140625 -2.171875q1.15625 -0.9375 3.359375 -0.9375q0.59375 0 1.28125 0.078125q0.703125 0.078125 1.515625 0.234375l0 -1.390625q0 -0.703125 -0.65625 -1.21875q-0.65625 -0.53125 -1.96875 -0.53125q-1.015625 0 -2.828125 0.578125q-0.328125 0.109375 -0.421875 0.109375q-0.15625 0 -0.28125 -0.125q-0.109375 -0.125 -0.109375 -0.3125q0 -0.171875 0.09375 -0.28125q0.15625 -0.140625 1.171875 -0.40625q1.59375 -0.4375 2.40625 -0.4375q1.640625 0 2.546875 0.8125q0.921875 0.796875 0.921875 1.8125l0 5.703125l1.140625 0q0.3125 0 0.4375 0.125q0.140625 0.109375 0.140625 0.296875q0 0.1875 -0.140625 0.3125q-0.125 0.125 -0.4375 0.125l-2.015625 0zm0 -4.28125q-0.609375 -0.171875 -1.296875 -0.25q-0.671875 -0.09375 -1.40625 -0.09375q-1.890625 0 -2.9375 0.8125q-0.796875 0.609375 -0.796875 1.4375q0 0.78125 0.609375 1.328125q0.609375 0.53125 1.78125 0.53125q1.109375 0 2.0625 -0.453125q0.96875 -0.453125 1.984375 -1.421875l0 -1.890625zm8.352051 -4.59375l4.671875 0q0.3125 0 0.4375 0.125q0.140625 0.109375 0.140625 0.3125q0 0.1875 -0.140625 0.3125q-0.125 0.109375 -0.4375 0.109375l-4.671875 0l0 5.734375q0 0.75 0.59375 1.265625q0.609375 0.5 1.765625 0.5q0.875 0 1.890625 -0.265625q1.015625 -0.265625 1.578125 -0.59375q0.203125 -0.125 0.328125 -0.125q0.171875 0 0.296875 0.125q0.125 0.125 0.125 0.296875q0 0.15625 -0.140625 0.28125q-0.328125 0.34375 -1.59375 0.75q-1.265625 0.390625 -2.421875 0.390625q-1.515625 0 -2.40625 -0.703125q-0.890625 -0.71875 -0.890625 -1.921875l0 -5.734375l-1.578125 0q-0.3125 0 -0.453125 -0.109375q-0.125 -0.125 -0.125 -0.328125q0 -0.1875 0.125 -0.296875q0.140625 -0.125 0.453125 -0.125l1.578125 0l0 -2.546875q0 -0.3125 0.125 -0.4375q0.125 -0.140625 0.3125 -0.140625q0.1875 0 0.3125 0.140625q0.125 0.125 0.125 0.4375l0 2.546875zm19.03955 4.640625l-8.78125 0q0.21875 1.671875 1.390625 2.703125q1.1875 1.015625 2.90625 1.015625q0.96875 0 2.015625 -0.3125q1.0625 -0.328125 1.734375 -0.859375q0.1875 -0.140625 0.34375 -0.140625q0.15625 0 0.28125 0.125q0.125 0.125 0.125 0.296875q0 0.171875 -0.171875 0.34375q-0.484375 0.515625 -1.75 0.96875q-1.25 0.4375 -2.578125 0.4375q-2.203125 0 -3.6875 -1.453125q-1.484375 -1.453125 -1.484375 -3.515625q0 -1.875 1.390625 -3.21875q1.390625 -1.34375 3.4375 -1.34375q2.109375 0 3.46875 1.390625q1.375 1.375 1.359375 3.5625zm-0.875 -0.875q-0.265625 -1.421875 -1.359375 -2.3125q-1.078125 -0.890625 -2.59375 -0.890625q-1.5 0 -2.59375 0.890625q-1.078125 0.875 -1.359375 2.3125l7.90625 0zm12.398926 -2.90625l0 -0.28125q0 -0.3125 0.125 -0.4375q0.125 -0.140625 0.3125 -0.140625q0.1875 0 0.3125 0.140625q0.12496948 0.125 0.12496948 0.4375l0 1.953125q-0.015625 0.3125 -0.14059448 0.453125q-0.109375 0.125 -0.296875 0.125q-0.171875 0 -0.296875 -0.109375q-0.109375 -0.125 -0.140625 -0.40625q-0.0625 -0.71875 -0.953125 -1.375q-0.890625 -0.65625 -2.421875 -0.65625q-1.90625 0 -2.90625 1.203125q-1.0 1.1875 -1.0 2.734375q0 1.671875 1.09375 2.765625q1.109375 1.09375 2.84375 1.09375q1.015625 0 2.046875 -0.375q1.046875 -0.375 1.890625 -1.1875q0.203125 -0.203125 0.37496948 -0.203125q0.171875 0 0.28125 0.125q0.125 0.109375 0.125 0.28125q0 0.4375 -1.0312195 1.109375q-1.671875 1.109375 -3.71875 1.109375q-2.078125 0 -3.421875 -1.328125q-1.34375 -1.328125 -1.34375 -3.375q0 -2.078125 1.359375 -3.453125q1.375 -1.375 3.46875 -1.375q1.96875 0 3.3125 1.171875zm11.492645 8.015625l0 -1.234375q-1.875 1.578125 -4.015625 1.578125q-1.546875 0 -2.421875 -0.78125q-0.859375 -0.796875 -0.859375 -1.9375q0 -1.25 1.140625 -2.171875q1.15625 -0.9375 3.359375 -0.9375q0.59375 0 1.28125 0.078125q0.703125 0.078125 1.515625 0.234375l0 -1.390625q0 -0.703125 -0.65625 -1.21875q-0.65625 -0.53125 -1.96875 -0.53125q-1.015625 0 -2.828125 0.578125q-0.328125 0.109375 -0.421875 0.109375q-0.15625 0 -0.28125 -0.125q-0.109375 -0.125 -0.109375 -0.3125q0 -0.171875 0.09375 -0.28125q0.15625 -0.140625 1.171875 -0.40625q1.59375 -0.4375 2.40625 -0.4375q1.640625 0 2.546875 0.8125q0.921875 0.796875 0.921875 1.8125l0 5.703125l1.140625 0q0.3125 0 0.4375 0.125q0.140625 0.109375 0.140625 0.296875q0 0.1875 -0.140625 0.3125q-0.125 0.125 -0.4375 0.125l-2.015625 0zm0 -4.28125q-0.609375 -0.171875 -1.296875 -0.25q-0.671875 -0.09375 -1.40625 -0.09375q-1.890625 0 -2.9375 0.8125q-0.796875 0.609375 -0.796875 1.4375q0 0.78125 0.609375 1.328125q0.609375 0.53125 1.78125 0.53125q1.109375 0 2.0625 -0.453125q0.96875 -0.453125 1.984375 -1.421875l0 -1.890625zm10.555176 -8.59375l0 12.015625l3.390625 0q0.3125 0 0.4375 0.125q0.140625 0.109375 0.140625 0.296875q0 0.1875 -0.140625 0.3125q-0.125 0.125 -0.4375 0.125l-7.640625 0q-0.296875 0 -0.4375 -0.125q-0.125 -0.125 -0.125 -0.3125q0 -0.1875 0.125 -0.296875q0.140625 -0.125 0.4375 -0.125l3.390625 0l0 -11.140625l-2.484375 0q-0.296875 0 -0.4375 -0.125q-0.140625 -0.125 -0.140625 -0.3125q0 -0.1875 0.125 -0.3125q0.140625 -0.125 0.453125 -0.125l3.34375 0zm12.602051 0l0 12.015625l3.390625 0q0.3125 0 0.4375 0.125q0.140625 0.109375 0.140625 0.296875q0 0.1875 -0.140625 0.3125q-0.125 0.125 -0.4375 0.125l-7.640625 0q-0.296875 0 -0.4375 -0.125q-0.125 -0.125 -0.125 -0.3125q0 -0.1875 0.125 -0.296875q0.140625 -0.125 0.4375 -0.125l3.390625 0l0 -11.140625l-2.484375 0q-0.296875 0 -0.4375 -0.125q-0.140625 -0.125 -0.140625 -0.3125q0 -0.1875 0.125 -0.3125q0.140625 -0.125 0.453125 -0.125l3.34375 0z" fill-rule="nonzero"/><path fill="#ffffff" d="m1103.0945 22.356955l282.73425 0l35.438965 35.439034l0 177.19089l-318.17322 0z" fill-rule="evenodd"/><path stroke="#000000" stroke-width="2.0" stroke-linejoin="round" stroke-linecap="butt" stroke-dasharray="8.0,6.0" d="m1103.0945 22.356955l282.73425 0l35.438965 35.439034l0 177.19089l-318.17322 0z" fill-rule="evenodd"/><path fill="#000000" fill-opacity="0.0" d="m1128.1548 59.39895l195.27551 0l0 74.992134l-195.27551 0z" fill-rule="evenodd"/><path fill="#000000" d="m1151.2642 85.4077l2.28125 0.578125q-0.71875 2.796875 -2.578125 4.28125q-1.859375 1.46875 -4.546875 1.46875q-2.765625 0 -4.515625 -1.125q-1.734375 -1.140625 -2.640625 -3.28125q-0.90625 -2.15625 -0.90625 -4.609375q0 -2.6875 1.015625 -4.6875q1.03125 -2.0 2.921875 -3.03125q1.890625 -1.03125 4.171875 -1.03125q2.578125 0 4.328125 1.3125q1.765625 1.3125 2.453125 3.6875l-2.234375 0.53125q-0.609375 -1.875 -1.75 -2.734375q-1.125 -0.859375 -2.84375 -0.859375q-1.984375 0 -3.3125 0.953125q-1.328125 0.953125 -1.875 2.546875q-0.53125 1.59375 -0.53125 3.296875q0 2.1875 0.625 3.828125q0.640625 1.640625 1.984375 2.453125q1.359375 0.796875 2.921875 0.796875q1.921875 0 3.234375 -1.09375q1.328125 -1.109375 1.796875 -3.28125zm4.0195312 -0.1875q0 -3.46875 1.921875 -5.125q1.609375 -1.390625 3.921875 -1.390625q2.5625 0 4.1875 1.6875q1.625 1.6875 1.625 4.640625q0 2.40625 -0.71875 3.78125q-0.71875 1.375 -2.09375 2.140625q-1.375 0.765625 -3.0 0.765625q-2.625 0 -4.234375 -1.671875q-1.609375 -1.6875 -1.609375 -4.828125zm2.171875 0q0 2.390625 1.03125 3.578125q1.046875 1.1875 2.640625 1.1875q1.5625 0 2.609375 -1.1875q1.046875 -1.203125 1.046875 -3.65625q0 -2.3125 -1.0625 -3.5q-1.046875 -1.1875 -2.59375 -1.1875q-1.59375 0 -2.640625 1.1875q-1.03125 1.1875 -1.03125 3.578125zm20.113281 6.21875l0 -1.828125q-1.453125 2.109375 -3.9375 2.109375q-1.109375 0 -2.0625 -0.421875q-0.953125 -0.421875 -1.421875 -1.0625q-0.453125 -0.640625 -0.640625 -1.5625q-0.140625 -0.625 -0.140625 -1.96875l0 -7.71875l2.109375 0l0 6.90625q0 1.65625 0.140625 2.234375q0.1875 0.828125 0.828125 1.3125q0.65625 0.46875 1.609375 0.46875q0.9375 0 1.765625 -0.484375q0.84375 -0.5 1.1875 -1.328125q0.34375 -0.84375 0.34375 -2.4375l0 -6.671875l2.109375 0l0 12.453125l-1.890625 0zm5.1914062 0l0 -12.453125l1.90625 0l0 1.78125q1.375 -2.0625 3.953125 -2.0625q1.125 0 2.0625 0.40625q0.953125 0.40625 1.421875 1.0625q0.46875 0.65625 0.65625 1.5625q0.125 0.578125 0.125 2.046875l0 7.65625l-2.109375 0l0 -7.578125q0 -1.28125 -0.25 -1.921875q-0.25 -0.640625 -0.875 -1.015625q-0.625 -0.390625 -1.46875 -0.390625q-1.34375 0 -2.328125 0.859375q-0.984375 0.859375 -0.984375 3.25l0 6.796875l-2.109375 0zm17.957031 -1.890625l0.3125 1.859375q-0.890625 0.203125 -1.59375 0.203125q-1.15625 0 -1.796875 -0.359375q-0.625 -0.375 -0.890625 -0.96875q-0.25 -0.59375 -0.25 -2.484375l0 -7.171875l-1.546875 0l0 -1.640625l1.546875 0l0 -3.078125l2.09375 -1.265625l0 4.34375l2.125 0l0 1.640625l-2.125 0l0 7.28125q0 0.90625 0.109375 1.171875q0.125 0.25 0.375 0.40625q0.25 0.140625 0.71875 0.140625q0.34375 0 0.921875 -0.078125zm10.589844 -2.125l2.171875 0.28125q-0.515625 1.90625 -1.90625 2.96875q-1.390625 1.046875 -3.5625 1.046875q-2.734375 0 -4.34375 -1.671875q-1.59375 -1.6875 -1.59375 -4.734375q0 -3.140625 1.609375 -4.875q1.625 -1.734375 4.203125 -1.734375q2.5 0 4.078125 1.703125q1.59375 1.703125 1.59375 4.78125q0 0.1875 -0.015625 0.5625l-9.28125 0q0.109375 2.046875 1.15625 3.140625q1.046875 1.09375 2.609375 1.09375q1.15625 0 1.96875 -0.609375q0.828125 -0.609375 1.3125 -1.953125zm-6.9375 -3.40625l6.953125 0q-0.140625 -1.5625 -0.796875 -2.359375q-1.0 -1.21875 -2.609375 -1.21875q-1.453125 0 -2.453125 0.984375q-0.984375 0.96875 -1.09375 2.59375zm11.738281 7.421875l0 -12.453125l1.890625 0l0 1.890625q0.734375 -1.328125 1.34375 -1.75q0.625 -0.421875 1.359375 -0.421875q1.0625 0 2.171875 0.6875l-0.734375 1.953125q-0.765625 -0.453125 -1.546875 -0.453125q-0.6875 0 -1.25 0.421875q-0.546875 0.40625 -0.78125 1.140625q-0.34375 1.125 -0.34375 2.46875l0 6.515625l-2.109375 0zm8.5234375 0l0 -10.8125l-1.875 0l0 -1.640625l1.875 0l0 -1.3125q0 -1.265625 0.21875 -1.875q0.296875 -0.8125 1.0625 -1.3125q0.78125 -0.515625 2.15625 -0.515625q0.890625 0 1.96875 0.203125l-0.3125 1.84375q-0.65625 -0.125 -1.25 -0.125q-0.953125 0 -1.359375 0.421875q-0.390625 0.40625 -0.390625 1.53125l0 1.140625l2.421875 0l0 1.640625l-2.421875 0l0 10.8125l-2.09375 0zm14.277344 -1.53125q-1.171875 0.984375 -2.265625 1.40625q-1.078125 0.40625 -2.3125 0.40625q-2.046875 0 -3.15625 -1.0q-1.09375 -1.0 -1.09375 -2.5625q0 -0.921875 0.40625 -1.671875q0.421875 -0.75 1.09375 -1.203125q0.671875 -0.46875 1.515625 -0.703125q0.625 -0.15625 1.875 -0.3125q2.5625 -0.3125 3.765625 -0.734375q0.015625 -0.421875 0.015625 -0.546875q0 -1.28125 -0.609375 -1.8125q-0.796875 -0.71875 -2.390625 -0.71875q-1.5 0 -2.203125 0.53125q-0.703125 0.515625 -1.046875 1.84375l-2.0625 -0.28125q0.28125 -1.328125 0.921875 -2.140625q0.640625 -0.8125 1.859375 -1.25q1.21875 -0.453125 2.828125 -0.453125q1.59375 0 2.59375 0.375q1.0 0.375 1.46875 0.953125q0.46875 0.5625 0.65625 1.4375q0.09375 0.53125 0.09375 1.9375l0 2.8125q0 2.9375 0.140625 3.71875q0.140625 0.78125 0.53125 1.5l-2.203125 0q-0.328125 -0.65625 -0.421875 -1.53125zm-0.171875 -4.71875q-1.15625 0.46875 -3.453125 0.796875q-1.296875 0.1875 -1.84375 0.421875q-0.53125 0.234375 -0.828125 0.6875q-0.28125 0.453125 -0.28125 1.0q0 0.84375 0.625 1.40625q0.640625 0.5625 1.875 0.5625q1.21875 0 2.171875 -0.53125q0.953125 -0.53125 1.390625 -1.453125q0.34375 -0.71875 0.34375 -2.109375l0 -0.78125zm13.519531 1.6875l2.078125 0.265625q-0.34375 2.15625 -1.75 3.375q-1.390625 1.203125 -3.4375 1.203125q-2.546875 0 -4.109375 -1.671875q-1.546875 -1.671875 -1.546875 -4.78125q0 -2.015625 0.671875 -3.53125q0.671875 -1.515625 2.03125 -2.265625q1.359375 -0.765625 2.96875 -0.765625q2.03125 0 3.3125 1.03125q1.296875 1.03125 1.65625 2.90625l-2.046875 0.328125q-0.296875 -1.265625 -1.046875 -1.890625q-0.734375 -0.640625 -1.796875 -0.640625q-1.59375 0 -2.59375 1.15625q-0.984375 1.140625 -0.984375 3.609375q0 2.5 0.953125 3.640625q0.96875 1.140625 2.515625 1.140625q1.234375 0 2.0625 -0.765625q0.84375 -0.765625 1.0625 -2.34375zm8.484375 2.671875l0.3125 1.859375q-0.890625 0.203125 -1.59375 0.203125q-1.15625 0 -1.796875 -0.359375q-0.625 -0.375 -0.890625 -0.96875q-0.25 -0.59375 -0.25 -2.484375l0 -7.171875l-1.546875 0l0 -1.640625l1.546875 0l0 -3.078125l2.09375 -1.265625l0 4.34375l2.125 0l0 1.640625l-2.125 0l0 7.28125q0 0.90625 0.109375 1.171875q0.125 0.25 0.375 0.40625q0.25 0.140625 0.71875 0.140625q0.34375 0 0.921875 -0.078125zm10.214844 1.890625l0 -1.828125q-1.453125 2.109375 -3.9375 2.109375q-1.109375 0 -2.0625 -0.421875q-0.953125 -0.421875 -1.421875 -1.0625q-0.453125 -0.640625 -0.640625 -1.5625q-0.140625 -0.625 -0.140625 -1.96875l0 -7.71875l2.109375 0l0 6.90625q0 1.65625 0.140625 2.234375q0.1875 0.828125 0.828125 1.3125q0.65625 0.46875 1.609375 0.46875q0.9375 0 1.765625 -0.484375q0.84375 -0.5 1.1875 -1.328125q0.34375 -0.84375 0.34375 -2.4375l0 -6.671875l2.109375 0l0 12.453125l-1.890625 0zm13.316406 -1.53125q-1.171875 0.984375 -2.265625 1.40625q-1.078125 0.40625 -2.3125 0.40625q-2.046875 0 -3.15625 -1.0q-1.09375 -1.0 -1.09375 -2.5625q0 -0.921875 0.40625 -1.671875q0.421875 -0.75 1.09375 -1.203125q0.671875 -0.46875 1.515625 -0.703125q0.625 -0.15625 1.875 -0.3125q2.5625 -0.3125 3.765625 -0.734375q0.015625 -0.421875 0.015625 -0.546875q0 -1.28125 -0.609375 -1.8125q-0.796875 -0.71875 -2.390625 -0.71875q-1.5 0 -2.203125 0.53125q-0.703125 0.515625 -1.046875 1.84375l-2.0625 -0.28125q0.28125 -1.328125 0.921875 -2.140625q0.640625 -0.8125 1.859375 -1.25q1.21875 -0.453125 2.828125 -0.453125q1.59375 0 2.59375 0.375q1.0 0.375 1.46875 0.953125q0.46875 0.5625 0.65625 1.4375q0.09375 0.53125 0.09375 1.9375l0 2.8125q0 2.9375 0.140625 3.71875q0.140625 0.78125 0.53125 1.5l-2.203125 0q-0.328125 -0.65625 -0.421875 -1.53125zm-0.171875 -4.71875q-1.15625 0.46875 -3.453125 0.796875q-1.296875 0.1875 -1.84375 0.421875q-0.53125 0.234375 -0.828125 0.6875q-0.28125 0.453125 -0.28125 1.0q0 0.84375 0.625 1.40625q0.640625 0.5625 1.875 0.5625q1.21875 0 2.171875 -0.53125q0.953125 -0.53125 1.390625 -1.453125q0.34375 -0.71875 0.34375 -2.109375l0 -0.78125zm5.3476562 6.25l0 -17.1875l2.109375 0l0 17.1875l-2.109375 0z" fill-rule="nonzero"/><path fill="#000000" d="m1138.311 112.06395q0 -4.265625 2.296875 -6.6875q2.296875 -2.421875 5.9375 -2.421875q2.375 0 4.28125 1.140625q1.921875 1.125 2.921875 3.171875q1.0 2.03125 1.0 4.609375q0 2.609375 -1.0625 4.671875q-1.046875 2.0625 -2.984375 3.125q-1.9375 1.0625 -4.171875 1.0625q-2.421875 0 -4.34375 -1.171875q-1.90625 -1.171875 -2.890625 -3.203125q-0.984375 -2.03125 -0.984375 -4.296875zm2.34375 0.046875q0 3.09375 1.671875 4.890625q1.671875 1.78125 4.1875 1.78125q2.578125 0 4.234375 -1.796875q1.65625 -1.8125 1.65625 -5.125q0 -2.09375 -0.71875 -3.65625q-0.703125 -1.578125 -2.078125 -2.4375q-1.359375 -0.859375 -3.046875 -0.859375q-2.421875 0 -4.171875 1.65625q-1.734375 1.65625 -1.734375 5.546875zm18.699219 8.328125l-1.953125 0l0 -17.1875l2.109375 0l0 6.140625q1.328125 -1.6875 3.40625 -1.6875q1.140625 0 2.171875 0.46875q1.03125 0.46875 1.6875 1.3125q0.65625 0.828125 1.03125 2.015625q0.375 1.171875 0.375 2.53125q0 3.1875 -1.578125 4.9375q-1.578125 1.75 -3.796875 1.75q-2.203125 0 -3.453125 -1.84375l0 1.5625zm-0.03125 -6.3125q0 2.234375 0.609375 3.234375q1.0 1.625 2.703125 1.625q1.375 0 2.375 -1.203125q1.015625 -1.203125 1.015625 -3.578125q0 -2.4375 -0.96875 -3.59375q-0.953125 -1.171875 -2.328125 -1.171875q-1.390625 0 -2.40625 1.203125q-1.0 1.203125 -1.0 3.484375zm11.425781 -8.421875l0 -2.453125l2.109375 0l0 2.453125l-2.109375 0zm-2.6875 19.5625l0.40625 -1.796875q0.625 0.171875 1.0 0.171875q0.640625 0 0.953125 -0.4375q0.328125 -0.421875 0.328125 -2.125l0 -13.09375l2.109375 0l0 13.140625q0 2.296875 -0.609375 3.1875q-0.75 1.171875 -2.53125 1.171875q-0.859375 0 -1.65625 -0.21875zm16.550781 -8.84375l2.171875 0.28125q-0.515625 1.90625 -1.90625 2.96875q-1.390625 1.046875 -3.5625 1.046875q-2.734375 0 -4.34375 -1.671875q-1.59375 -1.6875 -1.59375 -4.734375q0 -3.140625 1.609375 -4.875q1.625 -1.734375 4.203125 -1.734375q2.5 0 4.078125 1.703125q1.59375 1.703125 1.59375 4.78125q0 0.1875 -0.015625 0.5625l-9.28125 0q0.109375 2.046875 1.15625 3.140625q1.046875 1.09375 2.609375 1.09375q1.15625 0 1.96875 -0.609375q0.828125 -0.609375 1.3125 -1.953125zm-6.9375 -3.40625l6.953125 0q-0.140625 -1.5625 -0.796875 -2.359375q-1.0 -1.21875 -2.609375 -1.21875q-1.453125 0 -2.453125 0.984375q-0.984375 0.96875 -1.09375 2.59375zm19.878906 2.859375l2.078125 0.265625q-0.34375 2.15625 -1.75 3.375q-1.390625 1.203125 -3.4375 1.203125q-2.546875 0 -4.109375 -1.671875q-1.546875 -1.671875 -1.546875 -4.78125q0 -2.015625 0.671875 -3.53125q0.671875 -1.515625 2.03125 -2.265625q1.359375 -0.765625 2.96875 -0.765625q2.03125 0 3.3125 1.03125q1.296875 1.03125 1.65625 2.90625l-2.046875 0.328125q-0.296875 -1.265625 -1.046875 -1.890625q-0.734375 -0.640625 -1.796875 -0.640625q-1.59375 0 -2.59375 1.15625q-0.984375 1.140625 -0.984375 3.609375q0 2.5 0.953125 3.640625q0.96875 1.140625 2.515625 1.140625q1.234375 0 2.0625 -0.765625q0.84375 -0.765625 1.0625 -2.34375zm8.484375 2.671875l0.3125 1.859375q-0.890625 0.203125 -1.59375 0.203125q-1.15625 0 -1.796875 -0.359375q-0.625 -0.375 -0.890625 -0.96875q-0.25 -0.59375 -0.25 -2.484375l0 -7.171875l-1.546875 0l0 -1.640625l1.546875 0l0 -3.078125l2.09375 -1.265625l0 4.34375l2.125 0l0 1.640625l-2.125 0l0 7.28125q0 0.90625 0.109375 1.171875q0.125 0.25 0.375 0.40625q0.25 0.140625 0.71875 0.140625q0.34375 0 0.921875 -0.078125z" fill-rule="nonzero"/><path fill="#000000" fill-opacity="0.0" d="m1144.1549 168.59317l248.62988 0l0 37.480316l-248.62988 0z" fill-rule="evenodd"/><path fill="#000000" d="m1162.4049 194.81334l0 -1.265625q-1.765625 1.609375 -3.8125 1.609375q-1.265625 0 -1.921875 -0.6875q-0.84375 -0.90625 -0.84375 -2.109375l0 -5.5625l-1.171875 0q-0.296875 0 -0.4375 -0.109375q-0.125 -0.125 -0.125 -0.328125q0 -0.1875 0.125 -0.296875q0.140625 -0.125 0.4375 -0.125l2.03125 0l0 6.421875q0 0.84375 0.53125 1.390625q0.53125 0.546875 1.328125 0.546875q2.109375 0 3.859375 -1.9375l0 -5.5625l-1.59375 0q-0.296875 0 -0.4375 -0.109375q-0.140625 -0.125 -0.140625 -0.328125q0 -0.1875 0.140625 -0.296875q0.140625 -0.125 0.4375 -0.125l2.453125 0l0 8.015625l0.734375 0q0.296875 0 0.421875 0.125q0.140625 0.109375 0.140625 0.296875q0 0.1875 -0.140625 0.3125q-0.125 0.125 -0.421875 0.125l-1.59375 0zm6.414551 -8.875l0 1.5625q0.765625 -0.9375 1.640625 -1.40625q0.890625 -0.46875 2.078125 -0.46875q1.28125 0 2.359375 0.59375q1.078125 0.59375 1.65625 1.65625q0.59375 1.0625 0.59375 2.234375q0 1.859375 -1.328125 3.171875q-1.328125 1.3125 -3.265625 1.3125q-2.3125 0 -3.734375 -1.875l0 5.1875l2.078125 0q0.3125 0 0.4375 0.109375q0.140625 0.125 0.140625 0.328125q0 0.1875 -0.140625 0.296875q-0.125 0.125 -0.4375 0.125l-4.109375 0q-0.296875 0 -0.4375 -0.125q-0.125 -0.109375 -0.125 -0.296875q0 -0.203125 0.125 -0.328125q0.140625 -0.109375 0.4375 -0.109375l1.15625 0l0 -11.109375l-1.15625 0q-0.296875 0 -0.4375 -0.109375q-0.125 -0.125 -0.125 -0.328125q0 -0.1875 0.125 -0.296875q0.140625 -0.125 0.4375 -0.125l2.03125 0zm7.453125 4.171875q0 -1.484375 -1.078125 -2.546875q-1.078125 -1.0625 -2.640625 -1.0625q-1.5625 0 -2.65625 1.0625q-1.078125 1.0625 -1.078125 2.546875q0 1.484375 1.078125 2.546875q1.09375 1.0625 2.65625 1.0625q1.546875 0 2.625 -1.046875q1.09375 -1.0625 1.09375 -2.5625zm12.602051 -8.171875l0 12.015625l1.15625 0q0.3125 0 0.4375 0.125q0.140625 0.109375 0.140625 0.296875q0 0.1875 -0.140625 0.3125q-0.125 0.125 -0.4375 0.125l-2.015625 0l0 -1.71875q-1.5 2.0625 -3.8125 2.0625q-1.171875 0 -2.25 -0.625q-1.0625 -0.625 -1.6875 -1.765625q-0.609375 -1.15625 -0.609375 -2.375q0 -1.234375 0.609375 -2.375q0.625 -1.140625 1.6875 -1.765625q1.078125 -0.625 2.265625 -0.625q2.25 0 3.796875 2.046875l0 -4.859375l-1.15625 0q-0.3125 0 -0.453125 -0.125q-0.125 -0.125 -0.125 -0.3125q0 -0.1875 0.125 -0.3125q0.140625 -0.125 0.453125 -0.125l2.015625 0zm-0.859375 8.453125q0 -1.640625 -1.109375 -2.765625q-1.109375 -1.125 -2.640625 -1.125q-1.53125 0 -2.640625 1.125q-1.109375 1.125 -1.109375 2.765625q0 1.625 1.109375 2.765625q1.109375 1.140625 2.640625 1.140625q1.53125 0 2.640625 -1.140625q1.109375 -1.140625 1.109375 -2.765625zm11.727051 4.421875l0 -1.234375q-1.875 1.578125 -4.015625 1.578125q-1.546875 0 -2.421875 -0.78125q-0.859375 -0.796875 -0.859375 -1.9375q0 -1.25 1.140625 -2.171875q1.15625 -0.9375 3.359375 -0.9375q0.59375 0 1.28125 0.078125q0.703125 0.078125 1.515625 0.234375l0 -1.390625q0 -0.703125 -0.65625 -1.21875q-0.65625 -0.53125 -1.96875 -0.53125q-1.015625 0 -2.828125 0.578125q-0.328125 0.109375 -0.421875 0.109375q-0.15625 0 -0.28125 -0.125q-0.109375 -0.125 -0.109375 -0.3125q0 -0.171875 0.09375 -0.28125q0.15625 -0.140625 1.171875 -0.40625q1.59375 -0.4375 2.40625 -0.4375q1.640625 0 2.546875 0.8125q0.921875 0.796875 0.921875 1.8125l0 5.703125l1.140625 0q0.3125 0 0.4375 0.125q0.140625 0.109375 0.140625 0.296875q0 0.1875 -0.140625 0.3125q-0.125 0.125 -0.4375 0.125l-2.015625 0zm0 -4.28125q-0.609375 -0.171875 -1.296875 -0.25q-0.671875 -0.09375 -1.40625 -0.09375q-1.890625 0 -2.9375 0.8125q-0.796875 0.609375 -0.796875 1.4375q0 0.78125 0.609375 1.328125q0.609375 0.53125 1.78125 0.53125q1.109375 0 2.0625 -0.453125q0.96875 -0.453125 1.984375 -1.421875l0 -1.890625zm8.352051 -4.59375l4.671875 0q0.3125 0 0.4375 0.125q0.140625 0.109375 0.140625 0.3125q0 0.1875 -0.140625 0.3125q-0.125 0.109375 -0.4375 0.109375l-4.671875 0l0 5.734375q0 0.75 0.59375 1.265625q0.609375 0.5 1.765625 0.5q0.875 0 1.890625 -0.265625q1.015625 -0.265625 1.578125 -0.59375q0.203125 -0.125 0.328125 -0.125q0.171875 0 0.296875 0.125q0.125 0.125 0.125 0.296875q0 0.15625 -0.140625 0.28125q-0.328125 0.34375 -1.59375 0.75q-1.265625 0.390625 -2.421875 0.390625q-1.515625 0 -2.40625 -0.703125q-0.890625 -0.71875 -0.890625 -1.921875l0 -5.734375l-1.578125 0q-0.3125 0 -0.453125 -0.109375q-0.125 -0.125 -0.125 -0.328125q0 -0.1875 0.125 -0.296875q0.140625 -0.125 0.453125 -0.125l1.578125 0l0 -2.546875q0 -0.3125 0.125 -0.4375q0.125 -0.140625 0.3125 -0.140625q0.1875 0 0.3125 0.140625q0.125 0.125 0.125 0.4375l0 2.546875zm19.03955 4.640625l-8.78125 0q0.21875 1.671875 1.390625 2.703125q1.1875 1.015625 2.90625 1.015625q0.96875 0 2.015625 -0.3125q1.0625 -0.328125 1.734375 -0.859375q0.1875 -0.140625 0.34375 -0.140625q0.15625 0 0.28125 0.125q0.125 0.125 0.125 0.296875q0 0.171875 -0.171875 0.34375q-0.484375 0.515625 -1.75 0.96875q-1.25 0.4375 -2.578125 0.4375q-2.203125 0 -3.6875 -1.453125q-1.484375 -1.453125 -1.484375 -3.515625q0 -1.875 1.390625 -3.21875q1.390625 -1.34375 3.4375 -1.34375q2.109375 0 3.46875 1.390625q1.375 1.375 1.359375 3.5625zm-0.875 -0.875q-0.265625 -1.421875 -1.359375 -2.3125q-1.078125 -0.890625 -2.59375 -0.890625q-1.5 0 -2.59375 0.890625q-1.078125 0.875 -1.359375 2.3125l7.90625 0zm8.711426 0q0 -1.171875 0.296875 -2.5q0.3125 -1.328125 1.1875 -3.046875q0.875 -1.734375 1.28125 -2.09375q0.109375 -0.125 0.265625 -0.125q0.171875 0 0.296875 0.125q0.140625 0.125 0.140625 0.296875q0 0.109375 -0.078125 0.234375q-1.125 2.0625 -1.609375 3.75q-0.484375 1.6875 -0.484375 3.359375q0 1.6875 0.484375 3.375q0.484375 1.6875 1.609375 3.75q0.078125 0.125 0.078125 0.21875q0 0.171875 -0.140625 0.296875q-0.125 0.140625 -0.296875 0.140625q-0.15625 0 -0.265625 -0.125q-0.390625 -0.34375 -1.25 -2.03125q-0.859375 -1.6875 -1.1875 -2.984375q-0.328125 -1.3125 -0.328125 -2.640625zm12.945801 0.015625q0 1.171875 -0.3125 2.5q-0.296875 1.3125 -1.171875 3.046875q-0.875 1.734375 -1.265625 2.09375q-0.125 0.125 -0.265625 0.125q-0.1875 0 -0.3125 -0.140625q-0.125 -0.125 -0.125 -0.296875q0 -0.09375 0.0625 -0.21875q1.125 -2.0625 1.609375 -3.75q0.484375 -1.6875 0.484375 -3.359375q0 -1.6875 -0.484375 -3.375q-0.484375 -1.6875 -1.609375 -3.75q-0.0625 -0.125 -0.0625 -0.234375q0 -0.171875 0.125 -0.296875q0.125 -0.125 0.3125 -0.125q0.140625 0 0.265625 0.125q0.375 0.34375 1.234375 2.03125q0.859375 1.6875 1.1875 3.0q0.328125 1.296875 0.328125 2.625z" fill-rule="nonzero"/><path fill="#000000" fill-opacity="0.0" d="m788.8163 188.24672l355.33862 -0.9133911" fill-rule="evenodd"/><path stroke="#000000" stroke-width="3.0" stroke-linejoin="round" stroke-linecap="butt" d="m788.8163 188.24672l337.33862 -0.86712646" fill-rule="evenodd"/><path fill="#000000" stroke="#000000" stroke-width="3.0" stroke-linecap="butt" d="m1126.1676 192.33478l13.6015625 -4.9901733l-13.626953 -4.9201813z" fill-rule="evenodd"/><path fill="#000000" fill-opacity="0.0" d="m911.59973 149.11285l159.90552 0l0 33.606308l-159.90552 0z" fill-rule="evenodd"/><path fill="#000000" d="m976.239 165.38039l0 -0.28125q0 -0.3125 0.125 -0.4375q0.125 -0.140625 0.3125 -0.140625q0.1875 0 0.3125 0.140625q0.125 0.125 0.125 0.4375l0 1.953125q-0.015625 0.3125 -0.140625 0.453125q-0.109375 0.125 -0.296875 0.125q-0.171875 0 -0.296875 -0.109375q-0.109375 -0.125 -0.140625 -0.40625q-0.0625 -0.71875 -0.953125 -1.375q-0.890625 -0.65625 -2.421875 -0.65625q-1.90625 0 -2.90625 1.203125q-1.0 1.1875 -1.0 2.734375q0 1.671875 1.09375 2.765625q1.109375 1.09375 2.84375 1.09375q1.015625 0 2.046875 -0.375q1.046875 -0.375 1.890625 -1.1875q0.203125 -0.203125 0.375 -0.203125q0.171875 0 0.28125 0.125q0.125 0.109375 0.125 0.28125q0 0.4375 -1.03125 1.109375q-1.671875 1.109375 -3.71875 1.109375q-2.078125 0 -3.421875 -1.328125q-1.34375 -1.328125 -1.34375 -3.375q0 -2.078125 1.359375 -3.453125q1.375 -1.375 3.46875 -1.375q1.96875 0 3.3125 1.171875zm11.492676 8.015625l0 -1.234375q-1.875 1.578125 -4.015625 1.578125q-1.546875 0 -2.421875 -0.78125q-0.859375 -0.796875 -0.859375 -1.9375q0 -1.25 1.140625 -2.171875q1.15625 -0.9375 3.359375 -0.9375q0.59375 0 1.28125 0.078125q0.703125 0.078125 1.515625 0.234375l0 -1.390625q0 -0.703125 -0.65625 -1.21875q-0.65625 -0.53125 -1.96875 -0.53125q-1.015625 0 -2.828125 0.578125q-0.328125 0.109375 -0.421875 0.109375q-0.15625 0 -0.28125 -0.125q-0.109375 -0.125 -0.109375 -0.3125q0 -0.171875 0.09375 -0.28125q0.15625 -0.140625 1.171875 -0.40625q1.59375 -0.4375 2.40625 -0.4375q1.640625 0 2.546875 0.8125q0.921875 0.796875 0.921875 1.8125l0 5.703125l1.140625 0q0.3125 0 0.4375 0.125q0.140625 0.109375 0.140625 0.296875q0 0.1875 -0.140625 0.3125q-0.125 0.125 -0.4375 0.125l-2.015625 0zm0 -4.28125q-0.609375 -0.171875 -1.296875 -0.25q-0.671875 -0.09375 -1.40625 -0.09375q-1.890625 0 -2.9375 0.8125q-0.796875 0.609375 -0.796875 1.4375q0 0.78125 0.609375 1.328125q0.609375 0.53125 1.78125 0.53125q1.109375 0 2.0625 -0.453125q0.96875 -0.453125 1.984375 -1.421875l0 -1.890625zm10.555176 -8.59375l0 12.015625l3.390625 0q0.3125 0 0.4375 0.125q0.140625 0.109375 0.140625 0.296875q0 0.1875 -0.140625 0.3125q-0.125 0.125 -0.4375 0.125l-7.640625 0q-0.296875 0 -0.4375 -0.125q-0.125 -0.125 -0.125 -0.3125q0 -0.1875 0.125 -0.296875q0.140625 -0.125 0.4375 -0.125l3.390625 0l0 -11.140625l-2.484375 0q-0.296875 0 -0.4375 -0.125q-0.140625 -0.125 -0.140625 -0.3125q0 -0.1875 0.125 -0.3125q0.140625 -0.125 0.453125 -0.125l3.34375 0zm12.602051 0l0 12.015625l3.390625 0q0.3125 0 0.4375 0.125q0.140625 0.109375 0.140625 0.296875q0 0.1875 -0.140625 0.3125q-0.125 0.125 -0.4375 0.125l-7.640625 0q-0.296875 0 -0.4375 -0.125q-0.125 -0.125 -0.125 -0.3125q0 -0.1875 0.125 -0.296875q0.140625 -0.125 0.4375 -0.125l3.390625 0l0 -11.140625l-2.484375 0q-0.296875 0 -0.4375 -0.125q-0.140625 -0.125 -0.140625 -0.3125q0 -0.1875 0.125 -0.3125q0.140625 -0.125 0.453125 -0.125l3.34375 0z" fill-rule="nonzero"/></g></svg>